<svg width="256" height="256" viewBox="0 0 256 256" fill="none" xmlns="http://www.w3.org/2000/svg">
<rect width="256" height="256" rx="30" fill="black"/>
<path d="M126.676 12.0385C135.084 11.4996 143.436 16.646 144.736 25.3041C145.941 30.7041 145.174 35.1858 142.063 39.7693C137.047 47.1552 131.363 54.1971 126.209 61.4924C123.763 64.983 121.356 68.5006 118.989 72.0444C118.663 72.529 117.935 73.6452 117.21 74.721C116.101 76.3637 114.932 77.978 113.849 79.6371C110.304 85.066 106.663 90.2116 103.511 95.8819C102.711 97.32 102.041 98.8491 101.676 100.454C98.021 116.531 113.672 120.618 96.7475 140.014C93.7052 143.896 84.4192 155.529 80.9846 158.221C79.2118 159.621 77.1853 160.666 75.0154 161.3C64.9227 164.199 56.1708 157.462 53.7268 147.82C51.1209 137.539 56.0278 129.949 60.4477 121.201L71.0763 100.346L85.3168 72.5261C87.5868 68.0999 90.4449 61.9876 92.8626 57.8989C96.5216 50.5576 110.712 21.4838 114.99 17.2638C118.091 14.2045 122.241 12.0013 126.676 12.0385Z" fill="#0564EF"/>
<path d="M126.676 12.0385C135.084 11.4996 143.436 16.646 144.736 25.3041C145.941 30.7041 145.174 35.1858 142.062 39.7693C137.047 47.1552 131.363 54.1971 126.208 61.4924C123.763 64.983 121.356 68.5006 118.989 72.0444C118.392 72.9303 116.456 75.9272 115.637 76.9289C115.548 77.0383 115.384 77.0277 115.3 76.9143C115.248 76.8444 115.237 76.7573 115.278 76.6805C116.378 74.6184 119.596 70.0709 122.329 66.1299C125.254 61.9121 124.673 57.3072 120.094 54.9885C113.921 51.8624 105.211 47.9317 101.819 42.5333C101.717 42.369 101.479 42.3701 101.388 42.5406C100.815 43.6072 99.8904 45.4732 98.8486 47.5468C97.2537 50.7212 96.6128 50.3344 98.2069 47.1596C103.921 35.78 111.953 20.2596 114.99 17.2638C118.091 14.2045 122.241 12.0013 126.676 12.0385Z" fill="url(#paint0_linear_86_2)"/>
<path d="M96.8379 139.91C96.7836 139.972 96.6972 140.006 96.6155 139.993C96.4659 139.968 96.3777 139.812 96.4491 139.678C96.9637 138.715 98.2174 137.597 98.8673 136.712C100.679 134.322 102.329 131.57 103.261 128.76C105.253 122.749 103.78 117.211 101.22 111.685C101.036 111.287 101 110.851 100.953 110.379C100.84 109.247 99.9069 108.509 98.817 108.185C97.1143 107.679 95.2623 108.344 94.3284 109.855C90.8488 115.484 86.8314 121.794 83.3552 127.104C83.3 127.188 83.1706 127.159 83.1554 127.06C83.1515 127.034 83.1544 127.012 83.1677 126.99C83.6724 126.156 84.6102 124.59 85.812 122.6C91.9912 112.368 107.105 115.462 104.357 127.094C103.525 130.617 101.354 134.713 96.8379 139.91Z" fill="#004CF5"/>
<path d="M145.04 41.1799C147.166 38.255 152.772 37.1223 154.407 40.3475C155.673 42.8452 156.884 45.2703 157.922 47.3082C161.877 54.951 165.779 62.6198 169.634 70.314L192.013 114.181C195.282 120.688 200.193 129.196 202.159 135.973C206.263 150.112 194.811 166.249 179.226 160.978C174.552 159.488 170.407 155.08 167.488 151.164C164.897 148.275 162.366 145.335 159.891 142.348C153.576 134.792 149.44 128.594 152.951 118.342C154.617 113.483 155.364 111 154.857 106.566C154.681 105.025 154.27 103.519 153.734 102.064C151.707 96.5517 149.594 92.3531 146.352 86.9452C144.354 83.616 141.903 80.0004 139.85 76.5443C138.9 74.9454 138.461 74.2483 137.362 72.7476C133.137 66.9741 133.178 57.9776 137.317 52.1422C139.958 48.419 142.539 44.6209 145.04 41.1799Z" fill="url(#paint1_linear_86_2)"/>
<path d="M145.04 41.18C147.166 38.255 152.772 37.1223 154.407 40.3475C155.673 42.8452 156.884 45.2703 157.922 47.3082C161.337 53.9075 151.425 67.6442 144.095 68.8629C141.752 69.2523 139.813 69.8197 138.609 70.5932C137.952 71.0157 137.631 71.8475 137.973 72.5499C138.105 72.8203 138.279 73.0894 138.481 73.4399C138.509 73.488 138.521 73.5438 138.514 73.5991C138.491 73.8106 138.256 73.8983 138.12 73.7347C137.018 72.4106 134.37 68.4257 132.344 65.3622C130.953 63.2587 131.113 60.4672 132.657 58.473C136.929 52.9543 141.086 46.6207 145.04 41.18Z" fill="url(#paint2_linear_86_2)"/>
<path d="M154.564 104.538C154.538 104.387 154.64 104.241 154.791 104.217C154.893 104.201 154.995 104.243 155.054 104.327C156.052 105.745 156.571 107.264 157.42 108.756C164.975 122.034 172.356 135.412 179.701 148.805C180.477 150.223 180.891 152.109 181.643 153.506C182.768 155.59 184.984 158.716 185.237 161.094C185.244 161.158 185.233 161.223 185.208 161.282C185.15 161.419 185.021 161.513 184.873 161.517C183.437 161.551 181.693 160.942 180.261 160.807C177.351 160.531 174.784 158.041 172.5 155.631C169.44 152.404 165.93 149.462 163.038 146.084C161.98 144.847 160.931 143.602 159.892 142.348C153.577 134.792 149.441 128.594 152.952 118.342C154.855 112.791 155.559 110.341 154.564 104.538Z" fill="#2C90FD"/>
<path d="M115.963 95.4039C116.536 94.6602 116.772 94.3122 117.271 93.5175C117.412 93.293 117.559 93.0624 117.711 92.8265C122.444 85.5096 133.138 85.7755 137.937 93.049C141.459 97.5244 141.035 103.895 137.491 108.354C135.957 110.285 134.393 112.269 132.946 114.161C130.158 117.807 128.804 122.303 128.799 126.892L128.779 145.457C128.774 150.306 134.261 155.692 131.477 159.662C125.743 167.852 127.12 147.049 127.145 137.052C127.153 133.822 127.155 130.592 127.14 127.378C127.117 122.513 125.465 117.799 122.472 113.963C120.302 111.181 118.122 108.407 115.934 105.639C113.678 102.786 113.745 98.2859 115.963 95.4039Z" fill="#0564EF"/>
<path d="M119.274 92.4115C118.281 92.2434 117.927 92.4877 118.488 91.6511C120.431 88.7537 122.968 85.2956 125.144 82.3437C126.511 80.4887 129.28 80.4628 130.623 82.3355C132.476 84.9194 134.373 87.699 136.114 90.3012C136.613 91.0479 135.641 92.0197 134.871 92.4817C128.92 96.0486 125.281 93.4252 119.274 92.4115Z" fill="#1CA7FD"/>
<path d="M15.594 211L21.666 187.9H29.256L35.328 211H30.84L29.586 205.918H21.336L20.082 211H15.594ZM22.359 201.892H28.563L25.758 190.639H25.164L22.359 201.892ZM45.0277 211.462C42.1677 211.462 39.9017 210.67 38.2297 209.086C36.5577 207.48 35.7217 205.192 35.7217 202.222V196.678C35.7217 193.708 36.5577 191.431 38.2297 189.847C39.9017 188.241 42.1677 187.438 45.0277 187.438C47.8657 187.438 50.0547 188.219 51.5947 189.781C53.1567 191.321 53.9377 193.444 53.9377 196.15V196.348H49.6477V196.018C49.6477 194.654 49.2627 193.532 48.4927 192.652C47.7447 191.772 46.5897 191.332 45.0277 191.332C43.4877 191.332 42.2777 191.805 41.3977 192.751C40.5177 193.697 40.0777 194.984 40.0777 196.612V202.288C40.0777 203.894 40.5177 205.181 41.3977 206.149C42.2777 207.095 43.4877 207.568 45.0277 207.568C46.5897 207.568 47.7447 207.128 48.4927 206.248C49.2627 205.346 49.6477 204.224 49.6477 202.882V202.288H53.9377V202.75C53.9377 205.456 53.1567 207.59 51.5947 209.152C50.0547 210.692 47.8657 211.462 45.0277 211.462ZM55.837 211V187.9H70.687V191.86H60.193V197.371H69.763V201.331H60.193V207.04H70.885V211H55.837Z" fill="#054887"/>
<path d="M83.5353 211V191.86H76.8033V187.9H94.6233V191.86H87.8913V211H83.5353ZM100.436 211.462C98.808 211.462 97.367 211.121 96.113 210.439C94.881 209.735 93.913 208.756 93.209 207.502C92.527 206.226 92.186 204.73 92.186 203.014V202.618C92.186 200.902 92.527 199.417 93.209 198.163C93.891 196.887 94.848 195.908 96.08 195.226C97.312 194.522 98.742 194.17 100.37 194.17C101.976 194.17 103.373 194.533 104.561 195.259C105.749 195.963 106.673 196.953 107.333 198.229C107.993 199.483 108.323 200.946 108.323 202.618V204.037H96.41C96.454 205.159 96.872 206.072 97.664 206.776C98.456 207.48 99.424 207.832 100.568 207.832C101.734 207.832 102.592 207.579 103.142 207.073C103.692 206.567 104.11 206.006 104.396 205.39L107.795 207.172C107.487 207.744 107.036 208.371 106.442 209.053C105.87 209.713 105.1 210.285 104.132 210.769C103.164 211.231 101.932 211.462 100.436 211.462ZM96.443 200.935H104.099C104.011 199.989 103.626 199.23 102.944 198.658C102.284 198.086 101.415 197.8 100.337 197.8C99.215 197.8 98.324 198.086 97.664 198.658C97.004 199.23 96.597 199.989 96.443 200.935ZM110.374 211V187.9H114.532V196.645H115.126C115.302 196.293 115.577 195.941 115.951 195.589C116.325 195.237 116.82 194.951 117.436 194.731C118.074 194.489 118.877 194.368 119.845 194.368C121.121 194.368 122.232 194.665 123.178 195.259C124.146 195.831 124.894 196.634 125.422 197.668C125.95 198.68 126.214 199.868 126.214 201.232V211H122.056V201.562C122.056 200.33 121.748 199.406 121.132 198.79C120.538 198.174 119.68 197.866 118.558 197.866C117.282 197.866 116.292 198.295 115.588 199.153C114.884 199.989 114.532 201.166 114.532 202.684V211H110.374ZM129.059 211V194.632H133.151V196.777H133.745C134.009 196.205 134.504 195.666 135.23 195.16C135.956 194.632 137.056 194.368 138.53 194.368C139.806 194.368 140.917 194.665 141.863 195.259C142.831 195.831 143.579 196.634 144.107 197.668C144.635 198.68 144.899 199.868 144.899 201.232V211H140.741V201.562C140.741 200.33 140.433 199.406 139.817 198.79C139.223 198.174 138.365 197.866 137.243 197.866C135.967 197.866 134.977 198.295 134.273 199.153C133.569 199.989 133.217 201.166 133.217 202.684V211H129.059ZM155.532 211.462C153.904 211.462 152.441 211.132 151.143 210.472C149.845 209.812 148.822 208.855 148.074 207.601C147.326 206.347 146.952 204.84 146.952 203.08V202.552C146.952 200.792 147.326 199.285 148.074 198.031C148.822 196.777 149.845 195.82 151.143 195.16C152.441 194.5 153.904 194.17 155.532 194.17C157.16 194.17 158.623 194.5 159.921 195.16C161.219 195.82 162.242 196.777 162.99 198.031C163.738 199.285 164.112 200.792 164.112 202.552V203.08C164.112 204.84 163.738 206.347 162.99 207.601C162.242 208.855 161.219 209.812 159.921 210.472C158.623 211.132 157.16 211.462 155.532 211.462ZM155.532 207.766C156.808 207.766 157.864 207.359 158.7 206.545C159.536 205.709 159.954 204.521 159.954 202.981V202.651C159.954 201.111 159.536 199.934 158.7 199.12C157.886 198.284 156.83 197.866 155.532 197.866C154.256 197.866 153.2 198.284 152.364 199.12C151.528 199.934 151.11 201.111 151.11 202.651V202.981C151.11 204.521 151.528 205.709 152.364 206.545C153.2 207.359 154.256 207.766 155.532 207.766ZM166.3 211V187.9H170.458V211H166.3ZM181.203 211.462C179.575 211.462 178.112 211.132 176.814 210.472C175.516 209.812 174.493 208.855 173.745 207.601C172.997 206.347 172.623 204.84 172.623 203.08V202.552C172.623 200.792 172.997 199.285 173.745 198.031C174.493 196.777 175.516 195.82 176.814 195.16C178.112 194.5 179.575 194.17 181.203 194.17C182.831 194.17 184.294 194.5 185.592 195.16C186.89 195.82 187.913 196.777 188.661 198.031C189.409 199.285 189.783 200.792 189.783 202.552V203.08C189.783 204.84 189.409 206.347 188.661 207.601C187.913 208.855 186.89 209.812 185.592 210.472C184.294 211.132 182.831 211.462 181.203 211.462ZM181.203 207.766C182.479 207.766 183.535 207.359 184.371 206.545C185.207 205.709 185.625 204.521 185.625 202.981V202.651C185.625 201.111 185.207 199.934 184.371 199.12C183.557 198.284 182.501 197.866 181.203 197.866C179.927 197.866 178.871 198.284 178.035 199.12C177.199 199.934 176.781 201.111 176.781 202.651V202.981C176.781 204.521 177.199 205.709 178.035 206.545C178.871 207.359 179.927 207.766 181.203 207.766ZM191.18 202.882V202.354C191.18 200.638 191.521 199.175 192.203 197.965C192.885 196.733 193.787 195.798 194.909 195.16C196.053 194.5 197.296 194.17 198.638 194.17C200.134 194.17 201.267 194.434 202.037 194.962C202.807 195.49 203.368 196.04 203.72 196.612H204.314V194.632H208.406V213.904C208.406 215.026 208.076 215.917 207.416 216.577C206.756 217.259 205.876 217.6 204.776 217.6H193.82V213.97H203.324C203.94 213.97 204.248 213.64 204.248 212.98V208.723H203.654C203.434 209.075 203.126 209.438 202.73 209.812C202.334 210.164 201.806 210.461 201.146 210.703C200.486 210.945 199.65 211.066 198.638 211.066C197.296 211.066 196.053 210.747 194.909 210.109C193.787 209.449 192.885 208.514 192.203 207.304C191.521 206.072 191.18 204.598 191.18 202.882ZM199.826 207.436C201.102 207.436 202.169 207.029 203.027 206.215C203.885 205.401 204.314 204.257 204.314 202.783V202.453C204.314 200.957 203.885 199.813 203.027 199.021C202.191 198.207 201.124 197.8 199.826 197.8C198.55 197.8 197.483 198.207 196.625 199.021C195.767 199.813 195.338 200.957 195.338 202.453V202.783C195.338 204.257 195.767 205.401 196.625 206.215C197.483 207.029 198.55 207.436 199.826 207.436ZM211.365 211V194.632H215.523V211H211.365ZM213.444 192.718C212.696 192.718 212.058 192.476 211.53 191.992C211.024 191.508 210.771 190.87 210.771 190.078C210.771 189.286 211.024 188.648 211.53 188.164C212.058 187.68 212.696 187.438 213.444 187.438C214.214 187.438 214.852 187.68 215.358 188.164C215.864 188.648 216.117 189.286 216.117 190.078C216.117 190.87 215.864 191.508 215.358 191.992C214.852 192.476 214.214 192.718 213.444 192.718ZM225.939 211.462C224.311 211.462 222.87 211.121 221.616 210.439C220.384 209.735 219.416 208.756 218.712 207.502C218.03 206.226 217.689 204.73 217.689 203.014V202.618C217.689 200.902 218.03 199.417 218.712 198.163C219.394 196.887 220.351 195.908 221.583 195.226C222.815 194.522 224.245 194.17 225.873 194.17C227.479 194.17 228.876 194.533 230.064 195.259C231.252 195.963 232.176 196.953 232.836 198.229C233.496 199.483 233.826 200.946 233.826 202.618V204.037H221.913C221.957 205.159 222.375 206.072 223.167 206.776C223.959 207.48 224.927 207.832 226.071 207.832C227.237 207.832 228.095 207.579 228.645 207.073C229.195 206.567 229.613 206.006 229.899 205.39L233.298 207.172C232.99 207.744 232.539 208.371 231.945 209.053C231.373 209.713 230.603 210.285 229.635 210.769C228.667 211.231 227.435 211.462 225.939 211.462ZM221.946 200.935H229.602C229.514 199.989 229.129 199.23 228.447 198.658C227.787 198.086 226.918 197.8 225.84 197.8C224.718 197.8 223.827 198.086 223.167 198.658C222.507 199.23 222.1 199.989 221.946 200.935ZM242.675 211.462C240.541 211.462 238.792 211 237.428 210.076C236.064 209.152 235.239 207.832 234.953 206.116L238.781 205.126C238.935 205.896 239.188 206.501 239.54 206.941C239.914 207.381 240.365 207.7 240.893 207.898C241.443 208.074 242.037 208.162 242.675 208.162C243.643 208.162 244.358 207.997 244.82 207.667C245.282 207.315 245.513 206.886 245.513 206.38C245.513 205.874 245.293 205.489 244.853 205.225C244.413 204.939 243.709 204.708 242.741 204.532L241.817 204.367C240.673 204.147 239.628 203.85 238.682 203.476C237.736 203.08 236.977 202.541 236.405 201.859C235.833 201.177 235.547 200.297 235.547 199.219C235.547 197.591 236.141 196.348 237.329 195.49C238.517 194.61 240.079 194.17 242.015 194.17C243.841 194.17 245.359 194.577 246.569 195.391C247.779 196.205 248.571 197.272 248.945 198.592L245.084 199.78C244.908 198.944 244.545 198.35 243.995 197.998C243.467 197.646 242.807 197.47 242.015 197.47C241.223 197.47 240.618 197.613 240.2 197.899C239.782 198.163 239.573 198.537 239.573 199.021C239.573 199.549 239.793 199.945 240.233 200.209C240.673 200.451 241.267 200.638 242.015 200.77L242.939 200.935C244.171 201.155 245.282 201.452 246.272 201.826C247.284 202.178 248.076 202.695 248.648 203.377C249.242 204.037 249.539 204.939 249.539 206.083C249.539 207.799 248.912 209.13 247.658 210.076C246.426 211 244.765 211.462 242.675 211.462Z" fill="white"/>
<defs>
<linearGradient id="paint0_linear_86_2" x1="136.6" y1="18.4266" x2="111.2" y2="50.8543" gradientUnits="userSpaceOnUse">
<stop stop-color="#B4DAFB"/>
<stop offset="1" stop-color="#2D91FE"/>
</linearGradient>
<linearGradient id="paint1_linear_86_2" x1="170.117" y1="161.317" x2="169.48" y2="67.7594" gradientUnits="userSpaceOnUse">
<stop stop-color="#449CFF"/>
<stop offset="1" stop-color="#99CAFC"/>
</linearGradient>
<linearGradient id="paint2_linear_86_2" x1="149.878" y1="70.7395" x2="146.803" y2="30.8553" gradientUnits="userSpaceOnUse">
<stop stop-color="#9CCCFC"/>
<stop offset="1" stop-color="#D4EAFB"/>
</linearGradient>
</defs>
</svg>
