<svg xmlns="http://www.w3.org/2000/svg" xmlns:xlink="http://www.w3.org/1999/xlink" width="2000" zoomAndPan="magnify" viewBox="0 0 1500 1499.999933" height="2000" preserveAspectRatio="xMidYMid meet" version="1.0"><defs><g/><clipPath id="abc9359284"><path d="M 1235.519531 710.984375 L 1296.121094 710.984375 L 1296.121094 771.585938 L 1235.519531 771.585938 Z M 1235.519531 710.984375 " clip-rule="nonzero"/></clipPath><clipPath id="4112cab9d9"><path d="M 1265.820312 710.984375 C 1249.085938 710.984375 1235.519531 724.550781 1235.519531 741.285156 C 1235.519531 758.019531 1249.085938 771.585938 1265.820312 771.585938 C 1282.554688 771.585938 1296.121094 758.019531 1296.121094 741.285156 C 1296.121094 724.550781 1282.554688 710.984375 1265.820312 710.984375 Z M 1265.820312 710.984375 " clip-rule="nonzero"/></clipPath><clipPath id="edaed2e07b"><path d="M 0.519531 0.984375 L 61.121094 0.984375 L 61.121094 61.585938 L 0.519531 61.585938 Z M 0.519531 0.984375 " clip-rule="nonzero"/></clipPath><clipPath id="8b3cd4b785"><path d="M 30.820312 0.984375 C 14.085938 0.984375 0.519531 14.550781 0.519531 31.285156 C 0.519531 48.019531 14.085938 61.585938 30.820312 61.585938 C 47.554688 61.585938 61.121094 48.019531 61.121094 31.285156 C 61.121094 14.550781 47.554688 0.984375 30.820312 0.984375 Z M 30.820312 0.984375 " clip-rule="nonzero"/></clipPath><clipPath id="9f515f76c6"><rect x="0" width="62" y="0" height="62"/></clipPath><clipPath id="e3b9fd0ea1"><path d="M 89.777344 526 L 344 526 L 344 845.804688 L 89.777344 845.804688 Z M 89.777344 526 " clip-rule="nonzero"/></clipPath><clipPath id="0fd1b8b1bb"><path d="M 327 580 L 547.277344 580 L 547.277344 601 L 327 601 Z M 327 580 " clip-rule="nonzero"/></clipPath></defs><g fill="#435058" fill-opacity="1"><g transform="translate(255.179528, 774.733977)"><g><path d="M 44.53125 -51.234375 C 40.945312 -51.234375 38.296875 -49.664062 36.578125 -46.53125 C 34.867188 -43.40625 33.789062 -39.601562 33.34375 -35.125 C 32.894531 -30.65625 32.742188 -26.332031 32.890625 -22.15625 C 33.035156 -17.976562 33.1875 -14.84375 33.34375 -12.75 C 33.632812 -10.664062 33.816406 -8.429688 33.890625 -6.046875 C 33.972656 -3.660156 32.820312 -1.941406 30.4375 -0.890625 C 28.789062 -0.296875 26.882812 -0.1875 24.71875 -0.5625 C 22.5625 -0.9375 20.585938 -1.046875 18.796875 -0.890625 C 17.753906 -0.890625 15.890625 -0.773438 13.203125 -0.546875 C 10.515625 -0.328125 7.898438 -0.328125 5.359375 -0.546875 C 2.828125 -0.773438 1.265625 -1.488281 0.671875 -2.6875 C 0.523438 -3.132812 0.453125 -3.953125 0.453125 -5.140625 C 0.453125 -13.492188 0.453125 -21.847656 0.453125 -30.203125 C 0.453125 -38.554688 0.453125 -46.835938 0.453125 -55.046875 C 0.453125 -70.859375 0.453125 -86.707031 0.453125 -102.59375 C 0.453125 -118.476562 0.375 -134.328125 0.21875 -150.140625 C 0.21875 -153.117188 0.40625 -156.175781 0.78125 -159.3125 C 1.15625 -162.445312 3.132812 -164.535156 6.71875 -165.578125 C 9.695312 -166.472656 12.828125 -166.582031 16.109375 -165.90625 C 19.390625 -165.238281 22.597656 -164.832031 25.734375 -164.6875 C 36.921875 -164.082031 48.109375 -163.59375 59.296875 -163.21875 C 70.484375 -162.851562 81.742188 -162 93.078125 -160.65625 C 95.617188 -160.351562 98.117188 -159.90625 100.578125 -159.3125 C 103.035156 -158.71875 105.457031 -157.894531 107.84375 -156.84375 C 116.34375 -153.269531 122.347656 -147.601562 125.859375 -139.84375 C 129.367188 -132.082031 131.421875 -123.878906 132.015625 -115.234375 C 132.304688 -109.265625 131.929688 -103.332031 130.890625 -97.4375 C 129.847656 -91.550781 127.910156 -86 125.078125 -80.78125 C 123.585938 -78.238281 121.945312 -75.773438 120.15625 -73.390625 C 118.363281 -71.003906 116.347656 -68.765625 114.109375 -66.671875 C 113.210938 -65.773438 111.867188 -64.726562 110.078125 -63.53125 C 108.296875 -62.34375 106.769531 -61.078125 105.5 -59.734375 C 104.226562 -58.398438 103.664062 -56.910156 103.8125 -55.265625 C 103.96875 -54.671875 104.191406 -54.070312 104.484375 -53.46875 C 104.785156 -52.875 105.085938 -52.207031 105.390625 -51.46875 C 108.960938 -46.09375 112.835938 -40.90625 117.015625 -35.90625 C 121.191406 -30.914062 125.144531 -25.804688 128.875 -20.578125 C 130.519531 -18.191406 132.273438 -15.804688 134.140625 -13.421875 C 136.003906 -11.035156 137.457031 -8.5 138.5 -5.8125 C 138.800781 -5.070312 139.097656 -4.175781 139.390625 -3.125 C 139.691406 -2.082031 139.320312 -1.265625 138.28125 -0.671875 C 137.832031 -0.523438 137.160156 -0.453125 136.265625 -0.453125 C 132.835938 -0.453125 129.40625 -0.410156 125.96875 -0.328125 C 122.539062 -0.253906 119.109375 -0.21875 115.671875 -0.21875 C 112.242188 -0.21875 108.773438 -0.289062 105.265625 -0.4375 C 101.765625 -0.59375 98.671875 -1.9375 95.984375 -4.46875 C 94.046875 -6.414062 92.40625 -8.617188 91.0625 -11.078125 C 89.71875 -13.535156 88.226562 -15.882812 86.59375 -18.125 C 83.757812 -22.445312 80.8125 -26.734375 77.75 -30.984375 C 74.695312 -35.234375 71.453125 -39.375 68.015625 -43.40625 C 63.835938 -47.882812 56.15625 -50.492188 44.96875 -51.234375 C 44.820312 -51.234375 44.75 -51.234375 44.75 -51.234375 C 44.75 -51.234375 44.675781 -51.234375 44.53125 -51.234375 Z M 35.359375 -91.96875 C 36.097656 -88.675781 37.992188 -86.25 41.046875 -84.6875 C 44.109375 -83.125 47.691406 -82.15625 51.796875 -81.78125 C 55.898438 -81.40625 59.925781 -81.40625 63.875 -81.78125 C 67.832031 -82.15625 71.003906 -82.640625 73.390625 -83.234375 C 79.953125 -84.878906 85.65625 -87.972656 90.5 -92.515625 C 95.351562 -97.066406 97.78125 -102.921875 97.78125 -110.078125 C 97.78125 -115.453125 96.472656 -119.925781 93.859375 -123.5 C 91.253906 -127.082031 87.863281 -129.914062 83.6875 -132 C 79.507812 -134.09375 74.992188 -135.472656 70.140625 -136.140625 C 65.296875 -136.816406 60.632812 -136.929688 56.15625 -136.484375 C 54.21875 -136.335938 51.753906 -136.039062 48.765625 -135.59375 C 45.785156 -135.144531 43.066406 -134.359375 40.609375 -133.234375 C 38.148438 -132.117188 36.625 -130.296875 36.03125 -127.765625 C 33.1875 -115.679688 32.960938 -103.75 35.359375 -91.96875 Z M 35.359375 -91.96875 "/></g></g></g><g fill="#435058" fill-opacity="1"><g transform="translate(395.244738, 774.733977)"><g><path d="M 7.609375 -166.015625 C 7.753906 -166.015625 7.898438 -166.015625 8.046875 -166.015625 C 8.203125 -166.015625 8.351562 -166.015625 8.5 -166.015625 C 12.226562 -166.015625 15.882812 -165.976562 19.46875 -165.90625 C 23.050781 -165.832031 26.707031 -165.722656 30.4375 -165.578125 C 33.113281 -165.421875 34.453125 -164.375 34.453125 -162.4375 C 34.453125 -160.5 34.453125 -158.488281 34.453125 -156.40625 C 34.453125 -143.570312 34.453125 -130.664062 34.453125 -117.6875 C 34.453125 -104.707031 34.453125 -91.804688 34.453125 -78.984375 C 34.453125 -72.867188 34.414062 -66.710938 34.34375 -60.515625 C 34.269531 -54.328125 34.234375 -48.175781 34.234375 -42.0625 C 34.234375 -36.394531 34.566406 -30.6875 35.234375 -24.9375 C 35.910156 -19.195312 35.875 -13.421875 35.125 -7.609375 C 34.675781 -4.773438 33.707031 -2.945312 32.21875 -2.125 C 30.726562 -1.300781 28.566406 -0.742188 25.734375 -0.453125 C 24.390625 -0.296875 22.335938 -0.179688 19.578125 -0.109375 C 16.816406 -0.0351562 13.941406 -0.1875 10.953125 -0.5625 C 7.972656 -0.9375 5.398438 -1.679688 3.234375 -2.796875 C 1.078125 -3.910156 0 -5.515625 0 -7.609375 C 0 -32.671875 0.0351562 -57.726562 0.109375 -82.78125 C 0.179688 -107.84375 0.144531 -132.90625 0 -157.96875 C 0 -160.945312 0.554688 -162.992188 1.671875 -164.109375 C 2.796875 -165.234375 4.773438 -165.867188 7.609375 -166.015625 Z M 7.609375 -166.015625 "/></g></g></g><g fill="#435058" fill-opacity="1"><g transform="translate(431.491275, 774.733977)"><g><path d="M 29.765625 -165.796875 C 33.191406 -165.796875 36.65625 -165.796875 40.15625 -165.796875 C 43.664062 -165.796875 47.132812 -165.796875 50.5625 -165.796875 C 59.664062 -165.941406 69.0625 -165.304688 78.75 -163.890625 C 88.445312 -162.472656 97.472656 -160.050781 105.828125 -156.625 C 123.734375 -149.3125 136.265625 -137.523438 143.421875 -121.265625 C 147.003906 -113.066406 149.316406 -104.117188 150.359375 -94.421875 C 151.398438 -84.722656 151.140625 -75.0625 149.578125 -65.4375 C 148.015625 -55.820312 145.066406 -46.984375 140.734375 -38.921875 C 136.410156 -30.867188 130.59375 -24.382812 123.28125 -19.46875 C 115.820312 -14.394531 108.585938 -10.441406 101.578125 -7.609375 C 94.566406 -4.773438 88.078125 -2.984375 82.109375 -2.234375 C 75.097656 -1.640625 68.050781 -1.226562 60.96875 -1 C 53.882812 -0.78125 46.765625 -0.671875 39.609375 -0.671875 C 36.023438 -0.671875 32.441406 -0.707031 28.859375 -0.78125 C 25.285156 -0.851562 21.632812 -0.96875 17.90625 -1.125 C 15.8125 -1.125 13.195312 -0.859375 10.0625 -0.328125 C 6.9375 0.191406 4.476562 -0.519531 2.6875 -2.46875 C 1.195312 -4.25 0.523438 -7.003906 0.671875 -10.734375 C 0.816406 -14.460938 0.890625 -17.445312 0.890625 -19.6875 C 1.046875 -32.96875 1.125 -46.171875 1.125 -59.296875 C 1.125 -72.421875 1.195312 -85.546875 1.34375 -98.671875 C 1.34375 -104.941406 1.378906 -111.171875 1.453125 -117.359375 C 1.523438 -123.546875 1.488281 -129.773438 1.34375 -136.046875 C 1.34375 -138.128906 1.117188 -140.625 0.671875 -143.53125 C 0.222656 -146.445312 0 -149.394531 0 -152.375 C 0 -155.351562 0.484375 -158.035156 1.453125 -160.421875 C 2.421875 -162.816406 4.25 -164.457031 6.9375 -165.34375 C 7.976562 -165.644531 9.019531 -165.832031 10.0625 -165.90625 C 11.113281 -165.976562 12.160156 -166.015625 13.203125 -166.015625 C 16.035156 -166.015625 18.789062 -166.015625 21.46875 -166.015625 C 24.15625 -166.015625 26.921875 -165.941406 29.765625 -165.796875 Z M 61.53125 -135.59375 C 58.25 -135.738281 54.890625 -135.695312 51.453125 -135.46875 C 48.023438 -135.25 44.671875 -134.914062 41.390625 -134.46875 C 38.859375 -134.175781 37.253906 -132.6875 36.578125 -130 C 35.910156 -127.3125 35.722656 -124.4375 36.015625 -121.375 C 36.316406 -118.320312 36.46875 -115.828125 36.46875 -113.890625 C 36.320312 -109.710938 36.25 -105.457031 36.25 -101.125 C 36.25 -96.800781 36.25 -92.476562 36.25 -88.15625 C 36.25 -79.800781 36.25 -71.375 36.25 -62.875 C 36.25 -54.375 36.25 -45.945312 36.25 -37.59375 C 36.25 -34.757812 37.8125 -32.78125 40.9375 -31.65625 C 44.070312 -30.539062 47.835938 -29.984375 52.234375 -29.984375 C 56.640625 -29.984375 60.851562 -30.242188 64.875 -30.765625 C 68.90625 -31.285156 71.742188 -31.617188 73.390625 -31.765625 C 79.503906 -32.660156 85.359375 -34.523438 90.953125 -37.359375 C 96.546875 -40.203125 101.429688 -43.929688 105.609375 -48.546875 C 109.785156 -53.171875 112.617188 -58.617188 114.109375 -64.890625 C 115.597656 -70.253906 116.414062 -76.066406 116.5625 -82.328125 C 116.71875 -88.597656 116.050781 -94.753906 114.5625 -100.796875 C 113.070312 -106.835938 110.460938 -112.097656 106.734375 -116.578125 C 100.910156 -123.734375 94.046875 -128.65625 86.140625 -131.34375 C 78.234375 -134.03125 70.03125 -135.445312 61.53125 -135.59375 Z M 61.53125 -135.59375 "/></g></g></g><g fill="#435058" fill-opacity="1"><g transform="translate(582.967585, 774.733977)"><g><path d="M 110.3125 -165.796875 C 112.695312 -165.796875 114.335938 -165.644531 115.234375 -165.34375 C 116.128906 -165.050781 116.648438 -164.753906 116.796875 -164.453125 C 117.992188 -163.265625 118.628906 -161.8125 118.703125 -160.09375 C 118.773438 -158.375 118.738281 -156.695312 118.59375 -155.0625 C 118.4375 -152.820312 118.320312 -150.546875 118.25 -148.234375 C 118.175781 -145.921875 118.210938 -143.644531 118.359375 -141.40625 C 118.359375 -140.8125 118.359375 -140.140625 118.359375 -139.390625 C 118.359375 -138.648438 118.210938 -137.90625 117.921875 -137.15625 C 117.472656 -135.8125 116.09375 -135.023438 113.78125 -134.796875 C 111.46875 -134.578125 109.039062 -134.617188 106.5 -134.921875 C 103.96875 -135.222656 102.03125 -135.375 100.6875 -135.375 C 97.257812 -135.519531 93.828125 -135.59375 90.390625 -135.59375 C 86.960938 -135.59375 83.535156 -135.59375 80.109375 -135.59375 C 73.242188 -135.59375 66.453125 -135.59375 59.734375 -135.59375 C 53.023438 -135.59375 46.238281 -135.59375 39.375 -135.59375 C 37.882812 -135.59375 36.578125 -135.03125 35.453125 -133.90625 C 34.335938 -132.789062 33.78125 -131.414062 33.78125 -129.78125 L 33.78125 -103.59375 C 33.78125 -101.957031 34.335938 -100.578125 35.453125 -99.453125 C 36.578125 -98.335938 37.882812 -97.78125 39.375 -97.78125 C 41.757812 -97.78125 44.144531 -97.78125 46.53125 -97.78125 C 48.925781 -97.78125 51.316406 -97.78125 53.703125 -97.78125 C 61.898438 -97.78125 70.0625 -97.78125 78.1875 -97.78125 C 86.320312 -97.78125 94.492188 -97.851562 102.703125 -98 C 104.335938 -98.144531 105.488281 -97.546875 106.15625 -96.203125 C 106.832031 -94.867188 107.242188 -93.378906 107.390625 -91.734375 C 107.546875 -90.097656 107.625 -88.679688 107.625 -87.484375 C 107.625 -86.140625 107.660156 -83.898438 107.734375 -80.765625 C 107.804688 -77.640625 107.582031 -74.695312 107.0625 -71.9375 C 106.539062 -69.175781 105.382812 -67.5 103.59375 -66.90625 C 103 -66.75 102.328125 -66.671875 101.578125 -66.671875 C 100.835938 -66.671875 100.09375 -66.671875 99.34375 -66.671875 C 91.882812 -67.421875 84.347656 -67.71875 76.734375 -67.5625 C 69.128906 -67.414062 61.523438 -67.34375 53.921875 -67.34375 C 47.054688 -67.34375 42.171875 -67.003906 39.265625 -66.328125 C 36.359375 -65.660156 34.601562 -64.019531 34 -61.40625 C 33.40625 -58.800781 33.109375 -54.515625 33.109375 -48.546875 C 33.109375 -43.628906 33.296875 -39.863281 33.671875 -37.25 C 34.046875 -34.644531 35.085938 -32.859375 36.796875 -31.890625 C 38.515625 -30.921875 41.3125 -30.359375 45.1875 -30.203125 C 49.070312 -30.054688 54.519531 -29.984375 61.53125 -29.984375 C 70.78125 -29.984375 79.953125 -30.019531 89.046875 -30.09375 C 98.148438 -30.164062 107.25 -30.203125 116.34375 -30.203125 C 119.625 -30.203125 121.265625 -29.082031 121.265625 -26.84375 C 121.265625 -24.613281 121.191406 -22.300781 121.046875 -19.90625 C 120.898438 -18.125 120.785156 -16.300781 120.703125 -14.4375 C 120.628906 -12.570312 120.671875 -10.664062 120.828125 -8.71875 C 120.972656 -6.1875 120.75 -4.210938 120.15625 -2.796875 C 119.5625 -1.378906 117.695312 -0.671875 114.5625 -0.671875 C 105.90625 -0.671875 97.210938 -0.671875 88.484375 -0.671875 C 79.765625 -0.671875 71.003906 -0.671875 62.203125 -0.671875 C 54.148438 -0.816406 46.019531 -1 37.8125 -1.21875 C 29.601562 -1.445312 21.472656 -1.335938 13.421875 -0.890625 C 11.785156 -0.742188 9.992188 -0.519531 8.046875 -0.21875 C 6.109375 0.0703125 4.320312 -0.148438 2.6875 -0.890625 C 1.195312 -1.640625 0.410156 -3.394531 0.328125 -6.15625 C 0.253906 -8.914062 0.21875 -11.039062 0.21875 -12.53125 C 0.0703125 -14.914062 0 -17.265625 0 -19.578125 C 0 -21.890625 0 -24.238281 0 -26.625 C 0.144531 -31.394531 0.289062 -36.203125 0.4375 -41.046875 C 0.59375 -45.898438 0.671875 -50.789062 0.671875 -55.71875 C 0.671875 -71.675781 0.671875 -87.894531 0.671875 -104.375 C 0.671875 -120.863281 0.519531 -137.238281 0.21875 -153.5 C 0.21875 -159.007812 0.96875 -162.515625 2.46875 -164.015625 C 3.800781 -165.347656 5.585938 -166.015625 7.828125 -166.015625 C 10.066406 -166.015625 12.007812 -165.941406 13.65625 -165.796875 C 16.1875 -165.796875 18.679688 -165.796875 21.140625 -165.796875 C 23.609375 -165.796875 26.035156 -165.722656 28.421875 -165.578125 C 33.191406 -165.421875 37.960938 -165.34375 42.734375 -165.34375 C 47.503906 -165.34375 52.203125 -165.34375 56.828125 -165.34375 C 64.734375 -165.34375 72.601562 -165.378906 80.4375 -165.453125 C 88.269531 -165.535156 96.0625 -165.648438 103.8125 -165.796875 Z M 110.3125 -165.796875 "/></g></g></g><g fill="#848c8e" fill-opacity="1"><g transform="translate(704.909962, 774.733977)"><g><path d="M 33.34375 -3.125 C 32.289062 -1.789062 30.796875 -1.046875 28.859375 -0.890625 C 26.921875 -0.742188 24.910156 -0.519531 22.828125 -0.21875 C 20.878906 -0.0703125 18.597656 0.0703125 15.984375 0.21875 C 13.378906 0.375 10.921875 0.117188 8.609375 -0.546875 C 6.296875 -1.222656 4.546875 -2.609375 3.359375 -4.703125 C 1.566406 -7.984375 0.519531 -11.597656 0.21875 -15.546875 C -0.0703125 -19.503906 0.00390625 -23.53125 0.453125 -27.625 C 0.898438 -31.726562 1.125 -35.570312 1.125 -39.15625 C 1.269531 -46.164062 1.378906 -53.140625 1.453125 -60.078125 C 1.523438 -67.015625 1.640625 -73.988281 1.796875 -81 C 1.941406 -94.875 1.976562 -108.78125 1.90625 -122.71875 C 1.832031 -136.664062 1.644531 -150.578125 1.34375 -164.453125 C 1.34375 -168.335938 2.160156 -171.132812 3.796875 -172.84375 C 5.441406 -174.5625 7.601562 -175.566406 10.28125 -175.859375 C 12.96875 -176.160156 15.878906 -176.085938 19.015625 -175.640625 C 22.148438 -175.191406 25.132812 -174.820312 27.96875 -174.53125 C 31.101562 -174.226562 33.15625 -172.546875 34.125 -169.484375 C 35.09375 -166.429688 35.539062 -163.148438 35.46875 -159.640625 C 35.394531 -156.140625 35.28125 -153.34375 35.125 -151.25 C 34.832031 -144.394531 34.644531 -137.460938 34.5625 -130.453125 C 34.488281 -123.441406 34.453125 -116.425781 34.453125 -109.40625 C 34.453125 -92.40625 34.453125 -75.398438 34.453125 -58.390625 C 34.453125 -41.390625 34.453125 -24.390625 34.453125 -7.390625 C 34.453125 -5.597656 34.082031 -4.175781 33.34375 -3.125 Z M 33.34375 -3.125 "/></g></g></g><g fill="#848c8e" fill-opacity="1"><g transform="translate(740.932767, 774.733977)"><g><path d="M 109.40625 -5.59375 C 108.21875 -4.101562 106.351562 -3.28125 103.8125 -3.125 C 101.425781 -3.125 99.113281 -3.609375 96.875 -4.578125 C 94.644531 -5.554688 92.445312 -6.53125 90.28125 -7.5 C 88.113281 -8.46875 85.765625 -8.953125 83.234375 -8.953125 C 81.597656 -8.953125 79.957031 -8.835938 78.3125 -8.609375 C 76.664062 -8.390625 75.175781 -8.128906 73.84375 -7.828125 L 72.71875 -7.609375 C 68.394531 -6.859375 64.179688 -5.882812 60.078125 -4.6875 C 55.972656 -3.5 52.128906 -2.3125 48.546875 -1.125 C 46.910156 -0.675781 45.234375 -0.300781 43.515625 0 C 41.804688 0.300781 40.054688 0.453125 38.265625 0.453125 C 27.367188 0.453125 18.191406 -3.875 10.734375 -12.53125 C 2.234375 -22.226562 -1.117188 -34.160156 0.671875 -48.328125 C 1.421875 -53.992188 3.394531 -59.0625 6.59375 -63.53125 C 9.800781 -68.007812 13.867188 -71.445312 18.796875 -73.84375 C 21.328125 -75.03125 24.007812 -75.882812 26.84375 -76.40625 C 29.675781 -76.925781 32.585938 -77.410156 35.578125 -77.859375 C 36.316406 -77.859375 36.984375 -77.894531 37.578125 -77.96875 C 38.179688 -78.050781 38.78125 -78.164062 39.375 -78.3125 L 68.6875 -82.34375 C 72.570312 -82.9375 75 -84.085938 75.96875 -85.796875 C 76.9375 -87.515625 77.492188 -88.898438 77.640625 -89.953125 C 77.941406 -92.484375 77.160156 -94.789062 75.296875 -96.875 C 73.429688 -98.96875 71.226562 -100.390625 68.6875 -101.140625 C 64.0625 -102.921875 59.289062 -103.8125 54.375 -103.8125 L 53.703125 -103.8125 C 49.078125 -103.664062 44.675781 -102.992188 40.5 -101.796875 C 36.320312 -100.609375 32.296875 -99.195312 28.421875 -97.5625 C 27.222656 -96.957031 25.804688 -96.65625 24.171875 -96.65625 C 20.890625 -96.65625 17.644531 -97.738281 14.4375 -99.90625 C 11.226562 -102.070312 8.953125 -104.644531 7.609375 -107.625 C 7.015625 -108.8125 6.753906 -109.816406 6.828125 -110.640625 C 6.898438 -111.460938 7.007812 -112.097656 7.15625 -112.546875 C 8.050781 -114.484375 9.800781 -116.234375 12.40625 -117.796875 C 15.019531 -119.367188 17.78125 -120.710938 20.6875 -121.828125 C 23.601562 -122.953125 26.03125 -123.8125 27.96875 -124.40625 C 38.707031 -127.832031 49.519531 -129.546875 60.40625 -129.546875 C 61.457031 -129.546875 62.503906 -129.546875 63.546875 -129.546875 C 64.585938 -129.546875 65.628906 -129.472656 66.671875 -129.328125 C 71.898438 -129.023438 77.679688 -128.015625 84.015625 -126.296875 C 90.359375 -124.585938 95.765625 -121.347656 100.234375 -116.578125 C 105.460938 -110.910156 108.597656 -105.238281 109.640625 -99.5625 C 110.828125 -93.15625 111.234375 -86.484375 110.859375 -79.546875 C 110.492188 -72.609375 110.382812 -65.859375 110.53125 -59.296875 C 110.53125 -52.578125 110.53125 -45.820312 110.53125 -39.03125 C 110.53125 -32.25 110.601562 -25.578125 110.75 -19.015625 C 110.75 -16.773438 110.859375 -14.390625 111.078125 -11.859375 C 111.304688 -9.328125 110.75 -7.238281 109.40625 -5.59375 Z M 76.96875 -44.078125 C 78.164062 -46.460938 78.539062 -48.472656 78.09375 -50.109375 C 77.644531 -51.753906 77.195312 -52.875 76.75 -53.46875 C 76.144531 -54.363281 75.207031 -55.222656 73.9375 -56.046875 C 72.675781 -56.867188 70.925781 -57.351562 68.6875 -57.5 L 66.90625 -57.734375 C 65.5625 -57.878906 64.179688 -57.953125 62.765625 -57.953125 C 61.347656 -57.953125 59.816406 -57.953125 58.171875 -57.953125 C 55.640625 -57.953125 52.582031 -57.691406 49 -57.171875 C 45.414062 -56.648438 41.984375 -55.269531 38.703125 -53.03125 C 36.472656 -51.238281 35.054688 -49.375 34.453125 -47.4375 C 33.859375 -45.789062 33.785156 -43.703125 34.234375 -41.171875 C 35.273438 -36.546875 37.285156 -32.960938 40.265625 -30.421875 C 43.253906 -27.890625 46.835938 -26.625 51.015625 -26.625 C 56.234375 -26.625 61.378906 -28.335938 66.453125 -31.765625 C 71.523438 -35.203125 75.03125 -39.304688 76.96875 -44.078125 Z M 76.96875 -44.078125 "/></g></g></g><g fill="#848c8e" fill-opacity="1"><g transform="translate(852.582072, 774.733977)"><g><path d="M 114.34375 -1.125 C 110.457031 -1.269531 106.535156 -1.304688 102.578125 -1.234375 C 98.628906 -1.160156 94.644531 -1.125 90.625 -1.125 C 89.726562 -1.125 89.015625 -2.6875 88.484375 -5.8125 C 87.960938 -8.945312 87.628906 -13.050781 87.484375 -18.125 C 87.335938 -23.195312 87.265625 -28.675781 87.265625 -34.5625 C 87.265625 -40.457031 87.335938 -46.164062 87.484375 -51.6875 C 87.628906 -57.207031 87.738281 -61.976562 87.8125 -66 C 87.894531 -70.03125 87.9375 -72.644531 87.9375 -73.84375 C 87.78125 -82.195312 86.472656 -88.535156 84.015625 -92.859375 C 81.554688 -97.179688 78.5 -100.160156 74.84375 -101.796875 C 71.1875 -103.441406 67.570312 -104.265625 64 -104.265625 L 63.546875 -104.265625 C 55.046875 -104.265625 48.144531 -101.390625 42.84375 -95.640625 C 37.550781 -89.898438 34.753906 -82.410156 34.453125 -73.171875 C 34.304688 -67.203125 34.234375 -61.234375 34.234375 -55.265625 C 34.234375 -49.296875 34.234375 -43.328125 34.234375 -37.359375 C 34.378906 -32.742188 34.785156 -27.640625 35.453125 -22.046875 C 36.128906 -16.453125 36.019531 -11.34375 35.125 -6.71875 C 34.53125 -3.28125 33.148438 -1.445312 30.984375 -1.21875 C 28.828125 -1 26.40625 -0.816406 23.71875 -0.671875 C 21.925781 -0.523438 19.578125 -0.335938 16.671875 -0.109375 C 13.765625 0.109375 10.929688 -0.00390625 8.171875 -0.453125 C 5.410156 -0.898438 3.359375 -2.015625 2.015625 -3.796875 C 0.367188 -6.191406 -0.226562 -9.066406 0.21875 -12.421875 C 0.664062 -15.773438 0.96875 -18.71875 1.125 -21.25 C 1.71875 -29.457031 2.164062 -37.8125 2.46875 -46.3125 C 2.90625 -62.425781 2.457031 -78.460938 1.125 -94.421875 C 0.820312 -97.554688 0.59375 -101.210938 0.4375 -105.390625 C 0.289062 -109.566406 0.628906 -113.554688 1.453125 -117.359375 C 2.273438 -121.160156 3.914062 -124.140625 6.375 -126.296875 C 8.832031 -128.460938 12.523438 -129.097656 17.453125 -128.203125 C 21.484375 -127.460938 25.4375 -126.53125 29.3125 -125.40625 C 33.1875 -124.289062 37.140625 -123.359375 41.171875 -122.609375 C 41.472656 -122.609375 41.804688 -122.609375 42.171875 -122.609375 C 42.546875 -122.609375 42.804688 -122.609375 42.953125 -122.609375 C 45.796875 -122.609375 48.632812 -123.164062 51.46875 -124.28125 C 54.300781 -125.40625 57.207031 -126.5625 60.1875 -127.75 C 63.164062 -128.945312 66.148438 -129.625 69.140625 -129.78125 C 77.785156 -130.519531 85.988281 -129.023438 93.75 -125.296875 C 100.457031 -122.160156 105.640625 -118.054688 109.296875 -112.984375 C 112.953125 -107.921875 115.597656 -102.328125 117.234375 -96.203125 C 118.878906 -90.085938 119.925781 -83.75 120.375 -77.1875 C 120.820312 -70.625 121.195312 -64.140625 121.5 -57.734375 C 121.5 -56.390625 121.644531 -53.628906 121.9375 -49.453125 C 122.238281 -45.273438 122.425781 -40.460938 122.5 -35.015625 C 122.570312 -29.566406 122.457031 -24.269531 122.15625 -19.125 C 121.863281 -13.976562 121.15625 -9.691406 120.03125 -6.265625 C 118.914062 -2.835938 117.238281 -1.125 115 -1.125 C 114.851562 -1.125 114.742188 -1.125 114.671875 -1.125 C 114.597656 -1.125 114.488281 -1.125 114.34375 -1.125 Z M 114.34375 -1.125 "/></g></g></g><g fill="#848c8e" fill-opacity="1"><g transform="translate(975.642474, 774.733977)"><g><path d="M 112.546875 -115.453125 C 115.378906 -112.316406 116.273438 -108.960938 115.234375 -105.390625 C 114.785156 -103.742188 114 -102.210938 112.875 -100.796875 C 111.757812 -99.378906 110.601562 -98 109.40625 -96.65625 C 108.664062 -95.914062 107.921875 -95.171875 107.171875 -94.421875 C 106.429688 -93.671875 105.6875 -92.925781 104.9375 -92.1875 C 103.75 -90.84375 102.144531 -90.394531 100.125 -90.84375 C 98.113281 -91.289062 96.097656 -92.035156 94.078125 -93.078125 C 92.066406 -94.117188 90.316406 -94.863281 88.828125 -95.3125 C 85.546875 -96.507812 82.300781 -97.554688 79.09375 -98.453125 C 75.882812 -99.347656 72.566406 -100.019531 69.140625 -100.46875 C 68.390625 -100.613281 67.675781 -100.6875 67 -100.6875 C 66.332031 -100.6875 65.628906 -100.6875 64.890625 -100.6875 C 57.578125 -100.6875 51.046875 -98.484375 45.296875 -94.078125 C 39.554688 -89.679688 35.644531 -83.828125 33.5625 -76.515625 C 31.320312 -68.609375 31.546875 -60.851562 34.234375 -53.25 C 36.921875 -45.644531 41.546875 -39.53125 48.109375 -34.90625 C 53.179688 -31.476562 59.742188 -29.765625 67.796875 -29.765625 C 78.085938 -29.765625 86.363281 -32.222656 92.625 -37.140625 C 95.613281 -39.523438 98.113281 -41.050781 100.125 -41.71875 C 102.144531 -42.394531 104.570312 -41.019531 107.40625 -37.59375 C 108.894531 -36.101562 110.347656 -34.5 111.765625 -32.78125 C 113.179688 -31.0625 114.5625 -29.304688 115.90625 -27.515625 C 117.695312 -25.128906 117.992188 -22.816406 116.796875 -20.578125 C 115.597656 -18.347656 113.582031 -16.257812 110.75 -14.3125 C 107.914062 -12.375 104.96875 -10.695312 101.90625 -9.28125 C 98.851562 -7.863281 96.507812 -6.785156 94.875 -6.046875 C 85.769531 -1.710938 76.222656 0.453125 66.234375 0.453125 C 56.390625 0.453125 46.988281 -1.671875 38.03125 -5.921875 C 29.082031 -10.179688 21.101562 -16.1875 14.09375 -23.9375 C 8.125 -30.945312 4.171875 -38.179688 2.234375 -45.640625 C 0.296875 -53.097656 -0.335938 -60.40625 0.328125 -67.5625 C 1.003906 -74.726562 2.238281 -81.21875 4.03125 -87.03125 C 7.90625 -98.96875 14.207031 -108.515625 22.9375 -115.671875 C 31.664062 -122.835938 42.515625 -127.238281 55.484375 -128.875 C 59.816406 -129.320312 63.847656 -129.546875 67.578125 -129.546875 C 69.660156 -129.546875 72.710938 -129.285156 76.734375 -128.765625 C 80.765625 -128.242188 85.09375 -127.421875 89.71875 -126.296875 C 94.34375 -125.179688 98.742188 -123.726562 102.921875 -121.9375 C 107.097656 -120.15625 110.304688 -117.992188 112.546875 -115.453125 Z M 112.546875 -115.453125 "/></g></g></g><g fill="#848c8e" fill-opacity="1"><g transform="translate(1093.556733, 774.733977)"><g><path d="M 125.53125 -56.828125 C 123.738281 -55.335938 121.085938 -54.332031 117.578125 -53.8125 C 114.078125 -53.289062 110.347656 -53.03125 106.390625 -53.03125 C 102.441406 -53.03125 98.75 -53.101562 95.3125 -53.25 C 91.882812 -53.394531 89.273438 -53.46875 87.484375 -53.46875 C 79.722656 -53.320312 72.039062 -53.210938 64.4375 -53.140625 C 56.832031 -53.066406 49.148438 -53.03125 41.390625 -53.03125 C 39.003906 -53.03125 37.472656 -52.28125 36.796875 -50.78125 C 36.128906 -49.289062 36.054688 -47.613281 36.578125 -45.75 C 37.097656 -43.882812 37.804688 -42.285156 38.703125 -40.953125 C 41.835938 -36.921875 45.753906 -33.671875 50.453125 -31.203125 C 55.148438 -28.742188 60.035156 -27.21875 65.109375 -26.625 C 70.773438 -26.03125 75.507812 -26.8125 79.3125 -28.96875 C 83.125 -31.132812 87.414062 -33.410156 92.1875 -35.796875 C 94.425781 -36.992188 95.953125 -37.738281 96.765625 -38.03125 C 97.585938 -38.332031 98.96875 -37.664062 100.90625 -36.03125 C 103 -34.382812 104.976562 -32.144531 106.84375 -29.3125 C 108.707031 -26.476562 110.535156 -24.015625 112.328125 -21.921875 C 114.265625 -19.390625 114.1875 -17.003906 112.09375 -14.765625 C 110.007812 -12.523438 106.800781 -10.472656 102.46875 -8.609375 C 98.144531 -6.742188 93.445312 -5.140625 88.375 -3.796875 C 83.3125 -2.460938 78.726562 -1.421875 74.625 -0.671875 C 70.519531 0.078125 67.722656 0.453125 66.234375 0.453125 C 56.234375 0.453125 47.019531 -1.519531 38.59375 -5.46875 C 30.164062 -9.425781 22.96875 -14.796875 17 -21.578125 C 11.039062 -28.367188 6.566406 -36.015625 3.578125 -44.515625 C 0.597656 -53.023438 -0.554688 -61.941406 0.109375 -71.265625 C 0.785156 -80.585938 3.65625 -89.648438 8.71875 -98.453125 C 12.601562 -105.316406 17.789062 -111.132812 24.28125 -115.90625 C 30.769531 -120.675781 37.925781 -124.21875 45.75 -126.53125 C 53.582031 -128.84375 61.597656 -129.882812 69.796875 -129.65625 C 78.003906 -129.4375 85.800781 -127.796875 93.1875 -124.734375 C 100.570312 -121.679688 107.023438 -117.097656 112.546875 -110.984375 C 115.078125 -108.148438 117.5 -104.601562 119.8125 -100.34375 C 122.125 -96.09375 124.097656 -91.503906 125.734375 -86.578125 C 127.378906 -81.660156 128.390625 -76.851562 128.765625 -72.15625 C 129.140625 -67.457031 128.65625 -63.171875 127.3125 -59.296875 C 127.007812 -58.398438 126.414062 -57.578125 125.53125 -56.828125 Z M 91.734375 -80.109375 C 92.179688 -81.148438 92.332031 -82.265625 92.1875 -83.453125 C 92.039062 -85.242188 91.21875 -86.960938 89.71875 -88.609375 C 85.695312 -94.273438 80.476562 -98.445312 74.0625 -101.125 C 67.644531 -103.8125 61.082031 -103.664062 54.375 -100.6875 C 51.382812 -99.34375 48.582031 -97.625 45.96875 -95.53125 C 43.363281 -93.445312 40.941406 -91.210938 38.703125 -88.828125 C 38.109375 -88.234375 37.515625 -87.5625 36.921875 -86.8125 C 36.328125 -86.070312 35.878906 -85.253906 35.578125 -84.359375 C 34.984375 -82.566406 35.28125 -80.921875 36.46875 -79.421875 C 37.664062 -77.929688 39.160156 -77.1875 40.953125 -77.1875 L 86.59375 -77.1875 C 89.125 -77.1875 90.835938 -78.160156 91.734375 -80.109375 Z M 91.734375 -80.109375 "/></g></g></g><g clip-path="url(#abc9359284)"><g clip-path="url(#4112cab9d9)"><g transform="matrix(1, 0, 0, 1, 1235, 710)"><g clip-path="url(#9f515f76c6)"><g clip-path="url(#edaed2e07b)"><g clip-path="url(#8b3cd4b785)"><path fill="#dcf763" d="M 0.519531 0.984375 L 61.121094 0.984375 L 61.121094 61.585938 L 0.519531 61.585938 Z M 0.519531 0.984375 " fill-opacity="1" fill-rule="nonzero"/></g></g></g></g></g></g><g fill="#435058" fill-opacity="1"><g transform="translate(531.301092, 856.159418)"><g><path d="M 5.125 -30.421875 L 5.125 0 L 1.734375 0 L 1.734375 -30.421875 Z M 5.125 -30.421875 "/></g></g></g><g fill="#435058" fill-opacity="1"><g transform="translate(538.166676, 856.159418)"><g><path d="M 4.734375 0 L 1.6875 0 L 1.6875 -30.421875 L 6 -30.421875 L 13.03125 -8.4375 L 13.03125 -30.421875 L 16.03125 -30.421875 L 16.03125 0 L 12.515625 0 L 4.734375 -24.59375 Z M 4.734375 0 "/></g></g></g><g fill="#435058" fill-opacity="1"><g transform="translate(555.938972, 856.159418)"><g><path d="M 8.859375 -30.421875 C 11.234375 -30.421875 12.976562 -29.742188 14.09375 -28.390625 C 15.21875 -27.046875 15.78125 -25.203125 15.78125 -22.859375 L 15.78125 -7.515625 C 15.78125 -5.171875 15.21875 -3.332031 14.09375 -2 C 12.976562 -0.664062 11.234375 0 8.859375 0 L 1.734375 0 L 1.734375 -30.421875 Z M 8.828125 -3.078125 C 10.035156 -3.078125 10.9375 -3.445312 11.53125 -4.1875 C 12.125 -4.925781 12.421875 -5.992188 12.421875 -7.390625 L 12.421875 -23.03125 C 12.421875 -24.414062 12.125 -25.476562 11.53125 -26.21875 C 10.9375 -26.957031 10.019531 -27.328125 8.78125 -27.328125 L 5.125 -27.328125 L 5.125 -3.078125 Z M 8.828125 -3.078125 "/></g></g></g><g fill="#435058" fill-opacity="1"><g transform="translate(573.146376, 856.159418)"><g><path d="M 12.5625 -16.953125 L 12.5625 -13.90625 L 5.125 -13.90625 L 5.125 -3.078125 L 14.25 -3.078125 L 14.25 0 L 1.734375 0 L 1.734375 -30.421875 L 14.25 -30.421875 L 14.25 -27.328125 L 5.125 -27.328125 L 5.125 -16.953125 Z M 12.5625 -16.953125 "/></g></g></g><g fill="#435058" fill-opacity="1"><g transform="translate(588.789463, 856.159418)"><g><path d="M 8.390625 -30.421875 C 10.796875 -30.421875 12.53125 -29.757812 13.59375 -28.4375 C 14.664062 -27.125 15.203125 -25.304688 15.203125 -22.984375 L 15.203125 -19.34375 C 15.203125 -16.90625 14.628906 -15.070312 13.484375 -13.84375 C 12.347656 -12.613281 10.5625 -12 8.125 -12 L 5.125 -12 L 5.125 0 L 1.734375 0 L 1.734375 -30.421875 Z M 8.125 -15.03125 C 9.394531 -15.03125 10.332031 -15.34375 10.9375 -15.96875 C 11.550781 -16.59375 11.859375 -17.644531 11.859375 -19.125 L 11.859375 -23.15625 C 11.859375 -24.550781 11.585938 -25.59375 11.046875 -26.28125 C 10.515625 -26.976562 9.628906 -27.328125 8.390625 -27.328125 L 5.125 -27.328125 L 5.125 -15.03125 Z M 8.125 -15.03125 "/></g></g></g><g fill="#435058" fill-opacity="1"><g transform="translate(605.040896, 856.159418)"><g><path d="M 12.5625 -16.953125 L 12.5625 -13.90625 L 5.125 -13.90625 L 5.125 -3.078125 L 14.25 -3.078125 L 14.25 0 L 1.734375 0 L 1.734375 -30.421875 L 14.25 -30.421875 L 14.25 -27.328125 L 5.125 -27.328125 L 5.125 -16.953125 Z M 12.5625 -16.953125 "/></g></g></g><g fill="#435058" fill-opacity="1"><g transform="translate(620.683984, 856.159418)"><g><path d="M 4.734375 0 L 1.6875 0 L 1.6875 -30.421875 L 6 -30.421875 L 13.03125 -8.4375 L 13.03125 -30.421875 L 16.03125 -30.421875 L 16.03125 0 L 12.515625 0 L 4.734375 -24.59375 Z M 4.734375 0 "/></g></g></g><g fill="#435058" fill-opacity="1"><g transform="translate(638.456279, 856.159418)"><g><path d="M 8.859375 -30.421875 C 11.234375 -30.421875 12.976562 -29.742188 14.09375 -28.390625 C 15.21875 -27.046875 15.78125 -25.203125 15.78125 -22.859375 L 15.78125 -7.515625 C 15.78125 -5.171875 15.21875 -3.332031 14.09375 -2 C 12.976562 -0.664062 11.234375 0 8.859375 0 L 1.734375 0 L 1.734375 -30.421875 Z M 8.828125 -3.078125 C 10.035156 -3.078125 10.9375 -3.445312 11.53125 -4.1875 C 12.125 -4.925781 12.421875 -5.992188 12.421875 -7.390625 L 12.421875 -23.03125 C 12.421875 -24.414062 12.125 -25.476562 11.53125 -26.21875 C 10.9375 -26.957031 10.019531 -27.328125 8.78125 -27.328125 L 5.125 -27.328125 L 5.125 -3.078125 Z M 8.828125 -3.078125 "/></g></g></g><g fill="#435058" fill-opacity="1"><g transform="translate(655.663683, 856.159418)"><g><path d="M 12.5625 -16.953125 L 12.5625 -13.90625 L 5.125 -13.90625 L 5.125 -3.078125 L 14.25 -3.078125 L 14.25 0 L 1.734375 0 L 1.734375 -30.421875 L 14.25 -30.421875 L 14.25 -27.328125 L 5.125 -27.328125 L 5.125 -16.953125 Z M 12.5625 -16.953125 "/></g></g></g><g fill="#435058" fill-opacity="1"><g transform="translate(671.306771, 856.159418)"><g><path d="M 4.734375 0 L 1.6875 0 L 1.6875 -30.421875 L 6 -30.421875 L 13.03125 -8.4375 L 13.03125 -30.421875 L 16.03125 -30.421875 L 16.03125 0 L 12.515625 0 L 4.734375 -24.59375 Z M 4.734375 0 "/></g></g></g><g fill="#435058" fill-opacity="1"><g transform="translate(689.079066, 856.159418)"><g><path d="M 6.171875 0 L 6.171875 -27.328125 L 0.5625 -27.328125 L 0.5625 -30.421875 L 15.171875 -30.421875 L 15.171875 -27.328125 L 9.5625 -27.328125 L 9.5625 0 Z M 6.171875 0 "/></g></g></g><g fill="#000000" fill-opacity="1"><g transform="translate(704.855764, 856.159418)"><g><path d="M 5 -4.21875 L 5 0 L 1.734375 0 L 1.734375 -4.21875 Z M 5 -4.21875 "/></g></g></g><g fill="#000000" fill-opacity="1"><g transform="translate(711.590989, 856.159418)"><g/></g></g><g fill="#bfb7b6" fill-opacity="1"><g transform="translate(718.332325, 856.159418)"><g><path d="M 8.859375 -30.421875 C 11.234375 -30.421875 12.976562 -29.742188 14.09375 -28.390625 C 15.21875 -27.046875 15.78125 -25.203125 15.78125 -22.859375 L 15.78125 -7.515625 C 15.78125 -5.171875 15.21875 -3.332031 14.09375 -2 C 12.976562 -0.664062 11.234375 0 8.859375 0 L 1.734375 0 L 1.734375 -30.421875 Z M 8.828125 -3.078125 C 10.035156 -3.078125 10.9375 -3.445312 11.53125 -4.1875 C 12.125 -4.925781 12.421875 -5.992188 12.421875 -7.390625 L 12.421875 -23.03125 C 12.421875 -24.414062 12.125 -25.476562 11.53125 -26.21875 C 10.9375 -26.957031 10.019531 -27.328125 8.78125 -27.328125 L 5.125 -27.328125 L 5.125 -3.078125 Z M 8.828125 -3.078125 "/></g></g></g><g fill="#bfb7b6" fill-opacity="1"><g transform="translate(735.539729, 856.159418)"><g><path d="M 5.171875 -6.125 L 4 0 L 0.875 0 L 6.6875 -30.421875 L 11.609375 -30.421875 L 17.421875 0 L 14.03125 0 L 12.859375 -6.125 Z M 5.609375 -9.03125 L 12.390625 -9.03125 L 8.953125 -26.59375 Z M 5.609375 -9.03125 "/></g></g></g><g fill="#bfb7b6" fill-opacity="1"><g transform="translate(753.876905, 856.159418)"><g><path d="M 8.515625 -30.421875 C 10.921875 -30.421875 12.648438 -29.828125 13.703125 -28.640625 C 14.765625 -27.453125 15.296875 -25.726562 15.296875 -23.46875 L 15.296875 -20.984375 C 15.296875 -19.304688 14.988281 -17.945312 14.375 -16.90625 C 13.769531 -15.863281 12.816406 -15.140625 11.515625 -14.734375 C 12.898438 -14.328125 13.882812 -13.578125 14.46875 -12.484375 C 15.050781 -11.398438 15.34375 -10.035156 15.34375 -8.390625 L 15.34375 -3.65625 C 15.34375 -2.988281 15.367188 -2.34375 15.421875 -1.71875 C 15.484375 -1.09375 15.660156 -0.519531 15.953125 0 L 12.515625 0 C 12.304688 -0.4375 12.160156 -0.90625 12.078125 -1.40625 C 11.992188 -1.914062 11.953125 -2.675781 11.953125 -3.6875 L 11.953125 -8.46875 C 11.953125 -10.175781 11.566406 -11.359375 10.796875 -12.015625 C 10.023438 -12.671875 8.929688 -13 7.515625 -13 L 5.125 -13 L 5.125 0 L 1.734375 0 L 1.734375 -30.421875 Z M 7.640625 -16.078125 C 9.003906 -16.078125 10.0625 -16.359375 10.8125 -16.921875 C 11.570312 -17.484375 11.953125 -18.59375 11.953125 -20.25 L 11.953125 -23.15625 C 11.953125 -24.550781 11.679688 -25.59375 11.140625 -26.28125 C 10.609375 -26.976562 9.707031 -27.328125 8.4375 -27.328125 L 5.125 -27.328125 L 5.125 -16.078125 Z M 7.640625 -16.078125 "/></g></g></g><g fill="#bfb7b6" fill-opacity="1"><g transform="translate(770.997403, 856.159418)"><g/></g></g><g fill="#bfb7b6" fill-opacity="1"><g transform="translate(777.732628, 856.159418)"><g><path d="M 4.734375 0 L 1.6875 0 L 1.6875 -30.421875 L 6 -30.421875 L 13.03125 -8.4375 L 13.03125 -30.421875 L 16.03125 -30.421875 L 16.03125 0 L 12.515625 0 L 4.734375 -24.59375 Z M 4.734375 0 "/></g></g></g><g fill="#bfb7b6" fill-opacity="1"><g transform="translate(795.504923, 856.159418)"><g><path d="M 4.953125 -7.171875 C 4.953125 -5.773438 5.234375 -4.691406 5.796875 -3.921875 C 6.359375 -3.160156 7.265625 -2.78125 8.515625 -2.78125 C 9.734375 -2.78125 10.625 -3.160156 11.1875 -3.921875 C 11.75 -4.691406 12.03125 -5.773438 12.03125 -7.171875 L 12.03125 -30.421875 L 15.203125 -30.421875 L 15.203125 -7.34375 C 15.203125 -5.03125 14.648438 -3.171875 13.546875 -1.765625 C 12.453125 -0.359375 10.734375 0.34375 8.390625 0.34375 C 6.066406 0.34375 4.351562 -0.359375 3.25 -1.765625 C 2.15625 -3.171875 1.609375 -5.03125 1.609375 -7.34375 L 1.609375 -30.421875 L 4.953125 -30.421875 Z M 4.953125 -7.171875 "/></g></g></g><g fill="#bfb7b6" fill-opacity="1"><g transform="translate(812.321248, 856.159418)"><g/></g></g><g fill="#bfb7b6" fill-opacity="1"><g transform="translate(819.056473, 856.159418)"><g><path d="M 8.125 -30.71875 C 10.445312 -30.71875 12.15625 -30.03125 13.25 -28.65625 C 14.351562 -27.28125 14.90625 -25.429688 14.90625 -23.109375 L 14.90625 -22.296875 L 11.6875 -22.296875 L 11.6875 -23.296875 C 11.6875 -24.679688 11.410156 -25.75 10.859375 -26.5 C 10.304688 -27.257812 9.425781 -27.640625 8.21875 -27.640625 C 7 -27.640625 6.113281 -27.257812 5.5625 -26.5 C 5.007812 -25.75 4.734375 -24.691406 4.734375 -23.328125 C 4.734375 -22.203125 4.984375 -21.21875 5.484375 -20.375 C 5.992188 -19.539062 6.625 -18.765625 7.375 -18.046875 C 8.132812 -17.335938 8.957031 -16.644531 9.84375 -15.96875 C 10.726562 -15.289062 11.546875 -14.546875 12.296875 -13.734375 C 13.046875 -12.921875 13.675781 -12 14.1875 -10.96875 C 14.695312 -9.9375 14.953125 -8.710938 14.953125 -7.296875 C 14.953125 -4.984375 14.394531 -3.140625 13.28125 -1.765625 C 12.164062 -0.390625 10.429688 0.296875 8.078125 0.296875 C 5.734375 0.296875 4.007812 -0.390625 2.90625 -1.765625 C 1.8125 -3.140625 1.265625 -4.984375 1.265625 -7.296875 L 1.265625 -9.03125 L 4.4375 -9.03125 L 4.4375 -7.125 C 4.4375 -5.738281 4.722656 -4.664062 5.296875 -3.90625 C 5.878906 -3.15625 6.78125 -2.78125 8 -2.78125 C 9.21875 -2.78125 10.113281 -3.15625 10.6875 -3.90625 C 11.269531 -4.664062 11.5625 -5.738281 11.5625 -7.125 C 11.5625 -8.257812 11.304688 -9.238281 10.796875 -10.0625 C 10.285156 -10.882812 9.65625 -11.648438 8.90625 -12.359375 C 8.15625 -13.066406 7.34375 -13.757812 6.46875 -14.4375 C 5.601562 -15.125 4.789062 -15.875 4.03125 -16.6875 C 3.28125 -17.5 2.648438 -18.414062 2.140625 -19.4375 C 1.640625 -20.46875 1.390625 -21.691406 1.390625 -23.109375 C 1.390625 -25.460938 1.9375 -27.316406 3.03125 -28.671875 C 4.132812 -30.035156 5.832031 -30.71875 8.125 -30.71875 Z M 8.125 -30.71875 "/></g></g></g><g fill="#bfb7b6" fill-opacity="1"><g transform="translate(835.221, 856.159418)"><g><path d="M 5.125 -30.421875 L 5.125 0 L 1.734375 0 L 1.734375 -30.421875 Z M 5.125 -30.421875 "/></g></g></g><g fill="#bfb7b6" fill-opacity="1"><g transform="translate(842.086584, 856.159418)"><g><path d="M 4.734375 0 L 1.6875 0 L 1.6875 -30.421875 L 6 -30.421875 L 13.03125 -8.4375 L 13.03125 -30.421875 L 16.03125 -30.421875 L 16.03125 0 L 12.515625 0 L 4.734375 -24.59375 Z M 4.734375 0 "/></g></g></g><g fill="#bfb7b6" fill-opacity="1"><g transform="translate(859.85888, 856.159418)"><g><path d="M 8.296875 -30.71875 C 10.640625 -30.71875 12.367188 -30.019531 13.484375 -28.625 C 14.609375 -27.238281 15.171875 -25.390625 15.171875 -23.078125 L 15.171875 -20.46875 L 11.953125 -20.46875 L 11.953125 -23.25 C 11.953125 -24.632812 11.664062 -25.710938 11.09375 -26.484375 C 10.53125 -27.253906 9.628906 -27.640625 8.390625 -27.640625 C 7.171875 -27.640625 6.269531 -27.253906 5.6875 -26.484375 C 5.113281 -25.710938 4.828125 -24.632812 4.828125 -23.25 L 4.828125 -7.171875 C 4.828125 -5.773438 5.113281 -4.691406 5.6875 -3.921875 C 6.269531 -3.160156 7.171875 -2.78125 8.390625 -2.78125 C 9.628906 -2.78125 10.53125 -3.160156 11.09375 -3.921875 C 11.664062 -4.691406 11.953125 -5.773438 11.953125 -7.171875 L 11.953125 -13.25 L 8.828125 -13.25 L 8.828125 -16.296875 L 15.171875 -16.296875 L 15.171875 -7.34375 C 15.171875 -5.03125 14.609375 -3.175781 13.484375 -1.78125 C 12.367188 -0.394531 10.640625 0.296875 8.296875 0.296875 C 5.984375 0.296875 4.269531 -0.394531 3.15625 -1.78125 C 2.039062 -3.175781 1.484375 -5.03125 1.484375 -7.34375 L 1.484375 -23.078125 C 1.484375 -24.234375 1.617188 -25.28125 1.890625 -26.21875 C 2.160156 -27.164062 2.578125 -27.972656 3.140625 -28.640625 C 3.710938 -29.304688 4.425781 -29.816406 5.28125 -30.171875 C 6.132812 -30.535156 7.140625 -30.71875 8.296875 -30.71875 Z M 8.296875 -30.71875 "/></g></g></g><g fill="#bfb7b6" fill-opacity="1"><g transform="translate(876.501392, 856.159418)"><g><path d="M 4.953125 -7.171875 C 4.953125 -5.773438 5.234375 -4.691406 5.796875 -3.921875 C 6.359375 -3.160156 7.265625 -2.78125 8.515625 -2.78125 C 9.734375 -2.78125 10.625 -3.160156 11.1875 -3.921875 C 11.75 -4.691406 12.03125 -5.773438 12.03125 -7.171875 L 12.03125 -30.421875 L 15.203125 -30.421875 L 15.203125 -7.34375 C 15.203125 -5.03125 14.648438 -3.171875 13.546875 -1.765625 C 12.453125 -0.359375 10.734375 0.34375 8.390625 0.34375 C 6.066406 0.34375 4.351562 -0.359375 3.25 -1.765625 C 2.15625 -3.171875 1.609375 -5.03125 1.609375 -7.34375 L 1.609375 -30.421875 L 4.953125 -30.421875 Z M 4.953125 -7.171875 "/></g></g></g><g fill="#bfb7b6" fill-opacity="1"><g transform="translate(893.317716, 856.159418)"><g><path d="M 8.515625 -30.421875 C 10.921875 -30.421875 12.648438 -29.828125 13.703125 -28.640625 C 14.765625 -27.453125 15.296875 -25.726562 15.296875 -23.46875 L 15.296875 -20.984375 C 15.296875 -19.304688 14.988281 -17.945312 14.375 -16.90625 C 13.769531 -15.863281 12.816406 -15.140625 11.515625 -14.734375 C 12.898438 -14.328125 13.882812 -13.578125 14.46875 -12.484375 C 15.050781 -11.398438 15.34375 -10.035156 15.34375 -8.390625 L 15.34375 -3.65625 C 15.34375 -2.988281 15.367188 -2.34375 15.421875 -1.71875 C 15.484375 -1.09375 15.660156 -0.519531 15.953125 0 L 12.515625 0 C 12.304688 -0.4375 12.160156 -0.90625 12.078125 -1.40625 C 11.992188 -1.914062 11.953125 -2.675781 11.953125 -3.6875 L 11.953125 -8.46875 C 11.953125 -10.175781 11.566406 -11.359375 10.796875 -12.015625 C 10.023438 -12.671875 8.929688 -13 7.515625 -13 L 5.125 -13 L 5.125 0 L 1.734375 0 L 1.734375 -30.421875 Z M 7.640625 -16.078125 C 9.003906 -16.078125 10.0625 -16.359375 10.8125 -16.921875 C 11.570312 -17.484375 11.953125 -18.59375 11.953125 -20.25 L 11.953125 -23.15625 C 11.953125 -24.550781 11.679688 -25.59375 11.140625 -26.28125 C 10.609375 -26.976562 9.707031 -27.328125 8.4375 -27.328125 L 5.125 -27.328125 L 5.125 -16.078125 Z M 7.640625 -16.078125 "/></g></g></g><g fill="#000000" fill-opacity="1"><g transform="translate(910.449496, 856.159418)"><g><path d="M 5 -4.21875 L 5 0 L 1.734375 0 L 1.734375 -4.21875 Z M 5 -4.21875 "/></g></g></g><g clip-path="url(#e3b9fd0ea1)"><path fill="#848c8e" d="M 237.65625 845.433594 L 238.019531 845.894531 L 239.121094 845.894531 C 238.570312 845.710938 238.113281 845.617188 237.65625 845.433594 M 253.679688 528.070312 L 239.210938 528.433594 L 231.703125 531 L 229.140625 529.167969 L 223.097656 532.1875 L 230.695312 533.5625 L 245.070312 532.828125 Z M 250.382812 541.34375 C 253.222656 538.691406 256.152344 536.21875 259.265625 534.019531 L 240.675781 535.117188 L 232.800781 542.8125 Z M 205.421875 543.453125 L 216.503906 535.578125 L 220.625 537.5 L 232.160156 537.316406 L 221.8125 544.824219 L 212.472656 546.472656 Z M 190.222656 536.21875 L 179.878906 543.359375 L 194.160156 540.15625 L 202.035156 542.535156 L 213.117188 534.9375 L 201.121094 534.570312 Z M 170.078125 540.339844 L 169.894531 542.261719 L 164.3125 542.445312 C 163.121094 543.085938 161.929688 543.816406 160.832031 544.550781 C 157.992188 546.382812 155.335938 548.488281 152.863281 550.777344 L 170.628906 546.289062 L 179.96875 539.054688 Z M 214.761719 842.503906 L 217.875 842.6875 L 218.242188 840.855469 L 223.097656 842.78125 L 229.230469 842.78125 C 224.742188 840.125 220.714844 836.644531 217.050781 832.707031 L 206.707031 834.90625 Z M 185.460938 840.949219 L 188.210938 841.132812 L 207.714844 842.136719 L 199.472656 836.1875 L 188.851562 836.554688 L 179.144531 834.996094 Z M 159.914062 838.84375 L 162.753906 839.207031 L 163.210938 838.292969 L 170.628906 840.03125 L 177.3125 840.398438 L 170.445312 832.617188 L 150.484375 829.960938 Z M 134.367188 831.609375 L 137.847656 833.714844 L 144.257812 834.082031 L 144.347656 836.554688 L 150.484375 837.46875 L 143.527344 830.144531 Z M 211.285156 825.382812 C 208.902344 821.902344 206.707031 818.238281 204.78125 814.484375 L 188.300781 819.886719 L 195.078125 829.59375 Z M 168.980469 828.128906 L 162.664062 818.148438 L 171.910156 821.535156 L 182.257812 821.445312 L 189.949219 831.792969 L 178.320312 831.425781 Z M 138.214844 823.640625 L 132.996094 812.65625 L 144.257812 811.1875 L 155.0625 815.492188 L 162.847656 826.9375 L 148.835938 822.636719 Z M 116.878906 815.769531 L 123.105469 823.09375 L 130.523438 822.816406 L 129.882812 826.023438 L 134.09375 825.015625 L 127.136719 813.84375 Z M 200.296875 804.503906 C 199.65625 802.949219 199.015625 801.300781 198.464844 799.742188 C 197.367188 796.628906 196.359375 793.515625 195.441406 790.3125 L 181.160156 795.804688 L 187.292969 809.082031 Z M 157.078125 809.632812 L 152.773438 795.257812 L 164.128906 800.292969 L 176.214844 797.453125 L 182.714844 811.371094 L 171.910156 814.394531 Z M 134.828125 787.382812 L 126.21875 788.9375 L 131.347656 802.855469 L 139.40625 802.765625 L 151.859375 807.984375 L 146.546875 793.058594 Z M 104.882812 794.433594 L 110.105469 805.605469 L 120.085938 803.863281 L 118.710938 806.703125 L 126.128906 805.421875 L 119.992188 790.402344 Z M 192.605469 778.957031 C 191.230469 772.824219 190.222656 766.597656 189.398438 760.277344 L 168.890625 769.070312 L 173.375 786.375 Z M 147.371094 783.628906 L 144.167969 766.597656 L 157.167969 773.648438 L 163.667969 771.265625 L 168.25 788.480469 L 161.929688 790.863281 Z M 118.253906 777.402344 L 114.316406 760.917969 L 128.050781 756.523438 L 139.039062 764.765625 L 142.792969 782.894531 L 130.523438 775.296875 Z M 96.828125 767.238281 L 96.734375 767.328125 L 100.488281 781.886719 L 108.640625 779.964844 L 108.820312 780.882812 L 111.84375 779.78125 L 107.90625 763.300781 Z M 187.933594 746.269531 C 187.476562 739.769531 187.203125 733.175781 187.203125 726.492188 L 170.996094 734.089844 L 172.917969 753.59375 Z M 143.25 755.152344 L 142.792969 735.191406 L 152.40625 741.234375 L 164.859375 736.839844 L 166.691406 756.339844 L 154.789062 761.5625 Z M 116.238281 747.367188 L 114.5 726.765625 L 125.394531 722.554688 L 137.480469 731.527344 L 138.214844 752.402344 L 126.21875 743.707031 Z M 97.011719 734.273438 L 92.339844 737.570312 L 94.539062 753.226562 L 101.039062 750.664062 L 101.496094 753.777344 L 111.476562 749.65625 L 109.644531 729.238281 Z M 187.476562 713.671875 C 187.75 705.980469 188.394531 698.199219 189.214844 690.507812 L 166.691406 699.9375 L 166.140625 722.097656 Z M 139.863281 720.449219 L 141.878906 698.105469 L 151.398438 706.53125 L 160.558594 702.316406 L 160.007812 725.300781 L 152.683594 728.964844 Z M 109.097656 717.699219 L 110.929688 695.726562 L 126.585938 687.757812 L 137.117188 696.367188 L 135.285156 718.066406 L 124.753906 710.648438 Z M 99.300781 701.128906 L 99.300781 701.3125 L 92.796875 704.425781 L 92.15625 721.179688 C 92.433594 721.179688 92.613281 721.089844 92.890625 721.089844 C 93.621094 720.996094 94.355469 720.8125 94.996094 720.8125 C 96.09375 720.722656 97.285156 720.632812 97.835938 721.730469 C 97.925781 721.820312 97.925781 721.914062 98.015625 721.914062 L 104.703125 718.984375 L 106.257812 697.921875 Z M 190.589844 679.058594 C 191.6875 671.277344 193.0625 663.492188 194.710938 655.800781 L 177.039062 663.21875 L 174.199219 685.46875 Z M 143.890625 686.019531 L 147.460938 664.226562 L 156.34375 671.644531 L 170.628906 665.785156 L 167.605469 687.851562 L 153.6875 693.800781 Z M 120.359375 678.054688 L 123.015625 657.542969 L 132.171875 652.964844 L 143.527344 661.570312 L 139.679688 683.179688 L 128.601562 674.480469 Z M 96.1875 669.8125 C 96.1875 669.902344 96.1875 670.085938 96.09375 670.179688 C 96.003906 671.003906 95.820312 671.828125 95.726562 672.558594 C 95.453125 674.847656 95.085938 677.136719 94.8125 679.425781 C 94.445312 682.265625 94.078125 685.195312 93.714844 688.035156 L 97.652344 688.214844 L 113.125 681.167969 L 116.605469 659.921875 Z M 197.550781 643.714844 C 199.289062 636.847656 201.304688 629.890625 203.5 623.113281 L 203.5 623.023438 L 180.152344 632.179688 L 176.488281 650.21875 Z M 149.109375 649.027344 L 154.972656 629.523438 L 162.9375 636.207031 L 172.828125 634.011719 L 168.15625 653.238281 L 159.367188 657.449219 Z M 135.832031 639.59375 L 123.105469 645.273438 L 129.148438 624.851562 L 142.609375 618.992188 L 151.675781 626.136719 L 145.355469 646.644531 Z M 115.414062 631.445312 L 113.035156 632.453125 L 110.929688 633.367188 C 109.828125 633.828125 108.730469 634.375 107.632812 634.835938 C 106.714844 635.292969 105.800781 635.65625 104.882812 636.207031 C 104.609375 636.390625 104.152344 636.574219 103.878906 636.757812 C 103.878906 636.941406 103.785156 637.03125 103.785156 637.125 C 103.601562 637.945312 103.417969 638.679688 103.144531 639.503906 C 102.59375 641.792969 101.953125 643.992188 101.40625 646.28125 C 100.671875 649.210938 99.847656 652.046875 99.117188 654.976562 L 99.757812 655.253906 L 114.589844 648.753906 L 120.632812 629.25 Z M 208.445312 609.195312 C 210.828125 602.878906 213.480469 596.652344 216.410156 590.515625 L 198.097656 596.742188 L 191.597656 615.054688 Z M 159.457031 616.519531 L 167.699219 598.023438 L 176.214844 604.433594 L 191.046875 599.03125 L 183.90625 617.34375 L 168.796875 623.664062 Z M 137.480469 611.210938 L 144.808594 594.085938 L 155.335938 589.691406 L 164.402344 596.011719 L 156.253906 614.507812 L 147.1875 607.089844 Z M 124.847656 601.230469 L 125.121094 601.871094 L 122.464844 602.601562 C 121.183594 602.96875 116.605469 604.34375 115.324219 605.167969 C 115.230469 605.441406 115.140625 605.714844 114.957031 605.898438 C 114.683594 606.632812 114.40625 607.363281 114.042969 608.097656 C 113.21875 610.109375 112.484375 612.125 111.660156 614.140625 C 110.5625 616.980469 109.464844 619.816406 108.363281 622.746094 L 108.457031 622.929688 L 130.429688 613.773438 L 138.214844 596.375 Z M 220.808594 581.816406 C 222.636719 578.429688 224.46875 575.042969 226.484375 571.746094 C 227.582031 569.914062 228.679688 568.082031 229.964844 566.25 L 208.628906 570.921875 L 199.378906 587.585938 Z M 172.367188 585.9375 L 181.890625 571.195312 L 188.757812 575.957031 L 199.015625 573.757812 L 189.582031 589.691406 L 180.425781 592.53125 Z M 161.65625 578.703125 L 146.546875 584.65625 L 155.796875 569.089844 L 171.085938 564.238281 L 178.960938 569.273438 L 169.253906 584.472656 Z M 137.390625 575.957031 L 137.480469 576.597656 L 135.285156 577.054688 C 134.277344 577.238281 131.253906 577.972656 130.066406 578.613281 C 129.972656 578.796875 129.789062 579.070312 129.699219 579.253906 C 129.332031 579.894531 128.964844 580.535156 128.601562 581.175781 C 127.59375 583.007812 126.496094 584.746094 125.488281 586.578125 C 124.113281 588.960938 122.648438 591.339844 121.183594 593.722656 L 121.183594 593.8125 L 137.941406 587.3125 L 146.914062 573.027344 Z M 235 558.925781 C 238.113281 554.714844 241.410156 550.59375 245.070312 546.65625 L 229.6875 549.035156 L 220.164062 561.582031 Z M 196.265625 566.800781 L 188.027344 561.949219 L 199.105469 550.320312 L 205.058594 553.707031 L 221.539062 550.59375 L 211.925781 562.3125 Z M 178.777344 556.363281 L 168.523438 559.019531 L 177.222656 549.3125 L 189.765625 545.191406 L 196.359375 548.855469 L 185.003906 560.757812 Z M 152.042969 554.53125 L 151.949219 556.453125 L 150.210938 556.910156 C 149.203125 557.1875 146.273438 557.917969 145.449219 558.46875 C 144.898438 559.019531 144.257812 559.75 143.707031 560.300781 C 142.609375 561.488281 141.511719 562.679688 140.503906 563.960938 C 139.039062 565.609375 137.574219 567.351562 136.109375 569 L 159.550781 561.398438 L 169.714844 550.683594 Z M 244.523438 594.453125 C 258.441406 570.648438 275.65625 555.996094 292.6875 555.996094 C 314.570312 555.996094 326.75 575.773438 333.15625 600.589844 L 341.125 600.589844 L 343.960938 597.015625 L 340.574219 581.359375 L 334.347656 578.980469 L 337.554688 573.210938 L 331.507812 559.476562 L 326.289062 558.195312 L 327.847656 552.882812 L 319.878906 542.8125 L 315.121094 541.988281 L 315.667969 538.691406 L 306.511719 532.003906 L 301.933594 532.1875 L 301.019531 529.625 C 286.734375 525.597656 270.710938 532.097656 258.625 542.078125 C 248.917969 550.042969 239.667969 561.398438 231.335938 575.316406 C 214.03125 603.792969 200.753906 643.167969 195.351562 686.84375 C 190.039062 730.429688 193.613281 769.894531 203.777344 798.371094 C 213.390625 825.289062 227.582031 845.34375 258.898438 843.96875 L 260.636719 843.511719 L 261.1875 842.230469 L 266.40625 841.957031 L 276.660156 836.460938 L 277.121094 831.792969 L 282.980469 832.066406 L 292.320312 822.636719 L 291.953125 815.21875 L 297.445312 816.867188 L 307.0625 803.679688 L 305.046875 794.890625 L 305.414062 794.066406 L 311.273438 796.539062 L 316.402344 786.375 L 303.855469 786.375 C 292.410156 804.046875 278.035156 816.683594 260.546875 816.683594 C 243.515625 816.683594 229.964844 801.941406 221.8125 778.226562 C 213.757812 754.695312 211.007812 722.1875 215.40625 686.386719 C 219.984375 650.398438 230.695312 617.984375 244.523438 594.453125 Z M 292.410156 558.195312 C 276.296875 558.195312 259.90625 572.386719 246.445312 595.371094 C 232.800781 618.625 222.179688 650.765625 217.785156 686.292969 C 213.390625 721.820312 216.136719 753.960938 224.101562 777.21875 C 231.976562 800.203125 244.886719 814.394531 260.914062 814.394531 C 277.121094 814.394531 290.671875 802.765625 301.75 786.285156 L 290.214844 786.285156 C 282.707031 792.785156 274.832031 796.449219 266.957031 796.449219 C 237.929688 796.449219 220.441406 747.09375 227.949219 686.292969 C 235.457031 625.496094 265.03125 576.140625 294.058594 576.140625 C 306.605469 576.140625 316.949219 585.296875 324.09375 600.589844 L 331.328125 600.589844 C 324.824219 576.871094 313.011719 558.195312 292.410156 558.195312 Z M 181.890625 533.289062 C 181.890625 533.289062 173.558594 535.578125 168.25 538.414062 L 167.972656 541.253906 L 163.851562 541.527344 C 163.851562 541.527344 157.445312 544.640625 150.210938 551.601562 L 149.933594 555.996094 C 149.933594 555.996094 145.171875 557.09375 144.167969 558.011719 C 143.160156 558.925781 133.910156 569.546875 133.910156 569.546875 L 135.011719 576.230469 C 135.011719 576.230469 128.785156 577.605469 128.417969 578.613281 C 128.050781 579.621094 118.800781 594.910156 118.800781 594.910156 L 122.097656 601.777344 C 122.097656 601.777344 114.40625 603.886719 113.675781 605.351562 C 112.941406 606.722656 106.074219 624.488281 106.074219 624.488281 L 112.027344 631.902344 C 112.027344 631.902344 102.136719 636.117188 101.953125 636.941406 C 101.773438 637.855469 96.644531 657.359375 96.644531 657.359375 L 102.960938 660.472656 L 102.320312 665.691406 C 102.320312 665.691406 94.355469 669.445312 94.171875 669.996094 C 93.988281 670.542969 91.242188 691.238281 91.242188 691.238281 L 96.550781 691.511719 L 98.015625 693.160156 L 97.191406 701.3125 L 90.601562 704.425781 L 89.777344 724.75 C 89.777344 724.75 95.636719 723.652344 95.820312 723.925781 C 95.910156 724.203125 97.285156 725.574219 97.285156 725.574219 L 96.644531 733.265625 L 90.050781 737.9375 L 92.707031 757.164062 L 99.300781 754.601562 L 100.398438 761.46875 L 94.355469 768.0625 L 98.839844 785.367188 L 106.898438 783.445312 L 107.355469 785.550781 L 101.863281 794.617188 L 108.546875 808.992188 L 116.511719 807.617188 L 112.757812 815.585938 L 121.824219 826.296875 L 127.867188 826.113281 L 126.859375 830.96875 L 136.75 836.917969 L 141.96875 837.285156 L 142.058594 839.667969 L 163.488281 842.6875 L 163.945312 841.957031 L 169.894531 843.328125 L 187.660156 844.335938 L 219.25 845.984375 L 219.433594 844.886719 L 222.179688 845.984375 L 236.097656 845.894531 L 236.921875 845.34375 C 221.171875 839.574219 208.535156 823.367188 200.203125 800.019531 C 189.859375 770.992188 186.101562 731.070312 191.597656 686.84375 C 197 642.707031 210.550781 602.695312 228.039062 573.667969 C 243.058594 548.761719 261.09375 531.914062 279.5 527.335938 C 273.089844 527.0625 266.5 526.96875 266.5 526.96875 L 263.476562 528.527344 L 260.179688 526.878906 L 239.027344 527.425781 L 232.160156 529.714844 L 229.6875 527.976562 L 210.460938 529.714844 L 205.421875 531.824219 L 203.042969 530.265625 C 203.042969 530.449219 193.796875 530.722656 181.890625 533.289062 Z M 181.890625 533.289062 " fill-opacity="1" fill-rule="evenodd"/></g><g clip-path="url(#0fd1b8b1bb)"><path fill="#848c8e" d="M 334.621094 600.589844 L 547.605469 600.589844 L 327.664062 580.261719 Z M 334.621094 600.589844 " fill-opacity="1" fill-rule="evenodd"/></g><path fill="#848c8e" d="M 303.949219 786.285156 L 470.964844 786.285156 L 293.050781 806.609375 Z M 303.949219 786.285156 " fill-opacity="1" fill-rule="evenodd"/></svg>