<svg width="777" height="192" viewBox="0 0 777 192" fill="none" xmlns="http://www.w3.org/2000/svg">
<mask id="mask0_4_75" style="mask-type:luminance" maskUnits="userSpaceOnUse" x="0" y="22" width="288" height="170">
<path d="M287.064 22.6608H0V191.306H287.064V22.6608Z" fill="white"/>
</mask>
<g mask="url(#mask0_4_75)">
<path d="M36.3734 120.024V154.125H11.5367V58.6959H53.7479C59.8229 58.6959 65.4777 59.9834 70.7174 62.5584C75.9621 65.1291 80.1842 68.7083 83.3837 73.2961C86.5833 77.8796 88.183 83.2099 88.183 89.2869C88.183 94.6214 87.0212 99.3465 84.7 103.467C82.3839 107.582 79.2958 110.949 75.4356 113.569C71.5729 116.191 67.2698 118.013 62.5262 119.037L94.8048 154.125H63.3565L36.5354 120.024H36.3734ZM49.6169 75.2531H36.3734V103.467H49.6169C53.2543 103.467 56.6462 102.252 59.7925 99.8186C62.9363 97.3809 64.5107 93.8704 64.5107 89.2869C64.5107 84.8922 62.9363 81.4567 59.7925 78.9783C56.6462 76.4955 53.2543 75.2531 49.6169 75.2531Z" fill="#3F3E3F"/>
<path d="M115.991 154.125H91.1544V58.6959H115.991V154.125Z" fill="#3F3E3F"/>
<path d="M148.761 134.761H156.213C162.612 134.761 168.211 133.5 173.011 130.976C177.81 128.448 181.559 125.032 184.26 120.728C186.965 116.425 188.32 111.653 188.32 106.411C188.32 101.078 186.965 96.2823 184.26 92.0249C181.559 87.7676 177.81 84.4008 173.011 81.9224C168.211 79.4461 162.612 78.2058 156.213 78.2058H148.761V134.761ZM124.259 58.6959H157.702C165.645 58.6959 173.011 59.9125 179.794 62.3438C186.583 64.7772 192.516 68.144 197.594 72.4464C202.669 76.7509 206.616 81.8022 209.43 87.6045C212.245 93.4069 213.652 99.677 213.652 106.411C213.652 113.146 212.245 119.414 209.43 125.217C206.616 131.019 202.697 136.072 197.675 140.375C192.653 144.679 186.72 148.046 179.875 150.477C173.036 152.911 165.645 154.125 157.702 154.125H124.259V58.6959Z" fill="#3F3E3F"/>
<path d="M283.006 135.036V154.125H217.781V58.6959H283.006V77.7852H242.618V96.7286H281.346V115.809H242.618V135.036H283.006Z" fill="#3F3E3F"/>
</g>
<path d="M388.707 37.6122C388.707 41.2515 387.882 45.5668 386.237 50.5559C384.589 55.5406 382.088 60.7829 378.734 66.2805C375.378 71.7803 371.034 77.1878 365.703 82.503C360.37 87.814 354.072 92.7558 346.81 97.3264C339.553 101.893 331.223 105.693 321.822 108.725C312.426 111.753 301.898 113.639 290.242 114.382V89.4899C297.496 88.9362 303.984 87.9577 309.702 86.5544C308.71 83.0137 307.882 78.9817 307.221 74.4604C306.566 69.9413 306.239 64.2291 306.239 57.3281C306.239 50.3413 307.254 43.4467 309.287 36.6423C311.324 29.8336 314.294 23.6793 318.197 18.1795C322.097 12.6819 326.795 8.27866 332.291 4.96978C337.791 1.65661 344.008 3.05176e-05 350.941 3.05176e-05C359.519 3.05176e-05 366.61 1.5858 372.214 4.7552C377.823 7.92674 381.974 12.3321 384.667 17.9735C387.361 23.6106 388.707 30.1576 388.707 37.6122ZM334.771 76.0655C341.041 72.0614 346.073 67.7054 349.868 63.0017C353.66 58.2937 356.409 53.633 358.11 49.0194C359.816 44.4016 360.671 40.4147 360.671 37.0543C360.671 28.1062 357.426 23.6299 350.941 23.6299C347.863 23.6299 345.223 24.7973 343.023 27.1319C340.821 29.4623 339.006 32.4922 337.576 36.2217C336.143 39.9469 335.098 43.9789 334.437 48.3156C333.782 52.6481 333.455 56.8196 333.455 60.8301C333.455 63.7206 333.562 66.4479 333.779 69.01C334.002 71.5743 334.331 73.9261 334.771 76.0655ZM343.519 103.755C348.243 112.613 354.538 119.257 362.403 123.686C370.265 128.108 378.43 130.836 386.895 131.866V162.483C380.516 161.83 373.945 160.268 367.182 157.796C360.423 155.328 353.938 151.998 347.721 147.805C341.51 143.61 335.847 138.597 330.732 132.767C325.621 126.943 321.417 120.347 318.116 112.982C322.292 112.24 325.644 111.401 328.17 110.468C330.701 109.536 333.093 108.511 335.349 107.395C337.601 106.275 340.325 105.06 343.519 103.755Z" fill="#5CCBF5"/>
<mask id="mask1_4_75" style="mask-type:luminance" maskUnits="userSpaceOnUse" x="386" y="22" width="363" height="169">
<path d="M748.44 22.1115H386.208V190.757H748.44V22.1115Z" fill="white"/>
</mask>
<g mask="url(#mask1_4_75)">
<path d="M453.641 123.499C453.641 120.787 452.866 118.264 451.322 115.929C449.783 113.59 447.712 111.695 445.115 110.247C442.523 108.794 439.572 108.067 436.266 108.067C432.95 108.067 429.999 108.794 427.407 110.247C424.815 111.695 422.744 113.59 421.2 115.929C419.654 118.264 418.882 120.787 418.882 123.499C418.882 126.212 419.654 128.74 421.2 131.079C422.744 133.42 424.815 135.317 427.407 136.769C429.999 138.218 432.95 138.941 436.266 138.941C439.572 138.941 442.523 138.218 445.115 136.769C447.712 135.317 449.783 133.42 451.322 131.079C452.866 128.74 453.641 126.212 453.641 123.499ZM478.477 92.6252V154.374H453.641V146.941C451.216 150.116 447.601 152.382 442.797 153.739C437.998 155.095 433.282 155.773 428.652 155.773C421.808 155.773 415.624 154.277 410.103 151.284C404.588 148.292 400.257 144.34 397.113 139.43C393.966 134.52 392.395 129.212 392.395 123.499C392.395 117.796 393.966 112.487 397.113 107.577C400.257 102.663 404.588 98.685 410.103 95.6465C415.624 92.608 421.808 91.0888 428.652 91.0888C433.282 91.0888 437.805 91.7454 442.22 93.0544C446.634 94.359 450.441 96.698 453.641 100.067V92.6252H478.477Z" fill="#5CCBF5"/>
<path d="M568.012 119.294V154.374H543.185V119.294C543.185 115.644 542.299 112.86 540.532 110.942C538.771 109.026 535.959 108.067 532.098 108.067C528.231 108.067 524.943 109.59 522.237 112.633C519.536 115.671 518.187 119.294 518.187 123.499V154.374H493.36V92.4879H518.187V100.067C520.723 97.3546 523.897 95.1809 527.704 93.5436C531.511 91.9085 535.786 91.0888 540.532 91.0888C550.354 91.0888 557.386 93.6852 561.633 98.8739C565.885 104.065 568.012 110.871 568.012 119.294Z" fill="#5CCBF5"/>
<path d="M617.659 107.5C613.913 107.5 610.961 108.367 608.81 110.101C606.656 111.83 605.109 113.935 604.172 116.418C603.233 118.897 602.765 121.306 602.765 123.645C602.765 125.98 603.206 128.413 604.091 130.941C604.975 133.465 606.491 135.572 608.638 137.259C610.789 138.941 613.796 139.782 617.659 139.782C621.527 139.782 624.782 139.082 627.43 137.679C630.075 136.271 631.621 134.166 632.067 131.362H656.235C655.458 135.945 653.36 140.087 649.937 143.782C646.52 147.473 641.999 150.395 636.37 152.545C630.74 154.696 624.23 155.773 616.839 155.773C608.448 155.773 601.218 154.303 595.151 151.361C589.081 148.415 584.419 144.509 581.158 139.645C577.903 134.776 576.278 129.394 576.278 123.499C576.278 117.607 577.961 112.204 581.33 107.294C584.697 102.384 589.443 98.4576 595.566 95.5092C601.687 92.563 608.779 91.0888 616.839 91.0888C624.782 91.0888 631.652 92.2819 637.443 94.668C643.235 97.0499 647.814 100.228 651.183 104.204C654.549 108.182 656.4 112.556 656.731 117.328H632.067C631.95 114.337 630.599 111.951 628.007 110.17C625.415 108.391 621.965 107.5 617.659 107.5Z" fill="#5CCBF5"/>
<path d="M689.324 116.066H721.937C721.937 116.066 721.798 115.483 721.522 114.315C721.243 113.144 720.583 111.809 719.537 110.315C718.489 108.818 716.864 107.483 714.657 106.316C712.45 105.144 709.468 104.556 705.716 104.556C701.854 104.556 698.821 105.144 696.614 106.316C694.407 107.483 692.777 108.818 691.724 110.315C690.676 111.809 690.015 113.144 689.739 114.315C689.461 115.483 689.324 116.066 689.324 116.066ZM745.771 122.1C745.771 122.753 745.743 123.409 745.69 124.066C745.634 124.718 745.609 125.375 745.609 126.032H689C689 128.366 689.633 130.682 690.904 132.975C692.172 135.265 693.992 137.136 696.361 138.589C698.735 140.037 701.525 140.761 704.724 140.761C709.139 140.761 712.614 139.756 715.153 137.748C717.689 135.735 719.013 133.606 719.122 131.362H744.455C742.354 139.499 737.717 145.602 730.543 149.67C723.374 153.739 714.933 155.773 705.22 155.773C696.829 155.773 689.435 154.442 683.036 151.782C676.637 149.116 671.641 145.374 668.051 140.555C664.467 135.737 662.675 130.053 662.675 123.499C662.675 117.045 664.523 111.386 668.224 106.522C671.922 101.659 676.972 97.8696 683.371 95.1573C689.77 92.4449 697.052 91.0888 705.22 91.0888C712.612 91.0888 719.368 92.3055 725.491 94.7367C731.619 97.1701 736.529 100.676 740.222 105.26C743.921 109.843 745.771 115.457 745.771 122.1Z" fill="#5CCBF5"/>
</g>
<mask id="mask2_4_75" style="mask-type:luminance" maskUnits="userSpaceOnUse" x="754" y="133" width="23" height="19">
<path d="M754.153 133.214H776.18V151.887H754.153V133.214Z" fill="white"/>
</mask>
<g mask="url(#mask2_4_75)">
<mask id="mask3_4_75" style="mask-type:luminance" maskUnits="userSpaceOnUse" x="754" y="133" width="23" height="19">
<path d="M765.167 133.214C759.084 133.214 754.153 137.394 754.153 142.551C754.153 147.707 759.084 151.887 765.167 151.887C771.249 151.887 776.18 147.707 776.18 142.551C776.18 137.394 771.249 133.214 765.167 133.214Z" fill="white"/>
</mask>
<g mask="url(#mask3_4_75)">
<mask id="mask4_4_75" style="mask-type:luminance" maskUnits="userSpaceOnUse" x="753" y="133" width="24" height="20">
<path d="M776.304 133.077H753.624V152.303H776.304V133.077Z" fill="white"/>
</mask>
<g mask="url(#mask4_4_75)">
<mask id="mask5_4_75" style="mask-type:luminance" maskUnits="userSpaceOnUse" x="754" y="133" width="23" height="19">
<path d="M754.153 133.214H776.18V151.887H754.153V133.214Z" fill="white"/>
</mask>
<g mask="url(#mask5_4_75)">
<mask id="mask6_4_75" style="mask-type:luminance" maskUnits="userSpaceOnUse" x="754" y="133" width="23" height="19">
<path d="M765.167 133.214C759.084 133.214 754.153 137.394 754.153 142.551C754.153 147.707 759.084 151.887 765.167 151.887C771.249 151.887 776.18 147.707 776.18 142.551C776.18 137.394 771.249 133.214 765.167 133.214Z" fill="white"/>
</mask>
<g mask="url(#mask6_4_75)">
<path d="M754.153 133.214H776.18V151.887H754.153V133.214Z" fill="#3F3E3F"/>
</g>
</g>
</g>
</g>
</g>
</svg>
