<svg width="964" height="229" viewBox="0 0 964 229" fill="none" xmlns="http://www.w3.org/2000/svg">
<path d="M167.667 136.538C164.803 136.538 162.688 137.624 161.315 139.789C159.948 141.95 159.087 144.58 158.732 147.675C158.373 150.764 158.251 153.754 158.37 156.641C158.485 159.53 158.607 161.696 158.732 163.144C158.963 164.586 159.109 166.13 159.169 167.778C159.234 169.428 158.314 170.616 156.411 171.342C155.094 171.753 153.572 171.828 151.843 171.569C150.121 171.31 148.543 171.234 147.114 171.342C146.281 171.342 144.793 171.423 142.646 171.58C140.5 171.731 138.409 171.731 136.382 171.58C134.36 171.423 133.112 170.929 132.638 170.1C132.519 169.792 132.463 169.225 132.463 168.404C132.463 162.63 132.463 156.854 132.463 151.078C132.463 145.304 132.463 139.579 132.463 133.902C132.463 122.971 132.463 112.015 132.463 101.032C132.463 90.0513 132.401 79.0926 132.276 68.1608C132.276 66.103 132.426 63.9885 132.725 61.82C133.025 59.6542 134.603 58.2094 137.467 57.4884C139.845 56.87 142.347 56.7944 144.967 57.2615C147.588 57.7233 150.149 58.0042 152.654 58.1041C161.59 58.5227 170.525 58.8603 179.46 59.1195C188.395 59.3734 197.386 59.9621 206.44 60.891C208.467 61.1017 210.464 61.4095 212.43 61.82C214.392 62.2305 216.326 62.8003 218.232 63.5268C225.021 65.9977 229.816 69.9162 232.621 75.2794C235.422 80.6454 237.064 86.3165 237.538 92.2927C237.769 96.4191 237.469 100.521 236.639 104.596C235.806 108.666 234.259 112.503 231.997 116.111C230.805 117.869 229.495 119.573 228.066 121.221C226.634 122.871 225.024 124.418 223.237 125.866C222.519 126.487 221.446 127.21 220.017 128.037C218.594 128.858 217.374 129.733 216.361 130.662C215.344 131.585 214.894 132.614 215.013 133.751C215.138 134.162 215.315 134.577 215.549 134.993C215.79 135.404 216.03 135.866 216.273 136.376C219.125 140.092 222.22 143.678 225.558 147.135C228.893 150.586 232.05 154.118 235.029 157.732C236.343 159.382 237.744 161.032 239.235 162.679C240.723 164.329 241.884 166.082 242.717 167.94C242.957 168.453 243.194 169.071 243.428 169.798C243.668 170.519 243.372 171.083 242.542 171.494C242.183 171.596 241.646 171.645 240.932 171.645C238.193 171.645 235.454 171.675 232.708 171.731C229.969 171.783 227.23 171.807 224.485 171.807C221.745 171.807 218.975 171.758 216.173 171.656C213.378 171.548 210.907 170.619 208.761 168.869C207.213 167.524 205.903 166.001 204.83 164.299C203.757 162.601 202.565 160.978 201.261 159.428C198.996 156.441 196.643 153.476 194.198 150.538C191.758 147.599 189.168 144.737 186.423 141.95C183.085 138.855 176.951 137.051 168.016 136.538C167.898 136.538 167.842 136.538 167.842 136.538C167.842 136.538 167.782 136.538 167.667 136.538ZM160.342 108.377C160.931 110.654 162.444 112.331 164.884 113.411C167.33 114.491 170.191 115.161 173.47 115.42C176.745 115.679 179.962 115.679 183.116 115.42C186.276 115.161 188.81 114.826 190.716 114.415C195.957 113.278 200.512 111.14 204.381 107.999C208.255 104.853 210.196 100.805 210.196 95.8574C210.196 92.1415 209.151 89.0494 207.064 86.5784C204.983 84.102 202.275 82.1441 198.94 80.7021C195.601 79.2546 191.995 78.3013 188.12 77.8395C184.252 77.3723 180.527 77.294 176.951 77.6019C175.404 77.7045 173.435 77.9097 171.049 78.2176C168.668 78.5281 166.497 79.071 164.535 79.8487C162.569 80.6211 161.352 81.8795 160.878 83.6294C158.607 91.9848 158.426 100.232 160.342 108.377Z" fill="#435058"/>
<path d="M250.044 57.1859C250.159 57.1859 250.275 57.1859 250.393 57.1859C250.518 57.1859 250.637 57.1859 250.755 57.1859C253.732 57.1859 256.652 57.2129 259.516 57.2615C262.377 57.3128 265.297 57.3885 268.276 57.4884C270.413 57.5964 271.483 58.3201 271.483 59.6596C271.483 60.999 271.483 62.3898 271.483 63.8292C271.483 72.7031 271.483 81.6256 271.483 90.5968C271.483 99.5706 271.483 108.49 271.483 117.354C271.483 121.583 271.452 125.839 271.396 130.122C271.337 134.399 271.309 138.653 271.309 142.879C271.309 146.797 271.574 150.743 272.107 154.718C272.647 158.688 272.619 162.679 272.02 166.697C271.661 168.658 270.887 169.922 269.699 170.489C268.507 171.059 266.782 171.445 264.52 171.645C263.447 171.753 261.806 171.834 259.603 171.882C257.397 171.934 255.101 171.828 252.715 171.569C250.334 171.31 248.278 170.797 246.55 170.024C244.828 169.255 243.967 168.145 243.967 166.697C243.967 149.371 243.995 132.05 244.054 114.729C244.11 97.4021 244.082 80.0755 243.967 62.749C243.967 60.6912 244.41 59.2761 245.302 58.5038C246.2 57.726 247.779 57.2885 250.044 57.1859Z" fill="#435058"/>
<path d="M296.688 57.3371C299.424 57.3371 302.192 57.3371 304.987 57.3371C307.789 57.3371 310.559 57.3371 313.298 57.3371C320.567 57.2372 328.073 57.6774 335.811 58.655C343.554 59.6353 350.764 61.3096 357.437 63.678C371.738 68.7333 381.746 76.8835 387.462 88.1231C390.323 93.7915 392.17 99.9784 393.003 106.681C393.832 113.386 393.627 120.065 392.379 126.719C391.131 133.368 388.775 139.476 385.315 145.05C381.862 150.619 377.216 155.101 371.376 158.499C365.417 162.007 359.64 164.74 354.043 166.697C348.443 168.658 343.261 169.895 338.494 170.413C332.894 170.824 327.265 171.11 321.609 171.267C315.95 171.418 310.266 171.494 304.55 171.494C301.686 171.494 298.825 171.469 295.965 171.418C293.11 171.369 290.193 171.288 287.217 171.18C285.544 171.18 283.454 171.364 280.952 171.731C278.456 172.09 276.491 171.599 275.062 170.251C273.87 169.02 273.334 167.116 273.452 164.537C273.568 161.961 273.627 159.898 273.627 158.347C273.752 149.166 273.814 140.038 273.814 130.964C273.814 121.89 273.87 112.817 273.989 103.743C273.989 99.4086 274.017 95.1012 274.076 90.8236C274.132 86.546 274.104 82.2413 273.989 77.9043C273.989 76.4649 273.808 74.7393 273.452 72.7301C273.093 70.7155 272.916 68.6766 272.916 66.6161C272.916 64.5583 273.302 62.7031 274.076 61.0531C274.85 59.3976 276.31 58.2634 278.456 57.6504C279.286 57.4425 280.119 57.3128 280.952 57.2615C281.791 57.2129 282.627 57.1859 283.46 57.1859C285.722 57.1859 287.922 57.1859 290.062 57.1859C292.208 57.1859 294.417 57.2372 296.688 57.3371ZM322.058 78.2176C319.438 78.1177 316.755 78.1474 314.009 78.304C311.27 78.4552 308.593 78.6875 305.973 78.9953C303.951 79.1979 302.669 80.2268 302.129 82.0847C301.596 83.9427 301.446 85.9303 301.68 88.0475C301.92 90.1593 302.042 91.8822 302.042 93.2217C301.923 96.1112 301.867 99.0521 301.867 102.047C301.867 105.036 301.867 108.026 301.867 111.013C301.867 116.789 301.867 122.614 301.867 128.49C301.867 134.367 301.867 140.195 301.867 145.968C301.867 147.929 303.115 149.295 305.611 150.073C308.113 150.845 311.12 151.229 314.633 151.229C318.153 151.229 321.516 151.051 324.729 150.689C327.949 150.33 330.214 150.1 331.53 149.997C336.413 149.379 341.089 148.091 345.557 146.13C350.024 144.164 353.924 141.588 357.262 138.396C360.597 135.199 362.859 131.434 364.051 127.097C365.24 123.389 365.892 119.371 366.01 115.042C366.135 110.708 365.601 106.452 364.413 102.274C363.221 98.0988 361.137 94.4612 358.161 91.3637C353.509 86.4164 348.028 83.0137 341.713 81.1557C335.399 79.2978 328.847 78.3202 322.058 78.2176Z" fill="#435058"/>
<path d="M481.998 57.3371C483.901 57.3371 485.211 57.4425 485.928 57.6504C486.643 57.8529 487.058 58.0582 487.176 58.2661C488.131 59.0871 488.64 60.0917 488.699 61.2799C488.755 62.4681 488.727 63.6294 488.612 64.7582C488.487 66.3083 488.393 67.88 488.337 69.4787C488.278 71.0774 488.306 72.6518 488.424 74.1992C488.424 74.6097 488.424 75.0742 488.424 75.5927C488.424 76.1058 488.306 76.6189 488.075 77.1374C487.716 78.0663 486.615 78.6118 484.768 78.7685C482.921 78.9197 480.981 78.8927 478.953 78.6821C476.931 78.4741 475.384 78.3688 474.31 78.3688C471.571 78.2689 468.832 78.2176 466.087 78.2176C463.347 78.2176 460.611 78.2176 457.875 78.2176C452.391 78.2176 446.969 78.2176 441.603 78.2176C436.243 78.2176 430.824 78.2176 425.342 78.2176C424.15 78.2176 423.108 78.6064 422.21 79.3842C421.318 80.1565 420.875 81.1071 420.875 82.2359V100.34C420.875 101.472 421.318 102.425 422.21 103.203C423.108 103.975 424.15 104.359 425.342 104.359C427.245 104.359 429.151 104.359 431.058 104.359C432.97 104.359 434.879 104.359 436.786 104.359C443.331 104.359 449.851 104.359 456.34 104.359C462.836 104.359 469.362 104.31 475.92 104.207C477.224 104.107 478.145 104.521 478.678 105.45C479.218 106.373 479.545 107.402 479.664 108.539C479.789 109.671 479.851 110.651 479.851 111.477C479.851 112.406 479.879 113.956 479.938 116.122C479.995 118.282 479.817 120.319 479.402 122.225C478.984 124.135 478.06 125.293 476.632 125.704C476.157 125.812 475.621 125.866 475.022 125.866C474.429 125.866 473.836 125.866 473.237 125.866C467.278 125.347 461.26 125.142 455.18 125.25C449.106 125.352 443.031 125.401 436.96 125.401C431.476 125.401 427.576 125.636 425.255 126.103C422.934 126.565 421.53 127.699 421.049 129.506C420.575 131.307 420.338 134.27 420.338 138.396C420.338 141.796 420.488 144.399 420.787 146.206C421.087 148.007 421.917 149.241 423.283 149.911C424.656 150.581 426.89 150.97 429.984 151.078C433.085 151.18 437.438 151.229 443.038 151.229C450.425 151.229 457.751 151.205 465.013 151.153C472.283 151.105 479.552 151.078 486.815 151.078C489.435 151.078 490.745 151.853 490.745 153.4C490.745 154.942 490.686 156.541 490.571 158.196C490.452 159.428 490.362 160.689 490.296 161.977C490.237 163.268 490.271 164.586 490.396 165.93C490.511 167.68 490.334 169.047 489.859 170.024C489.385 171.005 487.894 171.494 485.392 171.494C478.478 171.494 471.534 171.494 464.564 171.494C457.601 171.494 450.603 171.494 443.574 171.494C437.141 171.394 430.649 171.267 424.094 171.115C417.536 170.959 411.044 171.034 404.614 171.342C403.307 171.445 401.875 171.599 400.321 171.807C398.774 172.007 397.345 171.855 396.041 171.342C394.849 170.824 394.222 169.611 394.157 167.702C394.097 165.795 394.069 164.326 394.069 163.295C393.951 161.647 393.895 160.022 393.895 158.423C393.895 156.824 393.895 155.201 393.895 153.551C394.01 150.254 394.126 146.93 394.244 143.581C394.369 140.227 394.431 136.846 394.431 133.438C394.431 122.406 394.431 111.194 394.431 99.8001C394.431 88.4012 394.31 77.0807 394.069 65.8384C394.069 62.0306 394.668 59.6056 395.866 58.5686C396.93 57.6477 398.356 57.1859 400.147 57.1859C401.934 57.1859 403.485 57.2372 404.801 57.3371C406.823 57.3371 408.813 57.3371 410.779 57.3371C412.751 57.3371 414.688 57.3885 416.594 57.4884C420.404 57.5964 424.213 57.6504 428.025 57.6504C431.834 57.6504 435.588 57.6504 439.281 57.6504C445.596 57.6504 451.879 57.6261 458.137 57.5748C464.393 57.5181 470.617 57.4398 476.806 57.3371H481.998Z" fill="#435058"/>
<path d="M517.917 169.798C517.074 170.721 515.882 171.234 514.335 171.342C512.788 171.445 511.181 171.599 509.518 171.807C507.961 171.909 506.139 172.007 504.052 172.109C501.971 172.217 500.009 172.039 498.162 171.58C496.315 171.113 494.917 170.154 493.969 168.707C492.537 166.438 491.701 163.94 491.461 161.21C491.23 158.474 491.289 155.69 491.648 152.86C492.004 150.024 492.184 147.367 492.184 144.888C492.3 140.043 492.387 135.22 492.447 130.424C492.503 125.628 492.596 120.808 492.721 115.96C492.837 106.368 492.865 96.754 492.808 87.1185C492.749 77.4777 492.599 67.8584 492.359 58.2662C492.359 55.5818 493.011 53.6483 494.318 52.4654C495.632 51.2772 497.357 50.5832 499.497 50.3806C501.644 50.1727 503.968 50.224 506.473 50.5319C508.975 50.8424 511.359 51.099 513.624 51.2988C516.126 51.5095 517.767 52.6707 518.54 54.7879C519.314 56.8997 519.67 59.1681 519.614 61.5932C519.554 64.0129 519.464 65.9464 519.339 67.3939C519.105 72.1333 518.955 76.9268 518.89 81.7715C518.831 86.6189 518.803 91.4691 518.803 96.3219C518.803 108.075 518.803 119.833 518.803 131.591C518.803 143.343 518.803 155.096 518.803 166.849C518.803 168.088 518.506 169.071 517.917 169.798Z" fill="#848C8E"/>
<path d="M607.435 168.091C606.487 169.122 604.996 169.69 602.968 169.798C601.062 169.798 599.215 169.463 597.427 168.793C595.646 168.118 593.889 167.443 592.161 166.773C590.429 166.103 588.554 165.768 586.533 165.768C585.226 165.768 583.915 165.849 582.602 166.006C581.285 166.157 580.097 166.338 579.033 166.546L578.134 166.697C574.681 167.216 571.314 167.891 568.039 168.717C564.76 169.538 561.69 170.359 558.829 171.18C557.522 171.491 556.183 171.75 554.811 171.958C553.444 172.166 552.047 172.271 550.618 172.271C541.913 172.271 534.585 169.279 528.629 163.295C521.841 156.592 519.164 148.342 520.593 138.547C521.192 134.631 522.767 131.126 525.322 128.037C527.884 124.942 531.131 122.565 535.069 120.907C537.09 120.086 539.23 119.498 541.495 119.136C543.757 118.777 546.081 118.442 548.471 118.131C549.061 118.131 549.594 118.107 550.069 118.056C550.549 117.999 551.029 117.921 551.504 117.818L574.915 115.031C578.016 114.621 579.956 113.827 580.73 112.644C581.504 111.456 581.947 110.5 582.065 109.77C582.305 108.02 581.681 106.427 580.193 104.985C578.702 103.538 576.942 102.555 574.915 102.036C571.221 100.805 567.408 100.189 563.484 100.189H562.947C559.253 100.292 555.737 100.756 552.402 101.582C549.064 102.403 545.851 103.381 542.756 104.51C541.798 104.928 540.666 105.136 539.361 105.136C536.741 105.136 534.148 104.388 531.587 102.89C529.022 101.393 527.207 99.6138 526.134 97.5533C525.659 96.7323 525.45 96.0383 525.51 95.4685C525.566 94.9014 525.653 94.4612 525.772 94.1506C526.486 92.8112 527.884 91.6013 529.965 90.5211C532.052 89.4355 534.257 88.5065 536.579 87.7342C538.906 86.9564 540.846 86.3623 542.394 85.9518C550.97 83.5835 559.606 82.3979 568.301 82.3979C569.14 82.3979 569.976 82.3979 570.809 82.3979C571.639 82.3979 572.472 82.4493 573.305 82.5492C577.479 82.7598 582.096 83.4566 587.157 84.6448C592.223 85.8276 596.541 88.0663 600.11 91.3637C604.284 95.2821 606.79 99.2033 607.622 103.127C608.571 107.556 608.895 112.168 608.596 116.965C608.303 121.761 608.215 126.427 608.334 130.964C608.334 135.609 608.334 140.281 608.334 144.974C608.334 149.663 608.39 154.275 608.509 158.812C608.509 160.362 608.596 162.009 608.771 163.759C608.952 165.509 608.509 166.954 607.435 168.091ZM581.529 141.485C582.483 139.838 582.783 138.447 582.427 137.316C582.068 136.179 581.709 135.404 581.354 134.993C580.87 134.375 580.122 133.781 579.108 133.211C578.1 132.644 576.702 132.309 574.915 132.206L573.492 132.044C572.419 131.944 571.314 131.893 570.185 131.893C569.053 131.893 567.83 131.893 566.516 131.893C564.494 131.893 562.052 132.074 559.191 132.433C556.327 132.795 553.588 133.748 550.967 135.296C549.186 136.535 548.053 137.823 547.573 139.163C547.099 140.303 547.039 141.745 547.398 143.495C548.228 146.692 549.835 149.171 552.215 150.926C554.602 152.676 557.462 153.551 560.801 153.551C564.969 153.551 569.077 152.368 573.13 149.997C577.18 147.621 579.981 144.785 581.529 141.485Z" fill="#848C8E"/>
<path d="M700.549 171.18C697.445 171.08 694.313 171.056 691.152 171.105C687.998 171.156 684.816 171.18 681.606 171.18C680.888 171.18 680.321 170.1 679.896 167.94C679.478 165.774 679.213 162.936 679.098 159.428C678.979 155.922 678.923 152.134 678.923 148.064C678.923 143.989 678.979 140.043 679.098 136.225C679.213 132.409 679.3 129.112 679.36 126.33C679.425 123.543 679.46 121.737 679.46 120.907C679.335 115.134 678.29 110.751 676.327 107.761C674.362 104.775 671.922 102.714 669.002 101.583C666.082 100.446 663.193 99.8758 660.341 99.8758H659.98C653.191 99.8758 647.678 101.863 643.445 105.839C639.217 109.808 636.984 114.985 636.743 121.372C636.625 125.498 636.569 129.625 636.569 133.751C636.569 137.878 636.569 142.004 636.569 146.13C636.684 149.322 637.008 152.849 637.542 156.716C638.082 160.584 637.994 164.116 637.28 167.313C636.806 169.69 635.701 170.959 633.973 171.116C632.251 171.267 630.317 171.394 628.17 171.494C626.738 171.596 624.863 171.726 622.542 171.882C620.221 172.034 617.956 171.955 615.753 171.645C613.548 171.337 611.91 170.565 610.837 169.333C609.52 167.678 609.046 165.69 609.401 163.37C609.757 161.053 610 159.017 610.125 157.267C610.599 151.593 610.955 145.817 611.198 139.941C611.548 128.801 611.189 117.715 610.125 106.681C609.882 104.515 609.701 101.988 609.576 99.098C609.458 96.2112 609.729 93.454 610.387 90.8237C611.042 88.196 612.353 86.1355 614.318 84.6449C616.281 83.1488 619.229 82.7086 623.166 83.327C626.386 83.8401 629.543 84.4828 632.638 85.2606C635.733 86.0329 638.89 86.6756 642.109 87.1941C642.35 87.1941 642.615 87.1941 642.908 87.1941C643.208 87.1941 643.413 87.1941 643.532 87.1941C645.803 87.1941 648.068 86.8107 650.333 86.0383C652.595 85.2606 654.916 84.4612 657.297 83.6403C659.674 82.8139 662.057 82.344 664.447 82.236C671.351 81.7256 677.903 82.7599 684.102 85.3362C689.458 87.5047 693.598 90.343 696.519 93.8482C699.439 97.3481 701.551 101.215 702.858 105.45C704.171 109.679 705.007 114.059 705.366 118.596C705.722 123.133 706.021 127.616 706.265 132.044C706.265 132.973 706.38 134.883 706.614 137.77C706.854 140.659 707.004 143.986 707.063 147.751C707.12 151.518 707.029 155.18 706.789 158.736C706.555 162.296 705.99 165.258 705.092 167.626C704.199 169.998 702.861 171.18 701.073 171.18C700.955 171.18 700.868 171.18 700.811 171.18C700.752 171.18 700.665 171.18 700.549 171.18Z" fill="#848C8E"/>
<path d="M797.398 92.1414C799.66 94.3099 800.375 96.6297 799.545 99.098C799.186 100.238 798.559 101.296 797.661 102.274C796.768 103.254 795.845 104.207 794.89 105.136C794.297 105.649 793.705 106.163 793.106 106.681C792.513 107.2 791.92 107.715 791.321 108.226C790.373 109.155 789.09 109.465 787.478 109.155C785.871 108.847 784.261 108.331 782.648 107.61C781.041 106.892 779.644 106.376 778.455 106.065C775.834 105.239 773.242 104.515 770.681 103.894C768.116 103.276 765.467 102.811 762.731 102.501C762.132 102.401 761.561 102.349 761.022 102.349C760.488 102.349 759.927 102.349 759.337 102.349C753.497 102.349 748.28 103.872 743.688 106.919C739.102 109.959 735.979 114.005 734.316 119.06C732.526 124.526 732.706 129.889 734.853 135.145C736.999 140.402 740.693 144.629 745.934 147.826C749.984 150.197 755.225 151.38 761.658 151.38C769.876 151.38 776.487 149.681 781.488 146.281C783.874 144.634 785.871 143.578 787.478 143.116C789.09 142.649 791.028 143.6 793.293 145.968C794.481 147 795.642 148.107 796.775 149.295C797.904 150.483 799.008 151.699 800.081 152.936C801.51 154.586 801.747 156.184 800.793 157.732C799.835 159.274 798.225 160.718 795.963 162.063C793.698 163.403 791.346 164.564 788.9 165.542C786.46 166.522 784.589 167.267 783.285 167.778C776.012 170.775 768.388 172.271 760.41 172.271C752.548 172.271 745.039 170.802 737.885 167.864C730.738 164.92 724.364 160.767 718.767 155.409C714 150.564 710.843 145.563 709.296 140.405C707.748 135.25 707.243 130.197 707.773 125.25C708.313 120.297 709.299 115.809 710.731 111.79C713.825 103.538 718.858 96.9376 725.83 91.9902C732.8 87.0374 741.467 83.994 751.825 82.8624C755.284 82.5546 758.504 82.3979 761.483 82.3979C763.146 82.3979 765.583 82.5789 768.796 82.9381C772.016 83.2999 775.473 83.867 779.166 84.6448C782.86 85.4171 786.373 86.4217 789.711 87.6586C793.046 88.89 795.608 90.3861 797.398 92.1414Z" fill="#848C8E"/>
<path d="M901.943 132.671C900.511 133.703 898.392 134.397 895.591 134.756C892.796 135.118 889.816 135.296 886.656 135.296C883.502 135.296 880.554 135.247 877.808 135.145C875.069 135.045 872.985 134.993 871.556 134.993C865.357 135.096 859.22 135.172 853.149 135.22C847.075 135.272 840.938 135.296 834.742 135.296C832.836 135.296 831.613 135.814 831.074 136.851C830.54 137.883 830.481 139.041 830.899 140.33C831.314 141.62 831.879 142.725 832.596 143.646C835.098 146.433 838.227 148.68 841.98 150.386C845.73 152.088 849.633 153.141 853.686 153.551C858.21 153.962 861.991 153.422 865.029 151.931C868.074 150.435 871.5 148.861 875.312 147.211C877.1 146.384 878.32 145.868 878.969 145.666C879.624 145.458 880.728 145.92 882.276 147.049C883.948 148.188 885.526 149.736 887.018 151.693C888.506 153.654 889.966 155.355 891.398 156.803C892.945 158.553 892.883 160.203 891.211 161.75C889.545 163.3 886.983 164.718 883.524 166.006C880.07 167.297 876.317 168.404 872.267 169.333C868.224 170.257 864.561 170.975 861.286 171.494C858.007 172.012 855.773 172.271 854.584 172.271C846.598 172.271 839.238 170.908 832.509 168.177C825.776 165.442 820.03 161.729 815.263 157.04C810.502 152.347 806.93 147.059 804.543 141.183C802.163 135.301 801.242 129.136 801.773 122.69C802.312 116.246 804.605 109.981 808.649 103.894C811.75 99.1494 815.893 95.1283 821.078 91.8283C826.26 88.5309 831.975 86.0815 838.224 84.4828C844.479 82.8841 850.881 82.1658 857.43 82.3224C863.984 82.4736 870.211 83.6079 876.111 85.7251C882.007 87.8369 887.161 91.0046 891.573 95.2309C893.594 97.1915 895.529 99.6436 897.375 102.587C899.222 105.525 900.798 108.698 902.105 112.104C903.418 115.504 904.226 118.828 904.526 122.074C904.825 125.323 904.439 128.285 903.365 130.964C903.122 131.585 902.648 132.152 901.943 132.671ZM874.95 116.576C875.306 115.857 875.428 115.085 875.312 114.264C875.194 113.027 874.539 111.839 873.341 110.699C870.127 106.784 865.959 103.9 860.836 102.047C855.711 100.189 850.469 100.292 845.113 102.349C842.723 103.278 840.486 104.467 838.399 105.914C836.318 107.356 834.384 108.901 832.596 110.548C832.122 110.959 831.648 111.423 831.173 111.942C830.699 112.455 830.34 113.019 830.1 113.638C829.626 114.877 829.863 116.014 830.812 117.051C831.766 118.083 832.961 118.596 834.393 118.596H870.845C872.866 118.596 874.233 117.923 874.95 116.576Z" fill="#848C8E"/>
<mask id="mask0_1_177" style="mask-type:luminance" maskUnits="userSpaceOnUse" x="915" y="127" width="49" height="43">
<path d="M915.066 127.886H963.467V169.782H915.066V127.886Z" fill="white"/>
</mask>
<g mask="url(#mask0_1_177)">
<mask id="mask1_1_177" style="mask-type:luminance" maskUnits="userSpaceOnUse" x="915" y="127" width="49" height="43">
<path d="M939.266 127.886C925.901 127.886 915.066 137.265 915.066 148.834C915.066 160.403 925.901 169.782 939.266 169.782C952.632 169.782 963.467 160.403 963.467 148.834C963.467 137.265 952.632 127.886 939.266 127.886Z" fill="white"/>
</mask>
<g mask="url(#mask1_1_177)">
<mask id="mask2_1_177" style="mask-type:luminance" maskUnits="userSpaceOnUse" x="914" y="127" width="51" height="44">
<path d="M964.168 127.205H914.651V170.068H964.168V127.205Z" fill="white"/>
</mask>
<g mask="url(#mask2_1_177)">
<mask id="mask3_1_177" style="mask-type:luminance" maskUnits="userSpaceOnUse" x="915" y="127" width="49" height="43">
<path d="M915.066 127.886H963.467V169.782H915.066V127.886Z" fill="white"/>
</mask>
<g mask="url(#mask3_1_177)">
<mask id="mask4_1_177" style="mask-type:luminance" maskUnits="userSpaceOnUse" x="915" y="127" width="49" height="43">
<path d="M939.266 127.886C925.901 127.886 915.066 137.265 915.066 148.834C915.066 160.403 925.901 169.782 939.266 169.782C952.632 169.782 963.467 160.403 963.467 148.834C963.467 137.265 952.632 127.886 939.266 127.886Z" fill="white"/>
</mask>
<g mask="url(#mask4_1_177)">
<path d="M915.066 127.886H963.467V169.782H915.066V127.886Z" fill="#DCF763"/>
</g>
</g>
</g>
</g>
</g>
<path d="M356.723 207.219V228.25H354.016V207.219H356.723Z" fill="#435058"/>
<path d="M361.895 228.25H359.461V207.219H362.906L368.521 222.417V207.219H370.917V228.25H368.109L361.895 211.248V228.25Z" fill="#435058"/>
<path d="M379.383 207.219C381.28 207.219 382.672 207.689 383.564 208.623C384.463 209.552 384.912 210.827 384.912 212.447V223.054C384.912 224.675 384.463 225.947 383.564 226.868C382.672 227.791 381.28 228.25 379.383 228.25H373.693V207.219H379.383ZM379.359 226.122C380.323 226.122 381.043 225.868 381.517 225.355C381.992 224.845 382.229 224.108 382.229 223.141V212.328C382.229 211.372 381.992 210.637 381.517 210.124C381.043 209.614 380.31 209.357 379.321 209.357H376.401V226.122H379.359Z" fill="#435058"/>
<path d="M396.084 216.53V218.636H390.144V226.122H397.432V228.25H387.436V207.219H397.432V209.357H390.144V216.53H396.084Z" fill="#435058"/>
<path d="M405.246 207.219C407.167 207.219 408.553 207.678 409.401 208.59C410.256 209.498 410.687 210.756 410.687 212.36V214.877C410.687 216.562 410.228 217.832 409.314 218.68C408.406 219.53 406.98 219.954 405.034 219.954H402.638V228.25H399.93V207.219H405.246ZM405.034 217.859C406.047 217.859 406.796 217.643 407.28 217.211C407.77 216.778 408.016 216.052 408.016 215.029V212.242C408.016 211.278 407.798 210.556 407.367 210.081C406.943 209.6 406.235 209.357 405.246 209.357H402.638V217.859H405.034Z" fill="#435058"/>
<path d="M421.557 216.53V218.636H415.617V226.122H422.905V228.25H412.909V207.219H422.905V209.357H415.617V216.53H421.557Z" fill="#435058"/>
<path d="M427.799 228.25H425.365V207.219H428.809L434.425 222.417V207.219H436.821V228.25H434.013L427.799 211.248V228.25Z" fill="#435058"/>
<path d="M445.287 207.219C447.184 207.219 448.576 207.689 449.468 208.623C450.366 209.552 450.816 210.827 450.816 212.447V223.054C450.816 224.675 450.366 225.947 449.468 226.868C448.576 227.791 447.184 228.25 445.287 228.25H439.597V207.219H445.287ZM445.262 226.122C446.226 226.122 446.947 225.868 447.421 225.355C447.895 224.845 448.133 224.108 448.133 223.141V212.328C448.133 211.372 447.895 210.637 447.421 210.124C446.947 209.614 446.214 209.357 445.225 209.357H442.305V226.122H445.262Z" fill="#435058"/>
<path d="M461.988 216.53V218.636H456.048V226.122H463.336V228.25H453.34V207.219H463.336V209.357H456.048V216.53H461.988Z" fill="#435058"/>
<path d="M468.229 228.25H465.796V207.219H469.24L474.856 222.417V207.219H477.252V228.25H474.444L468.229 211.248V228.25Z" fill="#435058"/>
<path d="M483.572 228.25V209.357H479.092V207.219H490.76V209.357H486.28V228.25H483.572Z" fill="#435058"/>
<path d="M495.236 225.334V228.25H492.628V225.334H495.236Z" fill="black"/>
<path d="M509.082 207.219C510.978 207.219 512.37 207.689 513.262 208.623C514.161 209.552 514.61 210.827 514.61 212.447V223.054C514.61 224.675 514.161 225.947 513.262 226.868C512.37 227.791 510.978 228.25 509.082 228.25H503.391V207.219H509.082ZM509.057 226.122C510.021 226.122 510.741 225.868 511.216 225.355C511.69 224.845 511.927 224.108 511.927 223.141V212.328C511.927 211.372 511.69 210.637 511.216 210.124C510.741 209.614 510.008 209.357 509.019 209.357H506.099V226.122H509.057Z" fill="#BFB7B6"/>
<path d="M519.879 224.016L518.944 228.25H516.448L521.09 207.219H525.021L529.663 228.25H526.955L526.019 224.016H519.879ZM520.229 222.007H525.645L522.899 209.865L520.229 222.007Z" fill="#BFB7B6"/>
<path d="M537.195 207.219C539.117 207.219 540.496 207.629 541.338 208.45C542.187 209.271 542.611 210.465 542.611 212.026V213.743C542.611 214.904 542.365 215.844 541.875 216.562C541.391 217.283 540.63 217.783 539.591 218.064C540.696 218.345 541.482 218.863 541.95 219.619C542.415 220.37 542.649 221.313 542.649 222.45V225.723C542.649 226.184 542.667 226.63 542.711 227.062C542.761 227.494 542.901 227.891 543.135 228.25H540.39C540.222 227.948 540.106 227.624 540.041 227.278C539.972 226.927 539.941 226.4 539.941 225.701V222.396C539.941 221.215 539.632 220.397 539.017 219.943C538.4 219.49 537.526 219.263 536.397 219.263H534.487V228.25H531.779V207.219H537.195ZM536.496 217.135C537.585 217.135 538.431 216.941 539.03 216.552C539.635 216.163 539.941 215.396 539.941 214.251V212.242C539.941 211.278 539.722 210.556 539.292 210.081C538.868 209.6 538.147 209.357 537.133 209.357H534.487V217.135H536.496Z" fill="#BFB7B6"/>
<path d="M553.228 228.25H550.795V207.219H554.239L559.855 222.417V207.219H562.251V228.25H559.443L553.228 211.248V228.25Z" fill="#BFB7B6"/>
<path d="M567.597 223.292C567.597 224.259 567.822 225.007 568.271 225.539C568.72 226.066 569.444 226.328 570.442 226.328C571.416 226.328 572.127 226.066 572.576 225.539C573.025 225.007 573.25 224.259 573.25 223.292V207.219H575.783V223.173C575.783 224.772 575.34 226.057 574.461 227.03C573.587 228.002 572.214 228.488 570.342 228.488C568.486 228.488 567.117 228.002 566.237 227.03C565.363 226.057 564.926 224.772 564.926 223.173V207.219H567.597V223.292Z" fill="#BFB7B6"/>
<path d="M588.94 207.013C590.793 207.013 592.16 207.489 593.033 208.439C593.913 209.39 594.356 210.67 594.356 212.274V212.836H591.785V212.144C591.785 211.188 591.564 210.448 591.124 209.93C590.681 209.406 589.979 209.141 589.015 209.141C588.042 209.141 587.333 209.406 586.894 209.93C586.451 210.448 586.232 211.18 586.232 212.123C586.232 212.9 586.432 213.581 586.831 214.164C587.237 214.742 587.742 215.277 588.341 215.774C588.946 216.265 589.605 216.743 590.313 217.21C591.018 217.68 591.673 218.193 592.272 218.755C592.871 219.317 593.373 219.954 593.782 220.667C594.188 221.38 594.394 222.228 594.394 223.206C594.394 224.804 593.947 226.079 593.058 227.03C592.166 227.98 590.781 228.455 588.903 228.455C587.031 228.455 585.652 227.98 584.772 227.03C583.899 226.079 583.462 224.804 583.462 223.206V222.007H585.995V223.324C585.995 224.283 586.223 225.026 586.681 225.55C587.146 226.068 587.867 226.327 588.84 226.327C589.814 226.327 590.528 226.068 590.987 225.55C591.452 225.026 591.686 224.283 591.686 223.324C591.686 222.541 591.48 221.863 591.074 221.294C590.665 220.726 590.163 220.197 589.564 219.706C588.965 219.217 588.316 218.739 587.617 218.269C586.925 217.794 586.276 217.275 585.671 216.714C585.072 216.152 584.566 215.52 584.161 214.812C583.761 214.099 583.562 213.254 583.562 212.274C583.562 210.648 583.998 209.365 584.872 208.428C585.752 207.486 587.109 207.013 588.94 207.013Z" fill="#BFB7B6"/>
<path d="M599.454 207.219V228.25H596.746V207.219H599.454Z" fill="#BFB7B6"/>
<path d="M604.626 228.25H602.192V207.219H605.636L611.252 222.417V207.219H613.648V228.25H610.84L604.626 211.248V228.25Z" fill="#BFB7B6"/>
<path d="M621.665 207.013C623.537 207.013 624.916 207.497 625.808 208.461C626.706 209.419 627.156 210.697 627.156 212.295V214.099H624.585V212.177C624.585 211.221 624.354 210.475 623.899 209.941C623.449 209.409 622.729 209.141 621.74 209.141C620.766 209.141 620.046 209.409 619.581 209.941C619.122 210.475 618.895 211.221 618.895 212.177V223.292C618.895 224.259 619.122 225.007 619.581 225.539C620.046 226.065 620.766 226.327 621.74 226.327C622.729 226.327 623.449 226.065 623.899 225.539C624.354 225.007 624.585 224.259 624.585 223.292V219.09H622.089V216.984H627.156V223.173C627.156 224.772 626.706 226.055 625.808 227.019C624.916 227.977 623.537 228.455 621.665 228.455C619.818 228.455 618.448 227.977 617.559 227.019C616.667 226.055 616.224 224.772 616.224 223.173V212.295C616.224 211.496 616.33 210.772 616.548 210.124C616.764 209.471 617.098 208.912 617.547 208.45C618.002 207.991 618.573 207.637 619.256 207.391C619.937 207.14 620.741 207.013 621.665 207.013Z" fill="#BFB7B6"/>
<path d="M632.286 223.292C632.286 224.259 632.511 225.007 632.96 225.539C633.409 226.066 634.133 226.328 635.132 226.328C636.105 226.328 636.816 226.066 637.265 225.539C637.715 225.007 637.939 224.259 637.939 223.292V207.219H640.473V223.173C640.473 224.772 640.03 226.057 639.15 227.03C638.276 228.002 636.904 228.488 635.032 228.488C633.175 228.488 631.806 228.002 630.926 227.03C630.052 226.057 629.616 224.772 629.616 223.173V207.219H632.286V223.292Z" fill="#BFB7B6"/>
<path d="M648.562 207.219C650.484 207.219 651.863 207.629 652.705 208.45C653.554 209.271 653.978 210.465 653.978 212.026V213.743C653.978 214.904 653.732 215.844 653.242 216.562C652.758 217.283 651.997 217.783 650.958 218.064C652.062 218.345 652.849 218.863 653.317 219.619C653.781 220.37 654.015 221.313 654.015 222.45V225.723C654.015 226.184 654.034 226.63 654.078 227.062C654.128 227.494 654.268 227.891 654.502 228.25H651.757C651.588 227.948 651.473 227.624 651.407 227.278C651.339 226.927 651.307 226.4 651.307 225.701V222.396C651.307 221.215 650.999 220.397 650.384 219.943C649.766 219.49 648.893 219.263 647.763 219.263H645.854V228.25H643.146V207.219H648.562ZM647.863 217.135C648.952 217.135 649.798 216.941 650.397 216.552C651.002 216.163 651.307 215.396 651.307 214.251V212.242C651.307 211.278 651.089 210.556 650.659 210.081C650.234 209.6 649.514 209.357 648.5 209.357H645.854V217.135H647.863Z" fill="#BFB7B6"/>
<path d="M659.437 225.334V228.25H656.829V225.334H659.437Z" fill="black"/>
<mask id="mask5_1_177" style="mask-type:luminance" maskUnits="userSpaceOnUse" x="0" y="0" width="204" height="222">
<path d="M0 0H203.039V221.092H0V0Z" fill="white"/>
</mask>
<g mask="url(#mask5_1_177)">
<path fill-rule="evenodd" clip-rule="evenodd" d="M118.106 220.835L118.396 221.154H119.276C118.836 221.027 118.471 220.962 118.106 220.835ZM130.903 1.43126L119.348 1.68241L113.351 3.45665L111.305 2.19011L106.478 4.27761L112.546 5.2282L124.027 4.7205L130.903 1.43126ZM128.27 10.6076C130.538 8.77398 132.878 7.06455 135.365 5.54416L120.518 6.303L114.228 11.623L128.27 10.6076ZM92.3614 12.0659L101.212 6.62167L104.504 7.95032L113.716 7.8234L105.452 13.0138L97.9927 14.1534L92.3614 12.0659ZM80.2223 7.06455L71.9611 12.0011L83.3671 9.78668L89.6566 11.4313L98.5074 6.17878L88.9265 5.92493L80.2223 7.06455ZM64.1336 9.9136L63.9869 11.2423L59.5287 11.3692C58.5772 11.8121 57.6257 12.3171 56.749 12.8248C54.4809 14.0913 52.3595 15.5469 50.3846 17.1294L64.5734 14.0265L72.0329 9.02513L64.1336 9.9136ZM99.8209 218.81L102.307 218.937L102.601 217.67L106.478 219.001H111.377C107.792 217.165 104.575 214.759 101.649 212.037L93.3878 213.557L99.8209 218.81ZM76.4193 217.735L78.6156 217.862L94.1927 218.556L87.61 214.443L79.1273 214.697L71.3746 213.619L76.4193 217.735ZM56.0159 216.279L58.2839 216.53L58.649 215.899L64.5734 217.1L69.9114 217.354L64.4268 211.975L48.4847 210.138L56.0159 216.279ZM35.6124 211.278L38.3922 212.734L43.5117 212.987L43.5835 214.697L48.4847 215.329L42.9283 210.265L35.6124 211.278ZM97.0442 206.973C95.1412 204.567 93.3878 202.034 91.8498 199.439L78.6874 203.174L84.1002 209.884L97.0442 206.973ZM63.2569 208.872L58.2122 201.972L65.5967 204.313L73.8611 204.251L80.0039 211.405L70.7163 211.151L63.2569 208.872ZM38.6854 205.769L34.5174 198.175L43.5117 197.16L52.1411 200.136L58.3588 208.048L47.1681 205.075L38.6854 205.769ZM21.6451 200.327L26.6181 205.391L32.5425 205.199L32.0309 207.416L35.394 206.719L29.8377 198.996L21.6451 200.327ZM88.2683 192.539C87.7566 191.464 87.245 190.325 86.8051 189.247C85.9284 187.095 85.1235 184.942 84.3904 182.728L72.9844 186.525L77.8825 195.704L88.2683 192.539ZM53.7509 196.085L50.3129 186.147L59.3821 189.628L69.0347 187.665L74.2261 197.287L65.5967 199.377L53.7509 196.085ZM35.9806 180.703L29.1045 181.777L33.2008 191.399L39.637 191.337L49.5828 194.945L45.3399 184.627L35.9806 180.703ZM12.0642 185.577L16.2354 193.301L24.2065 192.096L23.1083 194.059L29.0328 193.174L24.1316 182.79L12.0642 185.577ZM82.1254 174.878C81.0272 170.638 80.2223 166.333 79.564 161.964L63.1851 168.043L66.7667 180.006L82.1254 174.878ZM45.9982 178.107L43.44 166.333L53.8226 171.208L59.014 169.56L62.6735 181.461L57.6257 183.109L45.9982 178.107ZM22.7433 173.803L19.5985 162.407L30.5677 159.369L39.3437 165.067L42.3418 177.6L32.5425 172.347L22.7433 173.803ZM5.63122 166.776L5.55635 166.838L8.55447 176.903L15.0655 175.574L15.209 176.209L17.6237 175.447L14.479 164.054L5.63122 166.776ZM78.3941 152.28C78.0291 147.786 77.8107 143.228 77.8107 138.607L64.8667 143.859L66.4016 157.343L78.3941 152.28ZM42.7068 158.421L42.3418 144.621L50.0196 148.799L59.9655 145.761L61.4287 159.242L51.9227 162.852L42.7068 158.421ZM21.1335 153.039L19.7452 138.796L28.4463 135.885L38.0989 142.088L38.6854 156.519L29.1045 150.508L21.1335 153.039ZM5.77785 143.986L2.04658 146.266L3.80303 157.089L8.99436 155.318L9.35937 157.47L17.3304 154.621L15.8673 140.505L5.77785 143.986ZM78.0291 129.744C78.2475 124.426 78.7623 119.047 79.4174 113.73L61.4287 120.249L60.9888 135.569L78.0291 129.744ZM40.002 134.429L41.6118 118.982L49.2147 124.807L56.5306 121.893L56.0907 137.783L50.2411 140.316L40.002 134.429ZM15.4305 132.528L16.8937 117.338L29.3978 111.829L37.8088 117.781L36.3456 132.782L27.9346 127.654L15.4305 132.528ZM7.60605 121.072V121.199L2.4116 123.352L1.89995 134.934C2.12146 134.934 2.26497 134.872 2.48647 134.872C3.06988 134.807 3.6564 134.68 4.16804 134.68C5.0447 134.618 5.99624 134.556 6.43613 135.315C6.50788 135.377 6.50789 135.442 6.57964 135.442L11.9207 133.417L13.1624 118.855L7.60605 121.072ZM80.5156 105.814C81.3922 100.435 82.4904 95.0529 83.807 89.7356L69.693 94.8639L67.4249 110.246L80.5156 105.814ZM43.2185 110.627L46.07 95.5606L53.1644 100.689L64.5734 96.6381L62.1587 111.893L51.0429 116.006L43.2185 110.627ZM24.4248 105.12L26.5463 90.94L33.8591 87.775L42.9283 93.7243L39.8553 108.664L31.0076 102.649L24.4248 105.12ZM5.11958 99.4224C5.11958 99.4845 5.11958 99.6114 5.0447 99.6762C4.97295 100.246 4.82632 100.816 4.75144 101.321C4.53306 102.903 4.2398 104.486 4.02141 106.068C3.72815 108.032 3.43489 110.057 3.14475 112.02L6.2895 112.145L18.647 107.273L21.4267 92.5846L5.11958 99.4224ZM86.0751 81.3802C87.4634 76.6327 89.0732 71.823 90.8265 67.1376V67.0755L72.1795 73.4055L69.2531 85.8766L86.0751 81.3802ZM47.3865 85.0529L52.0693 71.5692L58.4306 76.1898L66.3299 74.6721L62.5986 87.9641L55.5791 90.8752L47.3865 85.0529ZM36.7823 78.5311L26.6181 82.4577L31.4444 68.3394L42.1952 64.2886L49.4362 69.2278L44.3884 83.4056L36.7823 78.5311ZM20.4752 72.8978L18.5752 73.5946L16.8937 74.2265C16.0139 74.5452 15.1372 74.9232 14.2606 75.2419C13.5274 75.5579 12.7974 75.809 12.0642 76.1898C11.8458 76.3167 11.4808 76.4436 11.2624 76.5706C11.2624 76.6975 11.1876 76.7596 11.1876 76.8244C11.0409 77.3915 10.8943 77.8992 10.6759 78.469C10.236 80.0515 9.72439 81.5719 9.28762 83.1544C8.7011 85.1798 8.04282 87.1404 7.45942 89.1658L7.97107 89.3575L19.8169 84.8639L24.6432 71.3802L20.4752 72.8978ZM94.7761 57.5157C96.6792 53.1489 98.7976 48.8443 101.137 44.6018L86.5118 48.9064L81.3205 61.5665L94.7761 57.5157ZM55.6508 62.5792L62.2336 49.7922L69.0347 54.2237L80.8806 50.4889L75.1776 63.149L63.1103 67.5184L55.6508 62.5792ZM38.0989 58.9092L43.9516 47.0701L52.3595 44.032L59.6005 48.4014L53.0926 61.1884L45.8516 56.0601L38.0989 58.9092ZM28.0095 52.0093L28.2279 52.4522L26.1064 52.9572C25.0831 53.2111 21.4267 54.1616 20.4034 54.7314C20.3286 54.9205 20.2568 55.1095 20.1102 55.2364C19.8918 55.7441 19.6703 56.2491 19.3801 56.7568C18.7219 58.1476 18.1353 59.5411 17.4771 60.9345C16.6004 62.8978 15.7238 64.8584 14.844 66.8838L14.9188 67.0107L32.4677 60.6807L38.6854 48.6526L28.0095 52.0093ZM104.65 38.5877C106.11 36.2464 107.574 33.905 109.183 31.6258C110.06 30.3592 110.937 29.0927 111.963 27.8262L94.9228 31.056L87.5351 42.5764L104.65 38.5877ZM65.9618 41.4368L73.5678 31.245L79.0524 34.5369L87.245 33.0166L79.7107 44.032L72.3979 45.9953L65.9618 41.4368ZM57.4073 36.4354L45.3399 40.551L52.7276 29.7894L64.9385 26.4354L71.228 29.9164L63.4753 40.4241L57.4073 36.4354ZM38.0271 34.5369L38.0989 34.9798L36.3456 35.2958C35.5407 35.4227 33.1259 35.9304 32.1775 36.3733C32.1027 36.5002 31.956 36.6893 31.8843 36.8162C31.591 37.2591 31.2978 37.702 31.0076 38.1448C30.2027 39.4114 29.326 40.6131 28.5211 41.8797C27.423 43.527 26.253 45.1716 25.0831 46.8189V46.881L38.467 42.3874L45.6332 32.5116L38.0271 34.5369ZM115.984 22.7627C118.471 19.8515 121.104 17.0025 124.027 14.2803L111.742 15.925L104.136 24.599L115.984 22.7627ZM85.0486 28.2069L78.469 24.8529L87.3167 16.8134L92.0713 19.1548L105.234 17.0025L97.5559 25.104L85.0486 28.2069ZM71.0813 20.9911L62.8919 22.8275L69.8397 16.1167L79.8573 13.2676L85.1235 15.8007L76.0543 24.0292L71.0813 20.9911ZM49.7295 19.7246L49.6546 21.0532L48.2663 21.3692C47.4614 21.5609 45.1215 22.0659 44.4633 22.4467C44.0234 22.8275 43.5117 23.3325 43.0718 23.7133C42.1952 24.5342 41.3185 25.3579 40.5136 26.2436C39.3437 27.3833 38.1738 28.5877 37.0038 29.7273L55.7257 24.4721L63.8434 17.0646L49.7295 19.7246ZM123.591 47.3239C134.706 30.8669 148.455 20.7373 162.058 20.7373C179.535 20.7373 189.262 34.41 194.379 51.5664H200.743L203.008 49.0955L200.303 38.2718L195.33 36.6272L197.892 32.6385L193.062 23.1435L188.894 22.2577L190.139 18.585L183.774 11.623L179.975 11.0532L180.411 8.77398L173.099 4.15069L169.442 4.27761L168.712 2.50607C157.303 -0.278166 144.506 4.2155 134.853 11.1153C127.1 16.6217 119.713 24.4721 113.058 34.0941C99.2375 53.7809 88.6333 81.0021 84.3186 111.197C80.0757 141.329 82.9303 168.612 91.048 188.299C98.7258 206.908 110.06 220.773 135.071 219.822L136.46 219.506L136.9 218.621L141.068 218.432L149.257 214.632L149.625 211.405L154.305 211.594L161.764 205.075L161.471 199.947L165.857 201.086L173.538 191.969L171.929 185.893L172.222 185.323L176.902 187.033L180.998 180.006H170.977C161.836 192.223 150.355 200.959 136.388 200.959C122.786 200.959 111.963 190.767 105.452 174.373C99.0191 158.105 96.8227 135.631 100.336 110.881C103.992 86.0008 112.546 63.5919 123.591 47.3239ZM161.836 22.2577C148.967 22.2577 135.876 32.0687 125.125 47.9585C114.228 64.0347 105.745 86.2546 102.236 110.816C98.7258 135.377 100.919 157.597 107.28 173.676C113.57 189.566 123.881 199.377 136.681 199.377C149.625 199.377 160.448 191.337 169.295 179.944H160.083C154.087 184.437 147.797 186.971 141.508 186.971C118.324 186.971 104.357 152.849 110.353 110.816C116.35 68.785 139.969 34.6639 163.153 34.6639C173.173 34.6639 181.435 40.9939 187.141 51.5664H192.919C187.724 35.1689 178.29 22.2577 161.836 22.2577ZM73.5678 5.03916C73.5678 5.03916 66.9133 6.62167 62.6735 8.58224L62.452 10.5455L59.1606 10.7346C59.1606 10.7346 54.0441 12.8869 48.2663 17.6992L48.0448 20.7373C48.0448 20.7373 44.2418 21.4961 43.44 22.1308C42.6351 22.7627 35.2474 30.1054 35.2474 30.1054L36.1272 34.726C36.1272 34.726 31.1542 35.6766 30.861 36.3733C30.5677 37.07 23.1801 47.6399 23.1801 47.6399L25.8132 52.3874C25.8132 52.3874 19.6703 53.8457 19.0869 54.8584C18.5004 55.8063 13.0158 68.0882 13.0158 68.0882L17.7703 73.2138C17.7703 73.2138 9.87102 76.1277 9.72439 76.6975C9.58088 77.3294 5.48459 90.8131 5.48459 90.8131L10.5293 92.9654L10.0177 96.5733C10.0177 96.5733 3.6564 99.1685 3.50977 99.5493C3.36314 99.9274 1.16992 114.235 1.16992 114.235L5.40972 114.424L6.57964 115.563L5.92136 121.199L0.658276 123.352L0 137.402C0 137.402 4.67969 136.644 4.82632 136.833C4.89807 137.024 5.99624 137.972 5.99624 137.972L5.48459 143.29L0.218385 146.519L2.33984 159.811L7.60605 158.04L8.48271 162.787L3.6564 167.346L7.23792 179.309L13.674 177.981L14.0391 179.436L9.65264 185.704L14.9906 195.642L21.3519 194.691L18.3537 200.2L25.5948 207.605L30.4211 207.478L29.6162 210.835L37.5155 214.948L41.6835 215.202L41.7553 216.849L58.8705 218.937L59.2355 218.432L63.9869 219.38L78.1757 220.076L103.405 221.216L103.552 220.457L105.745 221.216L116.861 221.154L117.519 220.773C104.94 216.784 94.8479 205.58 88.1934 189.439C79.9322 169.371 76.9309 141.772 81.3205 111.197C85.6352 80.6835 96.4577 53.022 110.425 32.9544C122.421 15.7359 136.825 4.08858 151.525 0.923566C146.406 0.734529 141.142 0.669717 141.142 0.669717L138.728 1.74722L136.095 0.607605L119.201 0.985678L113.716 2.56818L111.742 1.36645L96.386 2.56818L92.3614 4.02646L90.4615 2.94896C90.4615 3.07588 83.0769 3.26492 73.5678 5.03916Z" fill="#848C8E"/>
</g>
<mask id="mask6_1_177" style="mask-type:luminance" maskUnits="userSpaceOnUse" x="189" y="37" width="177" height="15">
<path d="M189.462 37.332H365.39V51.85H189.462V37.332Z" fill="white"/>
</mask>
<g mask="url(#mask6_1_177)">
<path fill-rule="evenodd" clip-rule="evenodd" d="M195.549 51.5665H365.652L189.992 37.5129L195.549 51.5665Z" fill="#848C8E"/>
</g>
<path fill-rule="evenodd" clip-rule="evenodd" d="M171.052 179.944H304.442L162.348 193.995L171.052 179.944Z" fill="#848C8E"/>
</svg>
