<svg width="1598" height="465" viewBox="0 0 1598 465" fill="none" xmlns="http://www.w3.org/2000/svg">
<mask id="mask0_7_146" style="mask-type:luminance" maskUnits="userSpaceOnUse" x="0" y="55" width="591" height="410">
<path d="M590.667 55.0019H0V464.335H590.667V55.0019Z" fill="white"/>
</mask>
<g mask="url(#mask0_7_146)">
<path d="M74.8424 291.32V374.091H23.7383V142.466H110.592C123.092 142.466 134.728 145.591 145.509 151.841C156.301 158.08 164.988 166.768 171.572 177.903C178.155 189.028 181.447 201.966 181.447 216.716C181.447 229.664 179.056 241.132 174.28 251.132C169.514 261.122 163.16 269.294 155.217 275.653C147.27 282.018 138.415 286.44 128.655 288.924L195.072 374.091H130.363L75.1758 291.32H74.8424ZM102.092 182.653H74.8424V251.132H102.092C109.577 251.132 116.556 248.184 123.03 242.278C129.499 236.362 132.738 227.841 132.738 216.716C132.738 206.049 129.499 197.71 123.03 191.695C116.556 185.669 109.577 182.653 102.092 182.653Z" fill="#3F3E3F"/>
<path d="M238.665 374.091H187.561V142.466H238.665V374.091Z" fill="#3F3E3F"/>
<path d="M306.093 327.091H321.427C334.593 327.091 346.114 324.028 355.989 317.903C365.864 311.768 373.578 303.476 379.135 293.028C384.703 282.585 387.489 271.002 387.489 258.278C387.489 245.335 384.703 233.695 379.135 223.362C373.578 213.028 365.864 204.856 355.989 198.841C346.114 192.83 334.593 189.82 321.427 189.82H306.093V327.091ZM255.677 142.466H324.489C340.833 142.466 355.989 145.419 369.948 151.32C383.916 157.226 396.125 165.398 406.573 175.841C417.015 186.289 425.135 198.549 430.927 212.632C436.718 226.716 439.614 241.934 439.614 258.278C439.614 274.627 436.718 289.841 430.927 303.924C425.135 318.007 417.073 330.273 406.739 340.716C396.406 351.164 384.198 359.335 370.114 365.237C356.041 371.143 340.833 374.091 324.489 374.091H255.677V142.466Z" fill="#3F3E3F"/>
<path d="M582.317 327.757V374.091H448.109V142.466H582.317V188.799H499.213V234.778H578.901V281.091H499.213V327.757H582.317Z" fill="#3F3E3F"/>
</g>
<path d="M799.809 91.2917C799.809 100.125 798.111 110.599 794.726 122.708C791.335 134.807 786.189 147.531 779.288 160.875C772.382 174.224 763.444 187.349 752.476 200.25C741.502 213.141 728.543 225.135 713.601 236.229C698.668 247.313 681.528 256.536 662.184 263.896C642.851 271.245 621.189 275.823 597.205 277.625V217.208C612.132 215.865 625.481 213.49 637.247 210.083C635.205 201.49 633.502 191.703 632.142 180.729C630.793 169.76 630.122 155.896 630.122 139.146C630.122 122.188 632.21 105.453 636.392 88.9375C640.585 72.4115 646.694 57.474 654.726 44.125C662.752 30.7812 672.418 20.0938 683.726 12.0625C695.043 4.02083 707.835 0 722.101 0C739.752 0 754.34 3.84896 765.872 11.5417C777.413 19.2396 785.955 29.9323 791.497 43.625C797.038 57.3073 799.809 73.1979 799.809 91.2917ZM688.83 184.625C701.731 174.906 712.085 164.333 719.892 152.917C727.694 141.49 733.351 130.177 736.851 118.979C740.361 107.771 742.122 98.0938 742.122 89.9375C742.122 68.2188 735.444 57.3542 722.101 57.3542C715.767 57.3542 710.335 60.1875 705.809 65.8542C701.278 71.5104 697.543 78.8646 694.601 87.9167C691.653 96.9583 689.502 106.745 688.142 117.271C686.793 127.786 686.122 137.911 686.122 147.646C686.122 154.661 686.34 161.281 686.788 167.5C687.247 173.724 687.924 179.432 688.83 184.625ZM706.83 251.833C716.549 273.333 729.502 289.458 745.684 300.208C761.861 310.943 778.663 317.563 796.08 320.063V394.375C782.955 392.792 769.434 389 755.517 383C741.611 377.01 728.267 368.927 715.476 358.75C702.694 348.568 691.043 336.401 680.517 322.25C670.002 308.115 661.351 292.104 654.559 274.229C663.153 272.427 670.049 270.391 675.247 268.125C680.455 265.865 685.377 263.375 690.017 260.667C694.653 257.948 700.257 255 706.83 251.833Z" fill="#5CCBF5"/>
<mask id="mask1_7_146" style="mask-type:luminance" maskUnits="userSpaceOnUse" x="794" y="53" width="746" height="411">
<path d="M1540 53.6686H794.667V463.002H1540V53.6686Z" fill="white"/>
</mask>
<g mask="url(#mask1_7_146)">
<path d="M933.417 299.756C933.417 293.173 931.823 287.048 928.646 281.381C925.48 275.704 921.219 271.105 915.875 267.589C910.542 264.063 904.469 262.298 897.667 262.298C890.844 262.298 884.771 264.063 879.438 267.589C874.105 271.105 869.844 275.704 866.667 281.381C863.485 287.048 861.896 293.173 861.896 299.756C861.896 306.339 863.485 312.475 866.667 318.152C869.844 323.834 874.105 328.438 879.438 331.964C884.771 335.48 890.844 337.235 897.667 337.235C904.469 337.235 910.542 335.48 915.875 331.964C921.219 328.438 925.48 323.834 928.646 318.152C931.823 312.475 933.417 306.339 933.417 299.756ZM984.521 224.818V374.693H933.417V356.652C928.427 364.36 920.99 369.86 911.105 373.152C901.23 376.443 891.526 378.089 882 378.089C867.917 378.089 855.193 374.459 843.834 367.193C832.485 359.933 823.573 350.339 817.105 338.423C810.631 326.506 807.396 313.621 807.396 299.756C807.396 285.912 810.631 273.027 817.105 261.11C823.573 249.183 832.485 239.527 843.834 232.152C855.193 224.777 867.917 221.089 882 221.089C891.526 221.089 900.834 222.683 909.917 225.86C919 229.027 926.834 234.704 933.417 242.881V224.818H984.521Z" fill="#5CCBF5"/>
<path d="M1168.75 289.548V374.693H1117.67V289.548C1117.67 280.688 1115.84 273.933 1112.21 269.277C1108.58 264.626 1102.8 262.298 1094.85 262.298C1086.89 262.298 1080.13 265.996 1074.56 273.381C1069 280.756 1066.23 289.548 1066.23 299.756V374.693H1015.14V224.485H1066.23V242.881C1071.45 236.298 1077.98 231.022 1085.81 227.048C1093.64 223.079 1102.44 221.089 1112.21 221.089C1132.42 221.089 1146.88 227.391 1155.62 239.985C1164.37 252.584 1168.75 269.105 1168.75 289.548Z" fill="#5CCBF5"/>
<path d="M1270.9 260.923C1263.19 260.923 1257.12 263.027 1252.69 267.235C1248.26 271.433 1245.08 276.542 1243.15 282.568C1241.22 288.584 1240.26 294.433 1240.26 300.11C1240.26 305.777 1241.16 311.683 1242.99 317.818C1244.8 323.943 1247.92 329.058 1252.34 333.152C1256.77 337.235 1262.96 339.277 1270.9 339.277C1278.86 339.277 1285.56 337.579 1291.01 334.173C1296.45 330.756 1299.63 325.647 1300.55 318.839H1350.28C1348.68 329.964 1344.36 340.016 1337.32 348.985C1330.29 357.943 1320.99 365.037 1309.4 370.256C1297.82 375.475 1284.42 378.089 1269.22 378.089C1251.95 378.089 1237.08 374.522 1224.59 367.381C1212.1 360.23 1202.51 350.751 1195.8 338.943C1189.1 327.126 1185.76 314.063 1185.76 299.756C1185.76 285.454 1189.22 272.339 1196.15 260.423C1203.08 248.506 1212.85 238.975 1225.44 231.818C1238.04 224.667 1252.63 221.089 1269.22 221.089C1285.56 221.089 1299.69 223.985 1311.61 229.777C1323.53 235.558 1332.95 243.272 1339.88 252.923C1346.81 262.579 1350.62 273.193 1351.3 284.777H1300.55C1300.31 277.516 1297.53 271.725 1292.19 267.402C1286.86 263.084 1279.76 260.923 1270.9 260.923Z" fill="#5CCBF5"/>
<path d="M1418.36 281.714H1485.47C1485.47 281.714 1485.18 280.298 1484.61 277.464C1484.04 274.621 1482.68 271.381 1480.53 267.756C1478.37 264.121 1475.03 260.881 1470.49 258.048C1465.95 255.204 1459.81 253.777 1452.09 253.777C1444.14 253.777 1437.9 255.204 1433.36 258.048C1428.82 260.881 1425.47 264.121 1423.3 267.756C1421.14 271.381 1419.78 274.621 1419.22 277.464C1418.64 280.298 1418.36 281.714 1418.36 281.714ZM1534.51 296.36C1534.51 297.943 1534.45 299.537 1534.34 301.131C1534.23 302.714 1534.17 304.308 1534.17 305.902H1417.7C1417.7 311.568 1419 317.188 1421.61 322.756C1424.22 328.313 1427.97 332.855 1432.84 336.381C1437.73 339.897 1443.47 341.652 1450.05 341.652C1459.13 341.652 1466.28 339.214 1471.51 334.339C1476.73 329.454 1479.45 324.287 1479.67 318.839H1531.8C1527.48 338.589 1517.94 353.402 1503.17 363.277C1488.42 373.152 1471.06 378.089 1451.07 378.089C1433.81 378.089 1418.59 374.86 1405.42 368.402C1392.26 361.933 1381.98 352.85 1374.59 341.152C1367.22 329.459 1363.53 315.662 1363.53 299.756C1363.53 284.089 1367.33 270.355 1374.95 258.548C1382.56 246.746 1392.95 237.548 1406.11 230.964C1419.28 224.381 1434.26 221.089 1451.07 221.089C1466.28 221.089 1480.18 224.042 1492.78 229.943C1505.39 235.85 1515.49 244.36 1523.09 255.485C1530.7 266.61 1534.51 280.235 1534.51 296.36Z" fill="#5CCBF5"/>
</g>
<mask id="mask2_7_146" style="mask-type:luminance" maskUnits="userSpaceOnUse" x="1551" y="323" width="47" height="46">
<path d="M1551.76 323.335H1597.08V368.658H1551.76V323.335Z" fill="white"/>
</mask>
<g mask="url(#mask2_7_146)">
<mask id="mask3_7_146" style="mask-type:luminance" maskUnits="userSpaceOnUse" x="1551" y="323" width="47" height="46">
<path d="M1574.42 323.335C1561.9 323.335 1551.76 333.481 1551.76 345.997C1551.76 358.512 1561.9 368.658 1574.42 368.658C1586.93 368.658 1597.08 358.512 1597.08 345.997C1597.08 333.481 1586.93 323.335 1574.42 323.335Z" fill="white"/>
</mask>
<g mask="url(#mask3_7_146)">
<mask id="mask4_7_146" style="mask-type:luminance" maskUnits="userSpaceOnUse" x="1550" y="323" width="48" height="47">
<path d="M1597.33 323.002H1550.67V369.669H1597.33V323.002Z" fill="white"/>
</mask>
<g mask="url(#mask4_7_146)">
<mask id="mask5_7_146" style="mask-type:luminance" maskUnits="userSpaceOnUse" x="1551" y="323" width="47" height="46">
<path d="M1551.76 323.335H1597.08V368.658H1551.76V323.335Z" fill="white"/>
</mask>
<g mask="url(#mask5_7_146)">
<mask id="mask6_7_146" style="mask-type:luminance" maskUnits="userSpaceOnUse" x="1551" y="323" width="47" height="46">
<path d="M1574.42 323.335C1561.9 323.335 1551.76 333.481 1551.76 345.997C1551.76 358.512 1561.9 368.658 1574.42 368.658C1586.93 368.658 1597.08 358.512 1597.08 345.997C1597.08 333.481 1586.93 323.335 1574.42 323.335Z" fill="white"/>
</mask>
<g mask="url(#mask6_7_146)">
<path d="M1551.76 323.335H1597.08V368.658H1551.76V323.335Z" fill="#3F3E3F"/>
</g>
</g>
</g>
</g>
</g>
</svg>
