<svg width="541" height="177" viewBox="0 0 541 177" fill="none" xmlns="http://www.w3.org/2000/svg">
<path d="M92.6736 80.4606C91.0906 80.4606 89.9215 81.1003 89.1628 82.3766C88.4075 83.6497 87.9316 85.1998 87.735 87.0235C87.5367 88.844 87.4694 90.6057 87.5349 92.3069C87.5988 94.0097 87.666 95.286 87.735 96.139C87.8626 96.9888 87.9436 97.8991 87.9764 98.8698C88.0126 99.8421 87.5039 100.542 86.452 100.97C85.7243 101.212 84.8828 101.257 83.9275 101.104C82.9757 100.951 82.1031 100.907 81.3134 100.97C80.853 100.97 80.0304 101.018 78.844 101.11C77.6577 101.2 76.5023 101.2 75.3815 101.11C74.2641 101.018 73.5743 100.727 73.3122 100.238C73.2467 100.057 73.2156 99.7228 73.2156 99.239C73.2156 95.8366 73.2156 92.4326 73.2156 89.0286C73.2156 85.6262 73.2156 82.2525 73.2156 78.9074C73.2156 72.4654 73.2156 66.0092 73.2156 59.537C73.2156 53.0664 73.1812 46.6085 73.1122 40.1666C73.1122 38.9539 73.195 37.7079 73.3605 36.43C73.526 35.1537 74.3986 34.3023 75.9816 33.8774C77.2955 33.5129 78.6785 33.4684 80.127 33.7437C81.5755 34.0158 82.9912 34.1813 84.3759 34.2402C89.3145 34.4869 94.2532 34.6858 99.1918 34.8386C104.13 34.9882 109.1 35.3351 114.104 35.8825C115.225 36.0067 116.329 36.1881 117.415 36.43C118.5 36.6719 119.569 37.0076 120.622 37.4357C124.375 38.8918 127.025 41.201 128.575 44.3615C130.124 47.5236 131.031 50.8655 131.293 54.3872C131.421 56.8189 131.255 59.2362 130.796 61.6376C130.336 64.0358 129.481 66.2972 128.23 68.4233C127.572 69.4593 126.848 70.4635 126.058 71.4342C125.266 72.4066 124.376 73.3184 123.388 74.1714C122.992 74.5374 122.399 74.9639 121.609 75.4509C120.823 75.9347 120.148 76.4503 119.588 76.9977C119.026 77.542 118.777 78.1483 118.843 78.8183C118.912 79.0602 119.01 79.3052 119.14 79.5503C119.272 79.7922 119.405 80.0643 119.54 80.3651C121.116 82.5549 122.826 84.6682 124.671 86.7052C126.515 88.739 128.26 90.8205 129.907 92.9498C130.633 93.9222 131.407 94.8945 132.231 95.8653C133.054 96.8376 133.695 97.8704 134.155 98.9653C134.288 99.2677 134.419 99.6321 134.549 100.06C134.681 100.485 134.518 100.818 134.059 101.06C133.861 101.12 133.564 101.149 133.169 101.149C131.655 101.149 130.141 101.166 128.624 101.2C127.11 101.23 125.596 101.244 124.078 101.244C122.564 101.244 121.033 101.216 119.484 101.155C117.939 101.091 116.574 100.544 115.387 99.5127C114.532 98.7202 113.808 97.8227 113.215 96.8201C112.621 95.8191 111.963 94.8627 111.242 93.9492C109.99 92.1891 108.69 90.4418 107.338 88.7104C105.989 86.9789 104.558 85.2921 103.041 83.6497C101.196 81.826 97.8054 80.763 92.8668 80.4606C92.8012 80.4606 92.7702 80.4606 92.7702 80.4606C92.7702 80.4606 92.7374 80.4606 92.6736 80.4606ZM88.6248 63.8656C88.9507 65.2071 89.787 66.1954 91.1355 66.8319C92.4874 67.4685 94.0686 67.8631 95.881 68.0159C97.6916 68.1687 99.4694 68.1687 101.213 68.0159C102.96 67.8631 104.36 67.6658 105.413 67.4239C108.31 66.7539 110.828 65.4936 112.966 63.6428C115.108 61.7888 116.18 59.4033 116.18 56.4879C116.18 54.2981 115.603 52.476 114.449 51.0198C113.299 49.5605 111.802 48.4068 109.959 47.557C108.114 46.704 106.12 46.1422 103.979 45.8701C101.84 45.5948 99.7815 45.5486 97.8054 45.7301C96.9501 45.7905 95.862 45.9115 94.5429 46.0929C93.2271 46.2759 92.027 46.5958 90.9423 47.0541C89.856 47.5092 89.1835 48.2508 88.9214 49.282C87.666 54.2058 87.566 59.0659 88.6248 63.8656Z" fill="#435058"/>
<path d="M138.206 33.6991C138.269 33.6991 138.333 33.6991 138.399 33.6991C138.468 33.6991 138.533 33.6991 138.599 33.6991C140.244 33.6991 141.858 33.715 143.441 33.7437C145.022 33.7739 146.636 33.8185 148.283 33.8773C149.464 33.941 150.056 34.3675 150.056 35.1568C150.056 35.9461 150.056 36.7657 150.056 37.6139C150.056 42.8432 150.056 48.1012 150.056 53.3878C150.056 58.676 150.056 63.9323 150.056 69.1553C150.056 71.6474 150.038 74.1554 150.007 76.6794C149.974 79.2002 149.959 81.7066 149.959 84.1971C149.959 86.5062 150.106 88.8313 150.4 91.1738C150.699 93.5131 150.683 95.8652 150.352 98.2332C150.154 99.3885 149.726 100.133 149.069 100.468C148.41 100.803 147.457 101.031 146.207 101.149C145.614 101.212 144.706 101.26 143.489 101.289C142.27 101.319 141.001 101.257 139.682 101.104C138.366 100.951 137.23 100.649 136.274 100.194C135.322 99.7402 134.846 99.0862 134.846 98.2332C134.846 88.0228 134.862 77.8156 134.895 67.6085C134.926 57.3981 134.91 47.1877 134.846 36.9774C134.846 35.7647 135.091 34.9308 135.584 34.4757C136.081 34.0174 136.954 33.7596 138.206 33.6991Z" fill="#435058"/>
<path d="M163.987 33.7882C165.499 33.7882 167.029 33.7882 168.574 33.7882C170.122 33.7882 171.654 33.7882 173.168 33.7882C177.185 33.7293 181.334 33.9887 185.611 34.5648C189.891 35.1425 193.876 36.1292 197.564 37.5248C205.469 40.5039 211.001 45.3067 214.16 51.9301C215.741 55.2704 216.762 58.9163 217.222 62.8661C217.681 66.8175 217.567 70.7531 216.877 74.6742C216.188 78.5922 214.886 82.192 212.973 85.4766C211.064 88.7581 208.497 91.3998 205.269 93.4017C201.975 95.469 198.782 97.0794 195.688 98.2332C192.593 99.3886 189.729 100.117 187.094 100.423C183.998 100.665 180.888 100.834 177.761 100.926C174.633 101.015 171.492 101.06 168.332 101.06C166.749 101.06 165.168 101.045 163.587 101.015C162.009 100.986 160.397 100.939 158.752 100.875C157.827 100.875 156.672 100.983 155.289 101.2C153.91 101.411 152.823 101.122 152.034 100.327C151.375 99.6018 151.078 98.4799 151.144 96.9601C151.208 95.4419 151.24 94.2261 151.24 93.3126C151.309 87.9019 151.344 82.523 151.344 77.1759C151.344 71.8288 151.375 66.4818 151.44 61.1347C151.44 58.5805 151.456 56.0422 151.489 53.5215C151.52 51.0007 151.504 48.464 151.44 45.9083C151.44 45.06 151.34 44.0431 151.144 42.8591C150.945 41.672 150.847 40.4705 150.847 39.2562C150.847 38.0436 151.061 36.9503 151.489 35.978C151.916 35.0024 152.723 34.3341 153.91 33.9728C154.368 33.8503 154.829 33.7739 155.289 33.7437C155.753 33.715 156.215 33.6991 156.676 33.6991C157.926 33.6991 159.141 33.6991 160.324 33.6991C161.511 33.6991 162.732 33.7293 163.987 33.7882ZM178.01 46.0929C176.561 46.034 175.078 46.0515 173.561 46.1438C172.047 46.2329 170.567 46.3698 169.119 46.5512C168.001 46.6705 167.293 47.2768 166.994 48.3717C166.699 49.4666 166.617 50.6379 166.746 51.8855C166.879 53.13 166.946 54.1453 166.946 54.9346C166.881 56.6374 166.849 58.3704 166.849 60.1353C166.849 61.897 166.849 63.6586 166.849 65.4187C166.849 68.8227 166.849 72.2553 166.849 75.7182C166.849 79.1811 166.849 82.6153 166.849 86.0177C166.849 87.173 167.539 87.9783 168.919 88.4366C170.302 88.8917 171.964 89.1177 173.906 89.1177C175.851 89.1177 177.71 89.0127 179.486 88.7994C181.265 88.5878 182.517 88.4525 183.245 88.392C185.944 88.0276 188.528 87.2685 190.998 86.1132C193.467 84.9546 195.623 83.4364 197.468 81.5554C199.311 79.6712 200.561 77.4528 201.22 74.897C201.877 72.7121 202.237 70.3441 202.303 67.7931C202.372 65.2389 202.077 62.7309 201.42 60.269C200.761 57.8087 199.609 55.6651 197.964 53.8397C195.393 50.9243 192.363 48.9192 188.873 47.8243C185.383 46.7294 181.762 46.1533 178.01 46.0929Z" fill="#435058"/>
<path d="M266.412 33.7882C267.464 33.7882 268.188 33.8503 268.585 33.9728C268.98 34.0922 269.209 34.2131 269.274 34.3357C269.802 34.8194 270.083 35.4114 270.116 36.1116C270.147 36.8119 270.131 37.4962 270.068 38.1614C269.999 39.0748 269.947 40.001 269.916 40.9431C269.883 41.8852 269.899 42.813 269.964 43.7249C269.964 43.9668 269.964 44.2405 269.964 44.546C269.964 44.8484 269.899 45.1507 269.771 45.4563C269.573 46.0037 268.964 46.3252 267.943 46.4175C266.922 46.5066 265.85 46.4907 264.729 46.3666C263.612 46.244 262.756 46.182 262.163 46.182C260.649 46.1231 259.135 46.0929 257.618 46.0929C256.104 46.0929 254.591 46.0929 253.079 46.0929C250.048 46.0929 247.051 46.0929 244.085 46.0929C241.122 46.0929 238.127 46.0929 235.097 46.0929C234.438 46.0929 233.862 46.322 233.366 46.7803C232.873 47.2355 232.628 47.7956 232.628 48.4608V59.1295C232.628 59.7963 232.873 60.3581 233.366 60.8164C233.862 61.2715 234.438 61.4975 235.097 61.4975C236.149 61.4975 237.203 61.4975 238.256 61.4975C239.313 61.4975 240.369 61.4975 241.422 61.4975C245.04 61.4975 248.644 61.4975 252.231 61.4975C255.821 61.4975 259.428 61.4689 263.053 61.4084C263.774 61.3495 264.282 61.593 264.577 62.1404C264.876 62.6847 265.057 63.291 265.122 63.961C265.191 64.6278 265.226 65.2055 265.226 65.6924C265.226 66.2399 265.241 67.1533 265.274 68.4296C265.305 69.7027 265.207 70.9026 264.977 72.0262C264.746 73.1513 264.236 73.834 263.446 74.0759C263.184 74.1395 262.887 74.1714 262.556 74.1714C262.229 74.1714 261.901 74.1714 261.57 74.1714C258.276 73.8658 254.95 73.7449 251.589 73.8085C248.232 73.869 244.874 73.8976 241.519 73.8976C238.487 73.8976 236.332 74.0361 235.049 74.3114C233.766 74.5835 232.99 75.2519 232.724 76.3166C232.462 77.378 232.331 79.1238 232.331 81.5554C232.331 83.559 232.414 85.0931 232.579 86.1577C232.745 87.2192 233.204 87.9464 233.959 88.3411C234.718 88.7358 235.952 88.9649 237.663 89.0286C239.377 89.0891 241.783 89.1177 244.878 89.1177C248.961 89.1177 253.01 89.1034 257.024 89.0731C261.042 89.0445 265.06 89.0286 269.074 89.0286C270.523 89.0286 271.247 89.4853 271.247 90.3972C271.247 91.3059 271.214 92.248 271.151 93.2235C271.085 93.9492 271.035 94.6924 270.999 95.4514C270.966 96.2121 270.985 96.9887 271.054 97.7812C271.118 98.8125 271.019 99.6177 270.757 100.194C270.495 100.771 269.671 101.06 268.288 101.06C264.467 101.06 260.628 101.06 256.776 101.06C252.927 101.06 249.059 101.06 245.174 101.06C241.619 101.001 238.03 100.926 234.407 100.837C230.783 100.744 227.194 100.789 223.64 100.97C222.918 101.031 222.126 101.122 221.268 101.244C220.412 101.362 219.622 101.273 218.902 100.97C218.243 100.665 217.896 99.9503 217.86 98.8252C217.827 97.7017 217.812 96.836 217.812 96.228C217.746 95.2573 217.715 94.2993 217.715 93.3572C217.715 92.4151 217.715 91.4586 217.715 90.4863C217.779 88.5432 217.843 86.5842 217.908 84.6109C217.977 82.6344 218.012 80.642 218.012 78.6336C218.012 72.1328 218.012 65.5253 218.012 58.8113C218.012 52.094 217.945 45.4229 217.812 38.7979C217.812 36.5541 218.143 35.125 218.805 34.5139C219.393 33.9712 220.181 33.6991 221.171 33.6991C222.159 33.6991 223.016 33.7293 223.744 33.7882C224.861 33.7882 225.961 33.7882 227.048 33.7882C228.137 33.7882 229.208 33.8185 230.262 33.8773C232.367 33.941 234.473 33.9728 236.58 33.9728C238.686 33.9728 240.76 33.9728 242.802 33.9728C246.292 33.9728 249.765 33.9585 253.224 33.9283C256.681 33.8948 260.121 33.8487 263.543 33.7882H266.412Z" fill="#435058"/>
<path d="M286.265 100.06C285.8 100.604 285.141 100.907 284.286 100.97C283.43 101.031 282.542 101.122 281.623 101.244C280.763 101.305 279.756 101.362 278.602 101.422C277.452 101.486 276.367 101.381 275.346 101.11C274.326 100.835 273.553 100.27 273.029 99.4172C272.237 98.0804 271.775 96.6084 271.642 94.9995C271.515 93.3874 271.548 91.7467 271.746 90.0789C271.943 88.408 272.043 86.842 272.043 85.3811C272.106 82.5262 272.155 79.684 272.187 76.8576C272.218 74.0313 272.27 71.1907 272.339 68.3342C272.403 62.6815 272.418 57.0162 272.387 51.3381C272.355 45.6568 272.272 39.9883 272.139 34.3357C272.139 32.7538 272.499 31.6144 273.222 30.9174C273.948 30.2171 274.902 29.8082 276.084 29.6888C277.271 29.5663 278.556 29.5965 279.94 29.7779C281.323 29.9609 282.641 30.1121 283.893 30.2299C285.275 30.354 286.183 31.0383 286.61 32.286C287.038 33.5304 287.234 34.8672 287.203 36.2963C287.171 37.7222 287.121 38.8616 287.052 39.7146C286.922 42.5075 286.839 45.3322 286.803 48.1871C286.771 51.0437 286.755 53.9018 286.755 56.7616C286.755 63.6873 286.755 70.6162 286.755 77.5451C286.755 84.4709 286.755 91.3966 286.755 98.3223C286.755 99.0528 286.591 99.632 286.265 100.06Z" fill="#848C8E"/>
<path d="M335.745 99.0543C335.22 99.6622 334.396 99.9964 333.275 100.06C332.222 100.06 331.201 99.8627 330.213 99.4681C329.228 99.0702 328.257 98.6724 327.302 98.2777C326.345 97.883 325.309 97.6857 324.191 97.6857C323.469 97.6857 322.744 97.7334 322.018 97.8257C321.291 97.9149 320.634 98.0215 320.046 98.144L319.549 98.2331C317.64 98.5387 315.78 98.9365 313.969 99.4235C312.157 99.9073 310.46 100.391 308.879 100.875C308.156 101.058 307.416 101.211 306.658 101.333C305.902 101.456 305.13 101.518 304.34 101.518C299.529 101.518 295.478 99.7545 292.187 96.228C288.434 92.2782 286.955 87.4165 287.745 81.6445C288.076 79.337 288.946 77.2713 290.359 75.4508C291.774 73.6271 293.569 72.2266 295.746 71.2495C296.863 70.7657 298.046 70.4188 299.298 70.2056C300.548 69.9939 301.833 69.7966 303.154 69.6136C303.48 69.6136 303.774 69.5992 304.037 69.569C304.302 69.5356 304.568 69.4894 304.83 69.429L317.77 67.7866C319.484 67.5448 320.556 67.0769 320.984 66.3799C321.411 65.6796 321.656 65.1163 321.722 64.6866C321.855 63.6554 321.51 62.7165 320.687 61.8667C319.863 61.0137 318.89 60.4344 317.77 60.1289C315.728 59.4032 313.621 59.0404 311.451 59.0404H311.155C309.113 59.1008 307.17 59.3746 305.326 59.8615C303.481 60.3453 301.705 60.9214 299.995 61.5866C299.465 61.8333 298.839 61.9558 298.118 61.9558C296.67 61.9558 295.237 61.515 293.821 60.6318C292.404 59.7501 291.4 58.7014 290.807 57.4872C290.545 57.0034 290.429 56.5944 290.462 56.2586C290.493 55.9244 290.541 55.665 290.607 55.482C291.002 54.6927 291.774 53.9797 292.925 53.3432C294.078 52.7034 295.297 52.156 296.58 51.7009C297.867 51.2425 298.939 50.8924 299.795 50.6505C304.535 49.2549 309.308 48.5563 314.114 48.5563C314.578 48.5563 315.04 48.5563 315.5 48.5563C315.959 48.5563 316.419 48.5865 316.88 48.6454C319.187 48.7695 321.739 49.1801 324.536 49.8803C327.336 50.5773 329.723 51.8966 331.696 53.8397C334.003 56.1488 335.388 58.4595 335.848 60.7718C336.372 63.3817 336.552 66.0998 336.386 68.9261C336.224 71.7524 336.176 74.5023 336.241 77.1759C336.241 79.913 336.241 82.6662 336.241 85.432C336.241 88.1946 336.272 90.9127 336.338 93.5863C336.338 94.4997 336.386 95.4705 336.483 96.5017C336.583 97.5329 336.338 98.3843 335.745 99.0543ZM321.425 83.3759C321.953 82.4052 322.118 81.5856 321.922 80.9188C321.724 80.2488 321.525 79.7921 321.329 79.5502C321.061 79.1858 320.648 78.8357 320.087 78.4999C319.53 78.1657 318.758 77.9684 317.77 77.9079L316.983 77.8124C316.39 77.7535 315.78 77.7233 315.155 77.7233C314.529 77.7233 313.853 77.7233 313.127 77.7233C312.01 77.7233 310.66 77.8299 309.079 78.0416C307.496 78.2548 305.982 78.8166 304.533 79.7284C303.549 80.4589 302.923 81.218 302.657 82.0073C302.395 82.6789 302.362 83.5287 302.56 84.5599C303.019 86.4441 303.907 87.905 305.223 88.9394C306.542 89.9706 308.123 90.4863 309.968 90.4863C312.272 90.4863 314.543 89.7892 316.783 88.392C319.021 86.9916 320.57 85.3206 321.425 83.3759Z" fill="#848C8E"/>
<path d="M387.211 100.875C385.495 100.816 383.764 100.802 382.017 100.83C380.274 100.861 378.515 100.875 376.741 100.875C376.344 100.875 376.03 100.238 375.796 98.9653C375.564 97.689 375.418 96.0164 375.354 93.9492C375.289 91.8836 375.258 89.6509 375.258 87.2527C375.258 84.8512 375.289 82.5262 375.354 80.276C375.418 78.0274 375.466 76.0843 375.499 74.4451C375.535 72.8028 375.554 71.7382 375.554 71.2496C375.485 67.8472 374.907 65.2644 373.823 63.5027C372.736 61.7426 371.388 60.5284 369.774 59.8616C368.16 59.1916 366.563 58.8559 364.987 58.8559H364.787C361.035 58.8559 357.988 60.0271 355.648 62.3697C353.311 64.709 352.077 67.7597 351.944 71.5233C351.878 73.955 351.847 76.3866 351.847 78.8183C351.847 81.2499 351.847 83.6816 351.847 86.1132C351.911 87.9942 352.09 90.0726 352.385 92.3515C352.684 94.6303 352.635 96.7119 352.24 98.5961C351.978 99.9965 351.368 100.744 350.413 100.837C349.461 100.926 348.392 101.001 347.205 101.06C346.414 101.12 345.377 101.196 344.094 101.289C342.811 101.378 341.56 101.332 340.342 101.149C339.123 100.967 338.218 100.512 337.625 99.7865C336.897 98.8109 336.635 97.6397 336.831 96.2727C337.028 94.9072 337.162 93.7073 337.231 92.6761C337.493 89.3326 337.69 85.9286 337.825 82.4658C338.018 75.9013 337.819 69.3686 337.231 62.8662C337.097 61.5899 336.997 60.1003 336.928 58.3975C336.862 56.6963 337.012 55.0715 337.376 53.5215C337.738 51.9731 338.463 50.7589 339.549 49.8804C340.634 48.9988 342.263 48.7394 344.439 49.1038C346.219 49.4062 347.964 49.7849 349.675 50.2433C351.385 50.6984 353.13 51.0771 354.91 51.3827C355.043 51.3827 355.189 51.3827 355.351 51.3827C355.517 51.3827 355.631 51.3827 355.696 51.3827C356.951 51.3827 358.203 51.1567 359.455 50.7016C360.705 50.2433 361.988 49.7722 363.304 49.2884C364.618 48.8015 365.935 48.5246 367.256 48.4609C371.072 48.1601 374.694 48.7696 378.12 50.2878C381.081 51.5657 383.369 53.2383 384.983 55.3039C386.597 57.3663 387.765 59.6452 388.487 62.1405C389.213 64.6326 389.675 67.2139 389.873 69.8874C390.07 72.5609 390.236 75.2026 390.37 77.8125C390.37 78.36 390.434 79.4851 390.563 81.1863C390.696 82.8891 390.779 84.8497 390.811 87.0681C390.843 89.288 390.793 91.446 390.66 93.5418C390.53 95.6393 390.218 97.385 389.722 98.7807C389.229 100.178 388.489 100.875 387.501 100.875C387.435 100.875 387.387 100.875 387.356 100.875C387.323 100.875 387.275 100.875 387.211 100.875Z" fill="#848C8E"/>
<path d="M440.742 54.298C441.992 55.5759 442.387 56.9429 441.928 58.3974C441.73 59.069 441.383 59.6928 440.887 60.2689C440.394 60.8466 439.883 61.4084 439.355 61.9558C439.028 62.2582 438.7 62.5605 438.369 62.8661C438.041 63.1716 437.714 63.4756 437.383 63.7763C436.859 64.3238 436.15 64.5068 435.258 64.3238C434.37 64.1424 433.48 63.8384 432.589 63.4135C431.701 62.9902 430.928 62.6862 430.271 62.5032C428.823 62.0163 427.39 61.5898 425.974 61.2237C424.557 60.8593 423.093 60.5856 421.58 60.4026C421.249 60.3437 420.934 60.3135 420.636 60.3135C420.341 60.3135 420.03 60.3135 419.704 60.3135C416.476 60.3135 413.593 61.211 411.055 63.0061C408.52 64.798 406.794 67.1819 405.875 70.161C404.885 73.382 404.985 76.5425 406.171 79.6393C407.358 82.7378 409.399 85.2283 412.296 87.1125C414.535 88.5097 417.432 89.2068 420.987 89.2068C425.529 89.2068 429.183 88.2058 431.948 86.2022C433.267 85.2315 434.37 84.6092 435.258 84.3371C436.15 84.0618 437.221 84.622 438.473 86.0176C439.13 86.6255 439.771 87.278 440.397 87.9782C441.021 88.6784 441.632 89.3946 442.225 90.1234C443.015 91.0958 443.146 92.0379 442.618 92.9497C442.089 93.8584 441.199 94.7098 439.949 95.5023C438.697 96.2916 437.397 96.9759 436.045 97.552C434.696 98.1297 433.662 98.5689 432.941 98.8697C428.921 100.636 424.707 101.518 420.298 101.518C415.952 101.518 411.802 100.652 407.847 98.9206C403.897 97.186 400.374 94.7384 397.28 91.5811C394.646 88.7262 392.901 85.7789 392.045 82.7394C391.19 79.7014 390.911 76.7239 391.204 73.8085C391.502 70.8899 392.047 68.245 392.838 65.877C394.549 61.0137 397.33 57.1243 401.184 54.2089C405.037 51.2903 409.827 49.4968 415.552 48.83C417.464 48.6486 419.244 48.5563 420.891 48.5563C421.81 48.5563 423.157 48.6629 424.933 48.8746C426.712 49.0878 428.623 49.422 430.665 49.8803C432.706 50.3354 434.648 50.9274 436.493 51.6563C438.336 52.382 439.752 53.2636 440.742 54.298Z" fill="#848C8E"/>
<path d="M498.526 78.1817C497.735 78.7896 496.564 79.1986 495.015 79.4102C493.47 79.6235 491.823 79.7285 490.077 79.7285C488.333 79.7285 486.704 79.6999 485.186 79.6394C483.672 79.5805 482.52 79.5503 481.731 79.5503C478.304 79.6108 474.912 79.6553 471.557 79.684C468.199 79.7142 464.808 79.7285 461.383 79.7285C460.329 79.7285 459.653 80.0341 459.355 80.6452C459.06 81.2531 459.027 81.9358 459.258 82.6949C459.488 83.4556 459.8 84.1064 460.197 84.6491C461.579 86.2914 463.309 87.6155 465.383 88.6212C467.456 89.6238 469.613 90.2444 471.853 90.4863C474.354 90.7282 476.444 90.4099 478.123 89.5315C479.806 88.6499 481.7 87.7221 483.807 86.7497C484.795 86.2628 485.469 85.9588 485.828 85.8395C486.19 85.7169 486.8 85.989 487.656 86.6543C488.58 87.3258 489.452 88.2377 490.277 89.3914C491.099 90.5468 491.906 91.5494 492.698 92.4024C493.553 93.4336 493.519 94.4059 492.594 95.3178C491.673 96.2312 490.258 97.0667 488.345 97.8258C486.436 98.5865 484.362 99.239 482.124 99.7864C479.889 100.331 477.865 100.754 476.054 101.06C474.242 101.365 473.007 101.518 472.35 101.518C467.936 101.518 463.868 100.714 460.148 99.1053C456.427 97.4932 453.251 95.3051 450.616 92.5424C447.984 89.7766 446.01 86.6606 444.691 83.1977C443.375 79.7317 442.866 76.0986 443.16 72.2999C443.458 68.5028 444.725 64.8108 446.96 61.2238C448.674 58.4277 450.964 56.0582 453.83 54.1135C456.694 52.1704 459.853 50.727 463.307 49.7849C466.765 48.8428 470.303 48.4195 473.923 48.5118C477.546 48.6009 480.987 49.2693 484.248 50.5169C487.507 51.7614 490.356 53.6281 492.794 56.1186C493.912 57.274 494.981 58.719 496.002 60.4536C497.022 62.185 497.893 64.0549 498.616 66.0616C499.342 68.0652 499.788 70.0242 499.954 71.9371C500.119 73.8515 499.906 75.5973 499.312 77.1759C499.178 77.5419 498.916 77.8761 498.526 78.1817ZM483.607 68.697C483.803 68.2737 483.871 67.8185 483.807 67.3348C483.741 66.6059 483.379 65.9057 482.717 65.2341C480.941 62.9266 478.637 61.227 475.806 60.1353C472.972 59.0404 470.076 59.1009 467.115 60.3135C465.794 60.861 464.557 61.5612 463.404 62.4142C462.254 63.264 461.185 64.1743 460.197 65.145C459.934 65.3869 459.672 65.6606 459.41 65.9662C459.148 66.2685 458.95 66.6011 458.817 66.9656C458.555 67.696 458.686 68.366 459.21 68.9771C459.738 69.585 460.398 69.8873 461.19 69.8873H481.337C482.455 69.8873 483.21 69.4911 483.607 68.697Z" fill="#848C8E"/>
<mask id="mask0_3_4" style="mask-type:luminance" maskUnits="userSpaceOnUse" x="505" y="75" width="28" height="26">
<path d="M505.78 75.3619H532.532V100.051H505.78V75.3619Z" fill="white"/>
</mask>
<g mask="url(#mask0_3_4)">
<mask id="mask1_3_4" style="mask-type:luminance" maskUnits="userSpaceOnUse" x="505" y="75" width="28" height="26">
<path d="M519.156 75.3619C511.769 75.3619 505.78 80.8888 505.78 87.7064C505.78 94.5239 511.769 100.051 519.156 100.051C526.543 100.051 532.532 94.5239 532.532 87.7064C532.532 80.8888 526.543 75.3619 519.156 75.3619Z" fill="white"/>
</mask>
<g mask="url(#mask1_3_4)">
<mask id="mask2_3_4" style="mask-type:luminance" maskUnits="userSpaceOnUse" x="505" y="74" width="28" height="27">
<path d="M532.92 74.9609H505.55V100.219H532.92V74.9609Z" fill="white"/>
</mask>
<g mask="url(#mask2_3_4)">
<mask id="mask3_3_4" style="mask-type:luminance" maskUnits="userSpaceOnUse" x="505" y="75" width="28" height="26">
<path d="M505.78 75.3619H532.532V100.051H505.78V75.3619Z" fill="white"/>
</mask>
<g mask="url(#mask3_3_4)">
<mask id="mask4_3_4" style="mask-type:luminance" maskUnits="userSpaceOnUse" x="505" y="75" width="28" height="26">
<path d="M519.156 75.3619C511.768 75.3619 505.78 80.8888 505.78 87.7064C505.78 94.5239 511.768 100.051 519.156 100.051C526.543 100.051 532.532 94.5239 532.532 87.7064C532.532 80.8888 526.543 75.3619 519.156 75.3619Z" fill="white"/>
</mask>
<g mask="url(#mask4_3_4)">
<path d="M505.78 75.3619H532.532V100.051H505.78V75.3619Z" fill="#DCF763"/>
</g>
</g>
</g>
</g>
</g>
<path d="M38.657 136.188V174.518H34.0981V136.188H38.657Z" fill="#435058"/>
<path d="M47.3629 174.518H43.2663V136.188H49.0646L58.5184 163.887V136.188H62.552V174.518H57.8251L47.3629 143.531V174.518Z" fill="#435058"/>
<path d="M76.8046 136.188C79.9979 136.188 82.3404 137.044 83.8425 138.747C85.3551 140.44 86.1114 142.763 86.1114 145.716V165.049C86.1114 168.002 85.3551 170.32 83.8425 171.998C82.3404 173.681 79.9979 174.518 76.8046 174.518H67.2248V136.188H76.8046ZM76.7626 170.64C78.3855 170.64 79.5988 170.177 80.3971 169.242C81.1954 168.312 81.5946 166.968 81.5946 165.206V145.5C81.5946 143.757 81.1954 142.419 80.3971 141.483C79.5988 140.553 78.3645 140.086 76.6996 140.086H71.7836V170.64H76.7626Z" fill="#435058"/>
<path d="M104.919 153.158V156.997H94.9194V170.64H107.188V174.518H90.3606V136.188H107.188V140.086H94.9194V153.158H104.919Z" fill="#435058"/>
<path d="M120.343 136.188C123.579 136.188 125.911 137.024 127.339 138.688C128.778 140.342 129.503 142.635 129.503 145.559V150.146C129.503 153.217 128.731 155.53 127.192 157.075C125.664 158.626 123.263 159.398 119.986 159.398H115.953V174.518H111.394V136.188H120.343ZM119.986 155.579C121.693 155.579 122.954 155.185 123.768 154.398C124.592 153.611 125.007 152.287 125.007 150.421V145.342C125.007 143.585 124.639 142.271 123.915 141.405C123.2 140.529 122.008 140.086 120.343 140.086H115.953V155.579H119.986Z" fill="#435058"/>
<path d="M147.803 153.158V156.997H137.803V170.64H150.072V174.518H133.244V136.188H150.072V140.086H137.803V153.158H147.803Z" fill="#435058"/>
<path d="M158.311 174.518H154.214V136.188H160.012L169.466 163.887V136.188H173.5V174.518H168.773L158.311 143.531V174.518Z" fill="#435058"/>
<path d="M187.752 136.188C190.946 136.188 193.288 137.044 194.79 138.747C196.303 140.44 197.059 142.763 197.059 145.716V165.049C197.059 168.002 196.303 170.32 194.79 171.998C193.288 173.681 190.946 174.518 187.752 174.518H178.173V136.188H187.752ZM187.71 170.64C189.333 170.64 190.547 170.177 191.345 169.242C192.143 168.312 192.542 166.968 192.542 165.206V145.5C192.542 143.757 192.143 142.419 191.345 141.483C190.547 140.553 189.312 140.086 187.647 140.086H182.731V170.64H187.71Z" fill="#435058"/>
<path d="M215.867 153.158V156.997H205.867V170.64H218.136V174.518H201.309V136.188H218.136V140.086H205.867V153.158H215.867Z" fill="#435058"/>
<path d="M226.375 174.518H222.278V136.188H228.077L237.53 163.887V136.188H241.564V174.518H236.837L226.375 143.531V174.518Z" fill="#435058"/>
<path d="M252.203 174.518V140.086H244.661V136.188H264.304V140.086H256.762V174.518H252.203Z" fill="#435058"/>
<path d="M268.012 164.567V173.388H261.429V164.567H268.012Z" fill="black"/>
<path d="M285.015 136.727C288.235 136.727 290.598 137.603 292.113 139.344C293.638 141.075 294.401 143.45 294.401 146.469V166.235C294.401 169.254 293.638 171.624 292.113 173.34C290.598 175.06 288.235 175.916 285.015 175.916H275.353V136.727H285.015ZM284.972 171.951C286.609 171.951 287.833 171.478 288.638 170.522C289.443 169.571 289.846 168.197 289.846 166.396V146.248C289.846 144.467 289.443 143.098 288.638 142.142C287.833 141.191 286.588 140.713 284.909 140.713H279.951V171.951H284.972Z" fill="#BFB7B6"/>
<path d="M303.348 168.026L301.759 175.916H297.521L305.403 136.727H312.077L319.959 175.916H315.362L313.772 168.026H303.348ZM303.941 164.282H313.137L308.475 141.659L303.941 164.282Z" fill="#BFB7B6"/>
<path d="M332.748 136.727C336.011 136.727 338.352 137.492 339.782 139.022C341.223 140.552 341.944 142.776 341.944 145.684V148.885C341.944 151.048 341.525 152.799 340.693 154.138C339.872 155.481 338.58 156.412 336.816 156.936C338.691 157.459 340.026 158.425 340.821 159.834C341.61 161.233 342.007 162.989 342.007 165.107V171.206C342.007 172.066 342.039 172.897 342.113 173.702C342.198 174.507 342.436 175.247 342.833 175.916H338.172C337.886 175.352 337.69 174.748 337.579 174.104C337.462 173.45 337.409 172.469 337.409 171.166V165.007C337.409 162.808 336.885 161.283 335.841 160.438C334.793 159.592 333.309 159.17 331.392 159.17H328.15V175.916H323.552V136.727H332.748ZM331.561 155.205C333.41 155.205 334.846 154.842 335.863 154.118C336.89 153.393 337.409 151.964 337.409 149.831V146.087C337.409 144.29 337.039 142.947 336.308 142.061C335.587 141.166 334.364 140.713 332.642 140.713H328.15V155.205H331.561Z" fill="#BFB7B6"/>
<path d="M359.969 175.916H355.838V136.727H361.686L371.22 165.047V136.727H375.288V175.916H370.521L359.969 144.235V175.916Z" fill="#BFB7B6"/>
<path d="M384.366 166.677C384.366 168.479 384.747 169.873 385.51 170.864C386.273 171.845 387.502 172.333 389.197 172.333C390.849 172.333 392.057 171.845 392.82 170.864C393.583 169.873 393.964 168.479 393.964 166.677V136.727H398.265V166.456C398.265 169.435 397.513 171.83 396.019 173.641C394.536 175.453 392.205 176.359 389.027 176.359C385.876 176.359 383.55 175.453 382.056 173.641C380.573 171.83 379.832 169.435 379.832 166.456V136.727H384.366V166.677Z" fill="#BFB7B6"/>
<path d="M420.604 136.345C423.75 136.345 426.07 137.231 427.553 139.002C429.047 140.773 429.799 143.158 429.799 146.147V147.194H425.435V145.906C425.435 144.124 425.058 142.745 424.312 141.779C423.559 140.803 422.368 140.31 420.731 140.31C419.078 140.31 417.876 140.803 417.129 141.779C416.377 142.745 416.006 144.109 416.006 145.865C416.006 147.314 416.345 148.582 417.023 149.669C417.712 150.746 418.57 151.743 419.587 152.668C420.614 153.584 421.732 154.475 422.934 155.345C424.131 156.221 425.244 157.177 426.261 158.224C427.278 159.27 428.131 160.458 428.825 161.786C429.513 163.115 429.863 164.695 429.863 166.516C429.863 169.495 429.105 171.87 427.596 173.641C426.081 175.413 423.729 176.298 420.54 176.298C417.362 176.298 415.021 175.413 413.527 173.641C412.044 171.87 411.302 169.495 411.302 166.516V164.282H415.603V166.738C415.603 168.524 415.99 169.908 416.769 170.884C417.558 171.85 418.782 172.333 420.434 172.333C422.087 172.333 423.3 171.85 424.079 170.884C424.868 169.908 425.265 168.524 425.265 166.738C425.265 165.278 424.915 164.015 424.227 162.954C423.533 161.897 422.68 160.911 421.663 159.995C420.646 159.084 419.544 158.193 418.358 157.318C417.182 156.432 416.08 155.466 415.052 154.419C414.035 153.373 413.177 152.195 412.489 150.877C411.811 149.549 411.472 147.974 411.472 146.147C411.472 143.118 412.213 140.728 413.696 138.982C415.19 137.225 417.494 136.345 420.604 136.345Z" fill="#BFB7B6"/>
<path d="M438.455 136.727V175.916H433.857V136.727H438.455Z" fill="#BFB7B6"/>
<path d="M447.235 175.916H443.104V136.727H448.952L458.486 165.047V136.727H462.554V175.916H457.787L447.235 144.235V175.916Z" fill="#BFB7B6"/>
<path d="M476.166 136.345C479.344 136.345 481.686 137.246 483.2 139.042C484.726 140.828 485.489 143.208 485.489 146.187V149.549H481.124V145.966C481.124 144.185 480.732 142.796 479.959 141.799C479.196 140.808 477.972 140.31 476.293 140.31C474.641 140.31 473.417 140.808 472.628 141.799C471.849 142.796 471.462 144.185 471.462 145.966V166.677C471.462 168.479 471.849 169.872 472.628 170.864C473.417 171.845 474.641 172.333 476.293 172.333C477.972 172.333 479.196 171.845 479.959 170.864C480.732 169.872 481.124 168.479 481.124 166.677V158.848H476.886V154.923H485.489V166.456C485.489 169.435 484.726 171.825 483.2 173.621C481.686 175.408 479.344 176.298 476.166 176.298C473.03 176.298 470.705 175.408 469.195 173.621C467.68 171.825 466.928 169.435 466.928 166.456V146.187C466.928 144.698 467.108 143.349 467.479 142.142C467.844 140.924 468.411 139.882 469.174 139.022C469.947 138.166 470.917 137.507 472.077 137.049C473.232 136.581 474.598 136.345 476.166 136.345Z" fill="#BFB7B6"/>
<path d="M494.2 166.677C494.2 168.479 494.581 169.873 495.344 170.864C496.106 171.845 497.335 172.333 499.03 172.333C500.683 172.333 501.891 171.845 502.654 170.864C503.416 169.873 503.798 168.479 503.798 166.677V136.727H508.099V166.456C508.099 169.435 507.347 171.83 505.853 173.641C504.37 175.453 502.039 176.359 498.861 176.359C495.709 176.359 493.384 175.453 491.89 173.641C490.407 171.83 489.665 169.435 489.665 166.456V136.727H494.2V166.677Z" fill="#BFB7B6"/>
<path d="M521.834 136.727C525.097 136.727 527.438 137.492 528.868 139.022C530.309 140.552 531.029 142.776 531.029 145.684V148.885C531.029 151.048 530.611 152.799 529.779 154.138C528.958 155.481 527.666 156.412 525.902 156.936C527.777 157.459 529.112 158.425 529.906 159.834C530.696 161.233 531.093 162.989 531.093 165.107V171.206C531.093 172.066 531.125 172.897 531.199 173.702C531.284 174.507 531.522 175.247 531.919 175.916H527.258C526.972 175.352 526.776 174.748 526.665 174.104C526.548 173.45 526.495 172.469 526.495 171.166V165.007C526.495 162.808 525.971 161.283 524.927 160.438C523.878 159.592 522.395 159.17 520.478 159.17H517.236V175.916H512.638V136.727H521.834ZM520.647 155.205C522.496 155.205 523.931 154.842 524.948 154.118C525.976 153.393 526.495 151.964 526.495 149.831V146.087C526.495 144.29 526.124 142.947 525.393 142.061C524.673 141.166 523.449 140.713 521.728 140.713H517.236V155.205H520.647Z" fill="#BFB7B6"/>
<path d="M540.298 170.481V175.916H535.87V170.481H540.298Z" fill="black"/>
<mask id="mask5_3_4" style="mask-type:luminance" maskUnits="userSpaceOnUse" x="0" y="0" width="113" height="131">
<path d="M0 0H112.225V130.287H0V0Z" fill="white"/>
</mask>
<g mask="url(#mask5_3_4)">
<path fill-rule="evenodd" clip-rule="evenodd" d="M65.2801 130.136L65.4405 130.324H65.9267C65.6836 130.249 65.4818 130.211 65.2801 130.136ZM72.3535 0.843407L65.9664 0.991406L62.6521 2.03695L61.5209 1.29059L58.8533 2.52073L62.2072 3.0809L68.553 2.78172L72.3535 0.843407ZM70.8981 6.25095C72.1518 5.1704 73.4451 4.16305 74.8194 3.2671L66.613 3.71428L63.1367 6.84932L70.8981 6.25095ZM51.0505 7.11031L55.9425 3.90206L57.7618 4.68503L62.8539 4.61023L58.286 7.66888L54.163 8.34045L51.0505 7.11031ZM44.3409 4.16305L39.7747 7.07211L46.079 5.76717L49.5554 6.73633L54.4475 3.64107L49.1519 3.49148L44.3409 4.16305ZM35.4482 5.84197L35.3672 6.62493L32.903 6.69973C32.3771 6.96072 31.8511 7.25831 31.3666 7.55749C30.113 8.30385 28.9404 9.16161 27.8488 10.0942L35.6913 8.26566L39.8144 5.3184L35.4482 5.84197ZM55.1735 128.942L56.5478 129.017L56.7099 128.271L58.8533 129.055H61.5606C59.5793 127.973 57.8014 126.555 56.184 124.951L51.6178 125.847L55.1735 128.942ZM42.2388 128.309L43.4528 128.384L52.0627 128.793L48.4242 126.369L43.7356 126.519L39.4505 125.884L42.2388 128.309ZM30.9614 127.451L32.215 127.599L32.4167 127.227L35.6913 127.935L38.6418 128.085L35.6103 124.915L26.7987 123.832L30.9614 127.451ZM19.6839 124.504L21.2203 125.362L24.05 125.511L24.0897 126.519L26.7987 126.891L23.7276 123.907L19.6839 124.504ZM53.6388 121.967C52.5869 120.549 51.6178 119.057 50.7677 117.527L43.4925 119.728L46.4843 123.683L53.6388 121.967ZM34.9637 123.086L32.1753 119.02L36.2569 120.4L40.8248 120.363L44.2202 124.579L39.0867 124.429L34.9637 123.086ZM21.3824 121.258L19.0786 116.783L24.05 116.184L28.8197 117.938L32.2564 122.601L26.071 120.849L21.3824 121.258ZM11.9638 118.051L14.7125 121.035L17.9871 120.922L17.7043 122.228L19.5632 121.818L16.492 117.266L11.9638 118.051ZM48.7881 113.461C48.5053 112.828 48.2225 112.156 47.9793 111.521C47.4948 110.253 47.0499 108.985 46.6446 107.68L40.3403 109.917L43.0476 115.327L48.7881 113.461ZM29.7095 115.551L27.8092 109.695L32.822 111.746L38.1572 110.589L41.0266 116.259L36.2569 117.491L29.7095 115.551ZM19.8873 106.486L16.0868 107.12L18.3509 112.79L21.9083 112.753L27.4057 114.879L25.0605 108.799L19.8873 106.486ZM6.6682 109.359L8.97371 113.91L13.3795 113.2L12.7725 114.357L16.0471 113.835L13.3381 107.716L6.6682 109.359ZM45.3927 103.054C44.7858 100.555 44.3409 98.0185 43.977 95.4437L34.924 99.0259L36.9036 106.076L45.3927 103.054ZM25.4244 104.957L24.0104 98.0185L29.7491 100.891L32.6185 99.9203L34.6412 106.934L31.8511 107.904L25.4244 104.957ZM12.5708 102.42L10.8326 95.7047L16.8955 93.9143L21.7462 97.2722L23.4034 104.658L17.9871 101.563L12.5708 102.42ZM3.11252 98.2795L3.07113 98.3161L4.72827 104.247L8.32706 103.464L8.40638 103.838L9.74106 103.389L8.00288 96.6754L3.11252 98.2795ZM43.3304 89.7369C43.1286 87.0889 43.0079 84.4026 43.0079 81.6797L35.8534 84.775L36.7018 92.7208L43.3304 89.7369ZM23.6051 93.3558L23.4034 85.2238L27.6471 87.6856L33.1444 85.8953L33.9532 93.8395L28.699 95.9672L23.6051 93.3558ZM11.681 90.1841L10.9136 81.7911L15.723 80.0756L21.0582 83.731L21.3824 92.2354L16.0868 88.693L11.681 90.1841ZM3.19356 84.8498L1.1312 86.1929L2.10203 92.5712L4.97141 91.5273L5.17316 92.7956L9.57897 91.1167L8.77023 82.7985L3.19356 84.8498ZM43.1286 76.4568C43.2493 73.3233 43.5339 70.1533 43.896 67.0198L33.9532 70.8614L33.71 79.8894L43.1286 76.4568ZM22.1101 79.2178L22.9999 70.1151L27.2022 73.5477L31.2459 71.8306L31.0027 81.1943L27.7695 82.6871L22.1101 79.2178ZM8.52881 78.0975L9.33755 69.1459L16.2489 65.8995L20.8978 69.4069L20.0891 78.2471L15.4402 75.225L8.52881 78.0975ZM4.20405 71.3468V71.4216L1.33295 72.69L1.05015 79.5154C1.17258 79.5154 1.2519 79.4788 1.37434 79.4788C1.6968 79.4406 2.02098 79.3658 2.30378 79.3658C2.78833 79.3292 3.31427 79.2926 3.55741 79.7398C3.59707 79.7764 3.59707 79.8146 3.63673 79.8146L6.58888 78.6211L7.27519 70.0403L4.20405 71.3468ZM44.503 62.3555C44.9875 59.1854 45.5945 56.0138 46.3222 52.8803L38.5211 55.9024L37.2674 64.9669L44.503 62.3555ZM23.8879 65.1913L25.464 56.3129L29.3853 59.335L35.6913 56.9479L34.3567 65.9377L28.2127 68.3614L23.8879 65.1913ZM13.5002 61.9465L14.6728 53.5901L18.7148 51.725L23.7276 55.2308L22.029 64.0344L17.1387 60.4903L13.5002 61.9465ZM2.82972 58.5886C2.82972 58.6252 2.82972 58.7 2.78833 58.7382C2.74867 59.074 2.66763 59.4098 2.62624 59.7074C2.50553 60.6399 2.34344 61.5725 2.22273 62.505C2.06064 63.662 1.89855 64.8555 1.73818 66.0125L3.47636 66.0857L10.3067 63.2148L11.8431 54.5592L2.82972 58.5886ZM47.5758 47.9565C48.3432 45.1589 49.233 42.3246 50.2021 39.5636V39.5269L39.8954 43.2572L38.2779 50.6062L47.5758 47.9565ZM26.1917 50.1208L28.78 42.175L32.296 44.8979L36.6622 44.0035L34.5998 51.8364L30.7199 53.5519L26.1917 50.1208ZM20.3305 46.2776L14.7125 48.5915L17.3801 40.2717L23.3223 37.8846L27.3246 40.7953L24.5346 49.1501L20.3305 46.2776ZM11.3171 42.958L10.267 43.3686L9.33755 43.741C8.85127 43.9287 8.36672 44.1515 7.88217 44.3393C7.47694 44.5255 7.07343 44.6735 6.6682 44.8979C6.54749 44.9727 6.34574 45.0475 6.22503 45.1223C6.22503 45.1971 6.18365 45.2337 6.18365 45.2719C6.1026 45.6061 6.02156 45.9052 5.90085 46.241C5.65771 47.1736 5.37491 48.0695 5.1335 49.0021C4.80931 50.1956 4.44547 51.351 4.12301 52.5445L4.40581 52.6575L10.9533 50.0094L13.6209 42.0636L11.3171 42.958ZM52.3851 33.8934C53.437 31.3201 54.6079 28.7835 55.9012 26.2834L47.8172 28.8201L44.9479 36.2805L52.3851 33.8934ZM30.7596 36.8773L34.3981 29.342L38.1572 31.9535L44.7047 29.7526L41.5525 37.2131L34.8826 39.7879L30.7596 36.8773ZM21.0582 34.7146L24.2932 27.7379L28.9404 25.9476L32.9427 28.5225L29.3456 36.0577L25.3433 33.0357L21.0582 34.7146ZM15.4815 30.6486L15.6022 30.9096L14.4297 31.2072C13.8641 31.3567 11.8431 31.9169 11.2775 32.2527C11.2361 32.3641 11.1964 32.4755 11.1154 32.5503C10.9947 32.8495 10.8723 33.1471 10.7119 33.4462C10.348 34.2658 10.0239 35.087 9.66001 35.9081C9.17546 37.0651 8.69091 38.2204 8.20463 39.414L8.24601 39.4888L17.9457 35.7585L21.3824 28.6705L15.4815 30.6486ZM57.8428 22.7394C58.6498 21.3596 59.4586 19.9799 60.3483 18.6368C60.8329 17.8904 61.3175 17.144 61.8848 16.3977L52.4662 18.301L48.3828 25.0898L57.8428 22.7394ZM36.4587 24.4183L40.6628 18.4124L43.6942 20.3523L48.2225 19.4563L44.0581 25.9476L40.0161 27.1045L36.4587 24.4183ZM31.7304 21.471L25.0605 23.8963L29.1439 17.5546L35.8931 15.5781L39.3695 17.6294L35.0844 23.8215L31.7304 21.471ZM21.0185 20.3523L21.0582 20.6133L20.0891 20.7995C19.6442 20.8742 18.3095 21.1734 17.7853 21.4344C17.7439 21.5092 17.6629 21.6206 17.6232 21.6954C17.4611 21.9564 17.299 22.2174 17.1387 22.4784C16.6938 23.2247 16.2092 23.9329 15.7643 24.6793C15.1574 25.65 14.5107 26.6192 13.8641 27.5899V27.6265L21.2617 24.9784L25.2226 19.1587L21.0185 20.3523ZM64.1075 13.4138C65.4818 11.6983 66.9372 10.0194 68.553 8.41525L61.7623 9.3844L57.5583 14.496L64.1075 13.4138ZM47.0085 16.6221L43.3718 14.6455L48.2621 9.90797L50.8901 11.2877L58.1653 10.0194L53.9216 14.7935L47.0085 16.6221ZM39.2884 12.3699L34.7619 13.452L38.6021 9.49739L44.1391 7.81848L47.0499 9.3112L42.0371 14.1602L39.2884 12.3699ZM27.4867 11.6235L27.4453 12.4065L26.678 12.5926C26.2331 12.7056 24.9398 13.0032 24.576 13.2276C24.3328 13.452 24.05 13.7496 23.8069 13.974C23.3223 14.4578 22.8378 14.9431 22.3929 15.4651C21.7462 16.1367 21.0996 16.8464 20.4529 17.518L30.801 14.4212L35.2878 10.056L27.4867 11.6235ZM68.3116 27.8875C74.4555 18.1896 82.0549 12.2203 89.5732 12.2203C99.2333 12.2203 104.61 20.2775 107.438 30.3876H110.956L112.208 28.9315L110.712 22.5532L107.964 21.584L109.38 19.2335L106.71 13.6382L104.406 13.1162L105.094 10.9519L101.577 6.84932L99.4764 6.51353L99.7178 5.1704L95.6758 2.44594L93.6549 2.52073L93.2514 1.47678C86.9453 -0.163944 79.8718 2.48413 74.5366 6.55014C70.2515 9.79498 66.1681 14.4212 62.49 20.0913C54.851 31.6925 48.9898 47.7338 46.605 65.5271C44.2598 83.2838 45.8376 99.3617 50.3245 110.963C54.5682 121.929 60.8329 130.099 74.6573 129.539L75.4247 129.353L75.6678 128.831L77.9716 128.72L82.4981 126.481L82.7016 124.579L85.2881 124.69L89.4112 120.849L89.2491 117.827L91.6735 118.498L95.919 113.126L95.0292 109.545L95.1913 109.209L97.7779 110.217L100.042 106.076H94.5033C89.4508 113.275 83.1051 118.423 75.385 118.423C67.8667 118.423 61.8848 112.417 58.286 102.756C54.7303 93.1696 53.5163 79.926 55.458 65.3409C57.479 50.6794 62.2072 37.4741 68.3116 27.8875ZM89.4508 13.1162C82.3377 13.1162 75.1022 18.8977 69.16 28.2615C63.1367 37.735 58.4481 50.829 56.5081 65.3027C54.5682 79.7764 55.7804 92.8704 59.2965 102.346C62.7728 111.709 68.4719 117.491 75.5471 117.491C82.7016 117.491 88.6835 112.753 93.5738 106.039H88.4817C85.1674 108.687 81.6911 110.18 78.2147 110.18C65.4008 110.18 57.6807 90.0727 60.995 65.3027C64.3093 40.5343 77.3646 20.4271 90.1785 20.4271C95.7172 20.4271 100.283 24.1573 103.437 30.3876H106.631C103.76 20.7247 98.5452 13.1162 89.4508 13.1162ZM40.6628 2.96951C40.6628 2.96951 36.9846 3.90206 34.6412 5.05741L34.5188 6.21435L32.6995 6.32575C32.6995 6.32575 29.8715 7.59409 26.678 10.4299L26.5555 12.2203C26.5555 12.2203 24.4535 12.6674 24.0104 13.0414C23.5655 13.4138 19.4821 17.7408 19.4821 17.7408L19.9684 20.4637C19.9684 20.4637 17.2197 21.0238 17.0576 21.4344C16.8955 21.845 12.8122 28.0737 12.8122 28.0737L14.2676 30.8714C14.2676 30.8714 10.8723 31.7307 10.5498 32.3275C10.2256 32.8861 7.19414 40.1237 7.19414 40.1237L9.8221 43.1442C9.8221 43.1442 5.45596 44.8613 5.37491 45.1971C5.29559 45.5695 3.03147 53.5153 3.03147 53.5153L5.8198 54.7836L5.537 56.9097C5.537 56.9097 2.02098 58.439 1.93993 58.6634C1.85889 58.8862 0.646645 67.3174 0.646645 67.3174L2.99009 67.4288L3.63673 68.1004L3.27289 71.4216L0.363845 72.69L0 80.97C0 80.97 2.58658 80.5228 2.66763 80.6342C2.70729 80.7472 3.31427 81.3057 3.31427 81.3057L3.03147 84.4392L0.120707 86.3425L1.29329 94.1753L4.20405 93.1314L4.68861 95.929L2.02098 98.6153L4.00058 105.665L7.55798 104.882L7.75974 105.74L5.33525 109.434L8.28568 115.29L11.8017 114.73L10.1446 117.976L14.1469 122.34L16.8145 122.265L16.3696 124.243L20.7357 126.667L23.0395 126.816L23.0792 127.787L32.5392 129.017L32.7409 128.72L35.3672 129.278L43.2097 129.689L57.1548 130.36L57.2358 129.913L58.4481 130.36L64.5921 130.324L64.9559 130.099C58.0032 127.749 52.4248 121.146 48.7467 111.634C44.1805 99.8089 42.5216 83.5448 44.9479 65.5271C47.3327 47.546 53.3146 31.2453 61.0347 19.4197C67.6649 9.27301 75.6264 2.40934 83.7517 0.544225C80.922 0.432827 78.013 0.394634 78.013 0.394634L76.6783 1.0296L75.2229 0.358032L65.8853 0.580827L62.8539 1.51338L61.7623 0.805213L53.2749 1.51338L51.0505 2.37273L50.0003 1.73777C50.0003 1.81256 45.9187 1.92396 40.6628 2.96951Z" fill="#848C8E"/>
</g>
<mask id="mask6_3_4" style="mask-type:luminance" maskUnits="userSpaceOnUse" x="104" y="21" width="98" height="10">
<path d="M104.72 21.9995H201.96V30.5548H104.72V21.9995Z" fill="white"/>
</mask>
<g mask="url(#mask6_3_4)">
<path fill-rule="evenodd" clip-rule="evenodd" d="M108.084 30.3876H202.105L105.013 22.106L108.084 30.3876Z" fill="#848C8E"/>
</g>
<path fill-rule="evenodd" clip-rule="evenodd" d="M95.0759 106.359H168.298L90.2979 114.359L95.0759 106.359Z" fill="#848C8E"/>
</svg>
