<svg width="1598" height="531" viewBox="0 0 1598 531" fill="none" xmlns="http://www.w3.org/2000/svg">
<mask id="mask0_80_78" style="mask-type:luminance" maskUnits="userSpaceOnUse" x="0" y="55" width="591" height="410">
<path d="M590.667 55.0019H0V464.335H590.667V55.0019Z" fill="white"/>
</mask>
<g mask="url(#mask0_80_78)">
<path d="M74.8424 291.32V374.091H23.7383V142.466H110.592C123.092 142.466 134.728 145.591 145.509 151.841C156.301 158.08 164.988 166.768 171.572 177.903C178.155 189.028 181.447 201.966 181.447 216.716C181.447 229.664 179.056 241.132 174.28 251.132C169.514 261.122 163.16 269.294 155.217 275.653C147.27 282.018 138.415 286.44 128.655 288.924L195.072 374.091H130.363L75.1758 291.32H74.8424ZM102.092 182.653H74.8424V251.132H102.092C109.577 251.132 116.556 248.184 123.03 242.278C129.499 236.362 132.738 227.841 132.738 216.716C132.738 206.049 129.499 197.71 123.03 191.695C116.556 185.669 109.577 182.653 102.092 182.653Z" fill="#3F3E3F"/>
<path d="M238.665 374.091H187.561V142.466H238.665V374.091Z" fill="#3F3E3F"/>
<path d="M306.093 327.091H321.427C334.593 327.091 346.114 324.028 355.989 317.903C365.864 311.768 373.578 303.476 379.135 293.028C384.703 282.585 387.489 271.002 387.489 258.278C387.489 245.335 384.703 233.695 379.135 223.362C373.578 213.028 365.864 204.856 355.989 198.841C346.114 192.83 334.593 189.82 321.427 189.82H306.093V327.091ZM255.677 142.466H324.489C340.833 142.466 355.989 145.419 369.948 151.32C383.916 157.226 396.125 165.398 406.573 175.841C417.015 186.289 425.135 198.549 430.927 212.632C436.718 226.716 439.614 241.934 439.614 258.278C439.614 274.627 436.718 289.841 430.927 303.924C425.135 318.007 417.073 330.273 406.739 340.716C396.406 351.164 384.198 359.335 370.114 365.237C356.041 371.143 340.833 374.091 324.489 374.091H255.677V142.466Z" fill="#3F3E3F"/>
<path d="M582.317 327.757V374.091H448.109V142.466H582.317V188.799H499.213V234.778H578.901V281.091H499.213V327.757H582.317Z" fill="#3F3E3F"/>
</g>
<path d="M799.809 91.2917C799.809 100.125 798.111 110.599 794.726 122.708C791.335 134.807 786.189 147.531 779.288 160.875C772.382 174.224 763.444 187.349 752.476 200.25C741.502 213.141 728.543 225.135 713.601 236.229C698.668 247.313 681.528 256.536 662.184 263.896C642.851 271.245 621.189 275.823 597.205 277.625V217.208C612.132 215.865 625.481 213.49 637.247 210.083C635.205 201.49 633.502 191.703 632.142 180.729C630.793 169.76 630.122 155.896 630.122 139.146C630.122 122.188 632.21 105.453 636.392 88.9375C640.585 72.4115 646.694 57.474 654.726 44.125C662.752 30.7812 672.418 20.0938 683.726 12.0625C695.043 4.02083 707.835 0 722.101 0C739.752 0 754.34 3.84896 765.872 11.5417C777.413 19.2396 785.955 29.9323 791.497 43.625C797.038 57.3073 799.809 73.1979 799.809 91.2917ZM688.83 184.625C701.731 174.906 712.085 164.333 719.892 152.917C727.694 141.49 733.351 130.177 736.851 118.979C740.361 107.771 742.122 98.0938 742.122 89.9375C742.122 68.2188 735.444 57.3542 722.101 57.3542C715.767 57.3542 710.335 60.1875 705.809 65.8542C701.278 71.5104 697.543 78.8646 694.601 87.9167C691.653 96.9583 689.502 106.745 688.142 117.271C686.793 127.786 686.122 137.911 686.122 147.646C686.122 154.661 686.34 161.281 686.788 167.5C687.247 173.724 687.924 179.432 688.83 184.625ZM706.83 251.833C716.549 273.333 729.502 289.458 745.684 300.208C761.861 310.943 778.663 317.563 796.08 320.063V394.375C782.955 392.792 769.434 389 755.517 383C741.611 377.01 728.267 368.927 715.476 358.75C702.694 348.568 691.043 336.401 680.517 322.25C670.002 308.115 661.351 292.104 654.559 274.229C663.153 272.427 670.049 270.391 675.247 268.125C680.455 265.865 685.377 263.375 690.017 260.667C694.653 257.948 700.257 255 706.83 251.833Z" fill="#5CCBF5"/>
<mask id="mask1_80_78" style="mask-type:luminance" maskUnits="userSpaceOnUse" x="794" y="53" width="746" height="411">
<path d="M1540 53.6686H794.667V463.002H1540V53.6686Z" fill="white"/>
</mask>
<g mask="url(#mask1_80_78)">
<path d="M933.417 299.756C933.417 293.173 931.823 287.048 928.646 281.381C925.48 275.704 921.219 271.105 915.875 267.589C910.542 264.063 904.469 262.298 897.667 262.298C890.844 262.298 884.771 264.063 879.438 267.589C874.105 271.105 869.844 275.704 866.667 281.381C863.485 287.048 861.896 293.173 861.896 299.756C861.896 306.339 863.485 312.475 866.667 318.152C869.844 323.834 874.105 328.438 879.438 331.964C884.771 335.48 890.844 337.235 897.667 337.235C904.469 337.235 910.542 335.48 915.875 331.964C921.219 328.438 925.48 323.834 928.646 318.152C931.823 312.475 933.417 306.339 933.417 299.756ZM984.521 224.819V374.694H933.417V356.652C928.427 364.36 920.99 369.86 911.105 373.152C901.23 376.444 891.526 378.089 882 378.089C867.917 378.089 855.193 374.459 843.834 367.194C832.485 359.933 823.573 350.339 817.105 338.423C810.631 326.506 807.396 313.621 807.396 299.756C807.396 285.912 810.631 273.027 817.105 261.11C823.573 249.183 832.485 239.527 843.834 232.152C855.193 224.777 867.917 221.089 882 221.089C891.526 221.089 900.834 222.683 909.917 225.86C919 229.027 926.834 234.704 933.417 242.881V224.819H984.521Z" fill="#5CCBF5"/>
<path d="M1168.75 289.548V374.694H1117.67V289.548C1117.67 280.688 1115.84 273.933 1112.21 269.277C1108.58 264.626 1102.8 262.298 1094.85 262.298C1086.89 262.298 1080.13 265.996 1074.56 273.381C1069 280.756 1066.23 289.548 1066.23 299.756V374.694H1015.14V224.485H1066.23V242.881C1071.45 236.298 1077.98 231.022 1085.81 227.048C1093.64 223.079 1102.44 221.089 1112.21 221.089C1132.42 221.089 1146.88 227.391 1155.62 239.985C1164.37 252.584 1168.75 269.105 1168.75 289.548Z" fill="#5CCBF5"/>
<path d="M1270.9 260.923C1263.19 260.923 1257.12 263.027 1252.69 267.235C1248.26 271.433 1245.08 276.542 1243.15 282.569C1241.22 288.584 1240.26 294.433 1240.26 300.11C1240.26 305.777 1241.16 311.683 1242.99 317.819C1244.8 323.944 1247.92 329.058 1252.34 333.152C1256.77 337.235 1262.96 339.277 1270.9 339.277C1278.86 339.277 1285.56 337.579 1291.01 334.173C1296.45 330.756 1299.63 325.647 1300.55 318.839H1350.28C1348.68 329.964 1344.36 340.016 1337.32 348.985C1330.29 357.944 1320.99 365.037 1309.4 370.256C1297.82 375.475 1284.42 378.089 1269.22 378.089C1251.95 378.089 1237.08 374.522 1224.59 367.381C1212.1 360.23 1202.51 350.751 1195.8 338.944C1189.1 327.126 1185.76 314.063 1185.76 299.756C1185.76 285.454 1189.22 272.339 1196.15 260.423C1203.08 248.506 1212.85 238.975 1225.44 231.819C1238.04 224.667 1252.63 221.089 1269.22 221.089C1285.56 221.089 1299.69 223.985 1311.61 229.777C1323.53 235.558 1332.95 243.272 1339.88 252.923C1346.81 262.579 1350.62 273.194 1351.3 284.777H1300.55C1300.31 277.516 1297.53 271.725 1292.19 267.402C1286.86 263.084 1279.76 260.923 1270.9 260.923Z" fill="#5CCBF5"/>
<path d="M1418.36 281.714H1485.47C1485.47 281.714 1485.18 280.298 1484.61 277.464C1484.04 274.621 1482.68 271.381 1480.53 267.756C1478.37 264.121 1475.03 260.881 1470.49 258.048C1465.95 255.204 1459.81 253.777 1452.09 253.777C1444.14 253.777 1437.9 255.204 1433.36 258.048C1428.82 260.881 1425.47 264.121 1423.3 267.756C1421.14 271.381 1419.78 274.621 1419.22 277.464C1418.64 280.298 1418.36 281.714 1418.36 281.714ZM1534.51 296.36C1534.51 297.944 1534.45 299.537 1534.34 301.131C1534.23 302.714 1534.17 304.308 1534.17 305.902H1417.7C1417.7 311.569 1419 317.188 1421.61 322.756C1424.22 328.313 1427.97 332.855 1432.84 336.381C1437.73 339.897 1443.47 341.652 1450.05 341.652C1459.13 341.652 1466.28 339.214 1471.51 334.339C1476.73 329.454 1479.45 324.287 1479.67 318.839H1531.8C1527.48 338.589 1517.94 353.402 1503.17 363.277C1488.42 373.152 1471.06 378.089 1451.07 378.089C1433.81 378.089 1418.59 374.86 1405.42 368.402C1392.26 361.933 1381.98 352.85 1374.59 341.152C1367.22 329.459 1363.53 315.662 1363.53 299.756C1363.53 284.089 1367.33 270.355 1374.95 258.548C1382.56 246.746 1392.95 237.548 1406.11 230.964C1419.28 224.381 1434.26 221.089 1451.07 221.089C1466.28 221.089 1480.18 224.042 1492.78 229.944C1505.39 235.85 1515.49 244.36 1523.09 255.485C1530.7 266.61 1534.51 280.235 1534.51 296.36Z" fill="#5CCBF5"/>
</g>
<mask id="mask2_80_78" style="mask-type:luminance" maskUnits="userSpaceOnUse" x="1551" y="323" width="47" height="46">
<path d="M1551.76 323.335H1597.08V368.658H1551.76V323.335Z" fill="white"/>
</mask>
<g mask="url(#mask2_80_78)">
<mask id="mask3_80_78" style="mask-type:luminance" maskUnits="userSpaceOnUse" x="1551" y="323" width="47" height="46">
<path d="M1574.42 323.335C1561.9 323.335 1551.76 333.481 1551.76 345.997C1551.76 358.512 1561.9 368.658 1574.42 368.658C1586.93 368.658 1597.08 358.512 1597.08 345.997C1597.08 333.481 1586.93 323.335 1574.42 323.335Z" fill="white"/>
</mask>
<g mask="url(#mask3_80_78)">
<mask id="mask4_80_78" style="mask-type:luminance" maskUnits="userSpaceOnUse" x="1550" y="323" width="48" height="47">
<path d="M1597.33 323.002H1550.67V369.669H1597.33V323.002Z" fill="white"/>
</mask>
<g mask="url(#mask4_80_78)">
<mask id="mask5_80_78" style="mask-type:luminance" maskUnits="userSpaceOnUse" x="1551" y="323" width="47" height="46">
<path d="M1551.76 323.335H1597.08V368.658H1551.76V323.335Z" fill="white"/>
</mask>
<g mask="url(#mask5_80_78)">
<mask id="mask6_80_78" style="mask-type:luminance" maskUnits="userSpaceOnUse" x="1551" y="323" width="47" height="46">
<path d="M1574.42 323.335C1561.9 323.335 1551.76 333.481 1551.76 345.997C1551.76 358.512 1561.9 368.658 1574.42 368.658C1586.93 368.658 1597.08 358.512 1597.08 345.997C1597.08 333.481 1586.93 323.335 1574.42 323.335Z" fill="white"/>
</mask>
<g mask="url(#mask6_80_78)">
<path d="M1551.76 323.335H1597.08V368.658H1551.76V323.335Z" fill="#3F3E3F"/>
</g>
</g>
</g>
</g>
</g>
<mask id="mask7_80_78" style="mask-type:luminance" maskUnits="userSpaceOnUse" x="159" y="399" width="1194" height="132">
<path d="M1352.33 399H159V531H1352.33V399Z" fill="white"/>
</mask>
<g mask="url(#mask7_80_78)">
<path d="M182.326 502.535H166.035V428.639H182.326V502.535Z" fill="#5CCBF5"/>
<path d="M236.768 475.369V502.535H220.476V475.369C220.476 472.551 219.893 470.4 218.726 468.91C217.57 467.426 215.732 466.681 213.206 466.681C210.664 466.681 208.502 467.863 206.726 470.223C204.945 472.572 204.06 475.369 204.06 478.619V502.535H187.768V454.619H204.06V460.473C205.726 458.379 207.81 456.697 210.31 455.431C212.81 454.171 215.622 453.535 218.747 453.535C225.19 453.535 229.799 455.551 232.581 459.577C235.372 463.592 236.768 468.858 236.768 475.369Z" fill="#5CCBF5"/>
<path d="M278.059 478.619C278.059 476.525 277.548 474.572 276.538 472.764C275.522 470.947 274.163 469.483 272.454 468.369C270.757 467.244 268.829 466.681 266.663 466.681C264.48 466.681 262.538 467.244 260.829 468.369C259.132 469.483 257.777 470.947 256.767 472.764C255.751 474.572 255.246 476.525 255.246 478.619C255.246 480.733 255.751 482.697 256.767 484.514C257.777 486.322 259.132 487.785 260.829 488.91C262.538 490.025 264.48 490.577 266.663 490.577C268.829 490.577 270.757 490.025 272.454 488.91C274.163 487.785 275.522 486.322 276.538 484.514C277.548 482.697 278.059 480.733 278.059 478.619ZM294.371 421.035V502.535H278.059V496.785C276.475 499.244 274.105 501.004 270.954 502.056C267.798 503.098 264.704 503.619 261.663 503.619C257.163 503.619 253.1 502.462 249.475 500.139C245.861 497.822 243.022 494.764 240.954 490.973C238.897 487.171 237.871 483.051 237.871 478.619C237.871 474.202 238.897 470.098 240.954 466.306C243.022 462.504 245.861 459.426 249.475 457.077C253.1 454.717 257.163 453.535 261.663 453.535C264.704 453.535 267.668 454.046 270.559 455.056C273.46 456.072 275.96 457.879 278.059 460.473V421.035H294.371Z" fill="#5CCBF5"/>
<path d="M314.573 472.869H335.99C335.99 472.869 335.896 472.421 335.719 471.514C335.537 470.613 335.099 469.587 334.406 468.431C333.724 467.264 332.656 466.233 331.198 465.327C329.75 464.41 327.802 463.952 325.344 463.952C322.802 463.952 320.808 464.41 319.365 465.327C317.917 466.233 316.849 467.264 316.156 468.431C315.459 469.587 315.021 470.613 314.844 471.514C314.662 472.421 314.573 472.869 314.573 472.869ZM351.636 477.535C351.636 478.051 351.615 478.566 351.573 479.077C351.542 479.577 351.531 480.077 351.531 480.577H314.365C314.365 482.4 314.781 484.197 315.615 485.973C316.448 487.738 317.641 489.181 319.198 490.306C320.75 491.431 322.578 491.994 324.677 491.994C327.578 491.994 329.865 491.217 331.531 489.66C333.198 488.108 334.063 486.462 334.136 484.723H350.761C349.386 491.014 346.344 495.738 341.636 498.889C336.927 502.046 331.386 503.619 325.011 503.619C319.511 503.619 314.656 502.587 310.448 500.535C306.25 498.467 302.974 495.572 300.615 491.848C298.266 488.113 297.094 483.702 297.094 478.619C297.094 473.634 298.302 469.259 300.719 465.494C303.146 461.717 306.459 458.78 310.656 456.681C314.865 454.587 319.646 453.535 325.011 453.535C329.87 453.535 334.308 454.483 338.323 456.369C342.349 458.244 345.573 460.962 347.99 464.514C350.417 468.056 351.636 472.4 351.636 477.535Z" fill="#5CCBF5"/>
<mask id="mask8_80_78" style="mask-type:luminance" maskUnits="userSpaceOnUse" x="353" y="452" width="58" height="78">
<path d="M353.667 452.333H411V529.984H353.667V452.333Z" fill="white"/>
</mask>
<g mask="url(#mask8_80_78)">
<path d="M370.644 478.619C370.644 480.733 371.149 482.697 372.165 484.514C373.175 486.322 374.54 487.785 376.248 488.91C377.956 490.025 379.894 490.577 382.061 490.577C384.238 490.577 386.175 490.025 387.873 488.91C389.581 487.785 390.941 486.322 391.956 484.514C392.967 482.697 393.477 480.733 393.477 478.619C393.477 476.525 392.967 474.572 391.956 472.764C390.941 470.947 389.581 469.483 387.873 468.369C386.175 467.244 384.238 466.681 382.061 466.681C379.894 466.681 377.956 467.244 376.248 468.369C374.54 469.483 373.175 470.947 372.165 472.764C371.149 474.572 370.644 476.525 370.644 478.619ZM370.644 529.702H354.352V454.619H370.644V460.473C372.753 457.879 375.238 456.072 378.102 455.056C380.962 454.046 383.946 453.535 387.061 453.535C391.628 453.535 395.706 454.717 399.29 457.077C402.873 459.426 405.691 462.504 407.748 466.306C409.816 470.098 410.852 474.202 410.852 478.619C410.852 483.051 409.816 487.171 407.748 490.973C405.691 494.764 402.873 497.822 399.29 500.139C395.706 502.462 391.628 503.619 387.061 503.619C383.946 503.619 380.852 503.098 377.769 502.056C374.686 501.004 372.311 499.244 370.644 496.785V529.702Z" fill="#5CCBF5"/>
</g>
<path d="M428.346 472.869H449.763C449.763 472.869 449.669 472.421 449.492 471.514C449.31 470.613 448.872 469.587 448.179 468.431C447.497 467.264 446.429 466.233 444.971 465.327C443.523 464.41 441.575 463.952 439.117 463.952C436.575 463.952 434.58 464.41 433.138 465.327C431.69 466.233 430.622 467.264 429.929 468.431C429.232 469.587 428.794 470.613 428.617 471.514C428.435 472.421 428.346 472.869 428.346 472.869ZM465.409 477.535C465.409 478.051 465.388 478.566 465.346 479.077C465.315 479.577 465.304 480.077 465.304 480.577H428.138C428.138 482.4 428.554 484.197 429.388 485.973C430.221 487.738 431.414 489.181 432.971 490.306C434.523 491.431 436.351 491.994 438.45 491.994C441.351 491.994 443.638 491.217 445.304 489.66C446.971 488.108 447.836 486.462 447.909 484.723H464.534C463.159 491.014 460.117 495.738 455.409 498.889C450.7 502.046 445.159 503.619 438.784 503.619C433.284 503.619 428.429 502.587 424.221 500.535C420.023 498.467 416.747 495.572 414.388 491.848C412.039 488.113 410.867 483.702 410.867 478.619C410.867 473.634 412.075 469.259 414.492 465.494C416.919 461.717 420.232 458.78 424.429 456.681C428.638 454.587 433.419 453.535 438.784 453.535C443.643 453.535 448.08 454.483 452.096 456.369C456.122 458.244 459.346 460.962 461.763 464.514C464.19 468.056 465.409 472.4 465.409 477.535Z" fill="#5CCBF5"/>
<path d="M517.125 475.369V502.535H500.834V475.369C500.834 472.551 500.25 470.4 499.084 468.91C497.927 467.426 496.089 466.681 493.563 466.681C491.021 466.681 488.86 467.863 487.084 470.223C485.302 472.572 484.417 475.369 484.417 478.619V502.535H468.125V454.619H484.417V460.473C486.084 458.379 488.167 456.697 490.667 455.431C493.167 454.171 495.979 453.535 499.104 453.535C505.547 453.535 510.156 455.551 512.938 459.577C515.729 463.592 517.125 468.858 517.125 475.369Z" fill="#5CCBF5"/>
<path d="M558.415 478.619C558.415 476.525 557.906 474.572 556.895 472.764C555.88 470.947 554.52 469.483 552.812 468.369C551.114 467.244 549.187 466.681 547.02 466.681C544.838 466.681 542.895 467.244 541.187 468.369C539.489 469.483 538.135 470.947 537.124 472.764C536.109 474.572 535.604 476.525 535.604 478.619C535.604 480.733 536.109 482.697 537.124 484.514C538.135 486.322 539.489 487.785 541.187 488.91C542.895 490.025 544.838 490.577 547.02 490.577C549.187 490.577 551.114 490.025 552.812 488.91C554.52 487.785 555.88 486.322 556.895 484.514C557.906 482.697 558.415 480.733 558.415 478.619ZM574.729 421.035V502.535H558.415V496.785C556.832 499.244 554.463 501.004 551.312 502.056C548.156 503.098 545.062 503.619 542.02 503.619C537.52 503.619 533.458 502.462 529.833 500.139C526.218 497.822 523.38 494.764 521.312 490.973C519.255 487.171 518.229 483.051 518.229 478.619C518.229 474.202 519.255 470.098 521.312 466.306C523.38 462.504 526.218 459.426 529.833 457.077C533.458 454.717 537.52 453.535 542.02 453.535C545.062 453.535 548.024 454.046 550.915 455.056C553.816 456.072 556.316 457.879 558.415 460.473V421.035H574.729Z" fill="#5CCBF5"/>
<path d="M594.93 472.869H616.347C616.347 472.869 616.253 472.421 616.076 471.514C615.894 470.613 615.456 469.587 614.764 468.431C614.081 467.264 613.014 466.233 611.555 465.327C610.107 464.41 608.16 463.952 605.701 463.952C603.16 463.952 601.165 464.41 599.722 465.327C598.274 466.233 597.206 467.264 596.514 468.431C595.816 469.587 595.378 470.613 595.201 471.514C595.019 472.421 594.93 472.869 594.93 472.869ZM631.993 477.535C631.993 478.051 631.972 478.566 631.93 479.077C631.899 479.577 631.889 480.077 631.889 480.577H594.722C594.722 482.4 595.139 484.197 595.972 485.973C596.805 487.738 597.998 489.181 599.555 490.306C601.107 491.431 602.936 491.994 605.035 491.994C607.936 491.994 610.222 491.217 611.889 489.66C613.555 488.108 614.42 486.462 614.493 484.723H631.118C629.743 491.014 626.701 495.738 621.993 498.889C617.285 502.046 611.743 503.619 605.368 503.619C599.868 503.619 595.014 502.587 590.805 500.535C586.607 498.467 583.331 495.572 580.972 491.848C578.623 488.113 577.451 483.702 577.451 478.619C577.451 473.634 578.66 469.259 581.076 465.494C583.503 461.717 586.816 458.78 591.014 456.681C595.222 454.587 600.003 453.535 605.368 453.535C610.227 453.535 614.665 454.483 618.68 456.369C622.706 458.244 625.93 460.962 628.347 464.514C630.774 468.056 631.993 472.4 631.993 477.535Z" fill="#5CCBF5"/>
<path d="M683.71 475.369V502.535H667.418V475.369C667.418 472.551 666.835 470.4 665.668 468.91C664.512 467.426 662.673 466.681 660.147 466.681C657.606 466.681 655.444 467.863 653.668 470.223C651.887 472.572 651.001 475.369 651.001 478.619V502.535H634.71V454.619H651.001V460.473C652.668 458.379 654.751 456.697 657.251 455.431C659.751 454.171 662.564 453.535 665.689 453.535C672.132 453.535 676.741 455.551 679.522 459.577C682.314 463.592 683.71 468.858 683.71 475.369Z" fill="#5CCBF5"/>
<path d="M708.063 467.223V502.535H691.875V467.223H683.167V454.619H691.875V436.348H708.063V454.619H716.75V467.223H708.063Z" fill="#5CCBF5"/>
<path d="M716.978 494.16C716.978 491.483 717.898 489.217 719.747 487.369C721.591 485.525 723.857 484.598 726.539 484.598C729.148 484.598 731.393 485.525 733.268 487.369C735.154 489.217 736.103 491.483 736.103 494.16C736.103 496.775 735.154 499.004 733.268 500.848C731.393 502.691 729.148 503.619 726.539 503.619C723.857 503.619 721.591 502.691 719.747 500.848C717.898 499.004 716.978 496.775 716.978 494.16Z" fill="#3F3E3F"/>
<path d="M776.353 487.535H781.249C785.441 487.535 789.113 486.567 792.27 484.619C795.421 482.66 797.883 480.014 799.664 476.681C801.44 473.348 802.331 469.655 802.331 465.598C802.331 461.462 801.44 457.744 799.664 454.452C797.883 451.16 795.421 448.556 792.27 446.639C789.113 444.712 785.441 443.744 781.249 443.744H776.353V487.535ZM760.27 428.639H782.228C787.436 428.639 792.27 429.587 796.728 431.473C801.186 433.348 805.081 435.952 808.414 439.285C811.748 442.619 814.336 446.535 816.185 451.035C818.029 455.525 818.956 460.379 818.956 465.598C818.956 470.806 818.029 475.66 816.185 480.16C814.336 484.65 811.758 488.556 808.456 491.889C805.164 495.223 801.27 497.837 796.77 499.723C792.28 501.598 787.436 502.535 782.228 502.535H760.27V428.639Z" fill="#3F3E3F"/>
<path d="M859.145 478.619C859.145 476.525 858.634 474.572 857.624 472.764C856.608 470.947 855.249 469.483 853.541 468.369C851.843 467.244 849.916 466.681 847.749 466.681C845.567 466.681 843.624 467.244 841.916 468.369C840.218 469.483 838.864 470.947 837.853 472.764C836.837 474.572 836.332 476.525 836.332 478.619C836.332 480.733 836.837 482.697 837.853 484.514C838.864 486.322 840.218 487.785 841.916 488.91C843.624 490.025 845.567 490.577 847.749 490.577C849.916 490.577 851.843 490.025 853.541 488.91C855.249 487.785 856.608 486.322 857.624 484.514C858.634 482.697 859.145 480.733 859.145 478.619ZM875.457 454.723V502.535H859.145V496.785C857.561 499.244 855.192 501.004 852.041 502.056C848.884 503.098 845.791 503.619 842.749 503.619C838.249 503.619 834.186 502.462 830.561 500.139C826.947 497.822 824.108 494.764 822.041 490.973C819.983 487.171 818.957 483.051 818.957 478.619C818.957 474.202 819.983 470.098 822.041 466.306C824.108 462.504 826.947 459.426 830.561 457.077C834.186 454.717 838.249 453.535 842.749 453.535C845.791 453.535 848.754 454.046 851.645 455.056C854.546 456.072 857.046 457.879 859.145 460.473V454.723H875.457Z" fill="#3F3E3F"/>
<path d="M907.951 466.681C905.92 466.681 904.086 467.28 902.451 468.473C900.826 469.671 899.539 471.176 898.597 472.994C897.649 474.801 897.18 476.676 897.18 478.619V502.535H880.888V454.619H897.18V460.473C898.414 458.671 900.081 457.066 902.18 455.66C904.289 454.244 906.826 453.535 909.784 453.535C910.519 453.535 911.352 453.629 912.284 453.806C913.227 453.988 914.024 454.259 914.68 454.619V469.389H914.472C913.664 468.379 912.68 467.676 911.513 467.285C910.357 466.884 909.17 466.681 907.951 466.681Z" fill="#3F3E3F"/>
<path d="M983.243 475.369V502.535H966.952V475.369C966.952 472.551 966.368 470.4 965.202 468.91C964.045 467.426 962.207 466.681 959.681 466.681C957.139 466.681 954.978 467.863 953.202 470.223C951.42 472.572 950.535 475.369 950.535 478.619V502.535H934.243V454.619H950.535V460.473C952.202 458.379 954.285 456.697 956.785 455.431C959.285 454.171 962.098 453.535 965.223 453.535C971.665 453.535 976.275 455.551 979.056 459.577C981.848 463.592 983.243 468.858 983.243 475.369Z" fill="#3F3E3F"/>
<path d="M985.971 481.889V454.618H1002.26V481.889C1002.26 484.639 1002.84 486.78 1003.99 488.306C1005.16 489.822 1007.01 490.577 1009.55 490.577C1012.08 490.577 1014.23 489.384 1016.01 486.993C1017.79 484.608 1018.68 481.816 1018.68 478.618V454.618H1034.97V502.535H1018.68V496.66C1017.08 498.691 1015.03 500.358 1012.53 501.66C1010.03 502.962 1007.19 503.619 1004.01 503.619C997.638 503.619 993.034 501.613 990.201 497.598C987.378 493.572 985.971 488.337 985.971 481.889Z" fill="#3F3E3F"/>
<path d="M1104.3 469.181H1088.32C1088.03 467.004 1087.07 465.535 1085.45 464.785C1083.82 464.025 1082.21 463.639 1080.61 463.639C1079.02 463.639 1077.53 464.025 1076.16 464.785C1074.78 465.535 1074.09 466.639 1074.09 468.098C1074.09 469.181 1074.83 469.994 1076.32 470.535C1077.81 471.077 1079.72 471.514 1082.07 471.848C1084.43 472.171 1086.93 472.587 1089.57 473.098C1092.22 473.598 1094.72 474.389 1097.07 475.473C1099.43 476.556 1101.35 478.098 1102.84 480.098C1104.33 482.087 1105.07 484.78 1105.07 488.181C1105.07 491.962 1104.07 494.973 1102.07 497.223C1100.08 499.462 1097.31 501.087 1093.76 502.098C1090.22 503.108 1086.13 503.619 1081.49 503.619C1076.78 503.619 1072.52 502.983 1068.72 501.723C1064.91 500.462 1061.85 498.431 1059.53 495.639C1057.21 492.848 1055.91 489.212 1055.61 484.723H1071.82C1071.82 487.113 1072.4 488.837 1073.55 489.889C1074.7 490.931 1076.08 491.598 1077.68 491.889C1079.27 492.181 1080.65 492.327 1081.8 492.327C1083.69 492.327 1085.3 491.988 1086.64 491.306C1087.98 490.613 1088.66 489.613 1088.66 488.306C1088.66 486.639 1087.91 485.379 1086.43 484.514C1084.94 483.639 1083.02 482.988 1080.66 482.556C1078.31 482.113 1075.81 481.676 1073.16 481.244C1070.52 480.801 1068.02 480.16 1065.66 479.327C1063.31 478.494 1061.39 477.244 1059.91 475.577C1058.42 473.91 1057.68 471.634 1057.68 468.744C1057.68 463.816 1059.59 460.051 1063.43 457.452C1067.27 454.842 1073.15 453.535 1081.05 453.535C1087.35 453.535 1092.63 454.764 1096.86 457.223C1101.1 459.681 1103.58 463.671 1104.3 469.181Z" fill="#3F3E3F"/>
<path d="M1106.36 438.202C1106.36 435.525 1107.29 433.259 1109.13 431.41C1110.98 429.567 1113.24 428.639 1115.93 428.639C1118.54 428.639 1120.78 429.567 1122.66 431.41C1124.54 433.259 1125.49 435.525 1125.49 438.202C1125.49 440.817 1124.54 443.067 1122.66 444.952C1120.78 446.827 1118.54 447.764 1115.93 447.764C1113.24 447.764 1110.98 446.827 1109.13 444.952C1107.29 443.067 1106.36 440.817 1106.36 438.202ZM1124.07 502.535H1107.78V454.619H1124.07V502.535Z" fill="#3F3E3F"/>
<path d="M1179.06 475.369V502.535H1162.77V475.369C1162.77 472.551 1162.18 470.4 1161.02 468.91C1159.86 467.426 1158.02 466.681 1155.5 466.681C1152.95 466.681 1150.79 467.863 1149.02 470.223C1147.24 472.572 1146.35 475.369 1146.35 478.619V502.535H1130.06V454.619H1146.35V460.473C1148.02 458.379 1150.1 456.697 1152.6 455.431C1155.1 454.171 1157.91 453.535 1161.04 453.535C1167.48 453.535 1172.09 455.551 1174.87 459.577C1177.66 463.592 1179.06 468.858 1179.06 475.369Z" fill="#3F3E3F"/>
<mask id="mask9_80_78" style="mask-type:luminance" maskUnits="userSpaceOnUse" x="1179" y="452" width="59" height="78">
<path d="M1179 452.333H1237.67V529.984H1179V452.333Z" fill="white"/>
</mask>
<g mask="url(#mask9_80_78)">
<path d="M1208.95 490.577C1211.12 490.577 1213.05 490.025 1214.75 488.91C1216.45 487.785 1217.81 486.301 1218.83 484.452C1219.84 482.608 1220.35 480.629 1220.35 478.514C1220.35 476.421 1219.84 474.467 1218.83 472.66C1217.81 470.842 1216.45 469.379 1214.75 468.264C1213.05 467.139 1211.12 466.577 1208.95 466.577C1206.77 466.577 1204.83 467.139 1203.12 468.264C1201.42 469.379 1200.07 470.842 1199.06 472.66C1198.04 474.467 1197.54 476.421 1197.54 478.514C1197.54 480.629 1198.04 482.608 1199.06 484.452C1200.07 486.301 1201.42 487.785 1203.12 488.91C1204.83 490.025 1206.77 490.577 1208.95 490.577ZM1220.35 460.473V454.619H1236.66V502.431C1236.66 507.639 1235.41 512.306 1232.91 516.431C1230.41 520.566 1227.06 523.811 1222.85 526.16C1218.65 528.52 1214.02 529.702 1208.95 529.702C1205.69 529.702 1202.44 529.285 1199.22 528.452C1196 527.619 1193.03 526.348 1190.31 524.639C1187.6 522.941 1185.41 520.754 1183.75 518.077C1182.08 515.395 1181.13 512.244 1180.91 508.619H1197.2C1197.79 511.452 1199.09 513.66 1201.12 515.244C1203.15 516.837 1205.46 517.639 1208.08 517.639C1210.46 517.639 1212.58 516.999 1214.43 515.723C1216.28 514.457 1217.72 512.79 1218.77 510.723C1219.82 508.665 1220.35 506.514 1220.35 504.264V496.66C1218.77 499.134 1216.4 500.91 1213.25 501.994C1210.09 503.077 1207 503.619 1203.95 503.619C1199.45 503.619 1195.39 502.447 1191.77 500.098C1188.15 497.738 1185.31 494.655 1183.25 490.848C1181.19 487.046 1180.16 482.931 1180.16 478.514C1180.16 474.098 1181.19 469.988 1183.25 466.181C1185.31 462.379 1188.15 459.322 1191.77 457.014C1195.39 454.697 1199.45 453.535 1203.95 453.535C1207 453.535 1209.91 454.009 1212.7 454.952C1215.5 455.884 1218.04 457.723 1220.35 460.473Z" fill="#3F3E3F"/>
</g>
<path d="M1241.01 481.889V454.618H1257.3V481.889C1257.3 484.639 1257.87 486.78 1259.03 488.306C1260.2 489.822 1262.05 490.577 1264.59 490.577C1267.12 490.577 1269.27 489.384 1271.05 486.993C1272.83 484.608 1273.72 481.816 1273.72 478.618V454.618H1290.01V502.535H1273.72V496.66C1272.12 498.691 1270.07 500.358 1267.57 501.66C1265.07 502.962 1262.23 503.619 1259.05 503.619C1252.68 503.619 1248.07 501.613 1245.24 497.598C1242.42 493.572 1241.01 488.337 1241.01 481.889Z" fill="#3F3E3F"/>
<path d="M1322.51 466.681C1320.48 466.681 1318.65 467.28 1317.01 468.473C1315.39 469.671 1314.1 471.176 1313.16 472.994C1312.21 474.801 1311.74 476.676 1311.74 478.619V502.535H1295.45V454.619H1311.74V460.473C1312.97 458.671 1314.64 457.066 1316.74 455.66C1318.85 454.244 1321.39 453.535 1324.34 453.535C1325.08 453.535 1325.91 453.629 1326.84 453.806C1327.79 453.988 1328.58 454.259 1329.24 454.619V469.389H1329.03C1328.22 468.379 1327.24 467.676 1326.07 467.285C1324.92 466.884 1323.73 466.681 1322.51 466.681Z" fill="#3F3E3F"/>
<path d="M1328.37 494.16C1328.37 491.483 1329.29 489.217 1331.14 487.369C1332.98 485.525 1335.25 484.598 1337.93 484.598C1340.54 484.598 1342.78 485.525 1344.66 487.369C1346.55 489.217 1347.49 491.483 1347.49 494.16C1347.49 496.775 1346.55 499.004 1344.66 500.848C1342.78 502.691 1340.54 503.619 1337.93 503.619C1335.25 503.619 1332.98 502.691 1331.14 500.848C1329.29 499.004 1328.37 496.775 1328.37 494.16Z" fill="#3F3E3F"/>
</g>
</svg>
