<svg width="1194" height="132" viewBox="0 0 1194 132" fill="none" xmlns="http://www.w3.org/2000/svg">
<mask id="mask0_11_121" style="mask-type:luminance" maskUnits="userSpaceOnUse" x="0" y="0" width="1194" height="132">
<path d="M1193.33 0H0V132H1193.33V0Z" fill="white"/>
</mask>
<g mask="url(#mask0_11_121)">
<path d="M23.3266 103.535H7.03491V29.6394H23.3266V103.535Z" fill="#5CCBF5"/>
<path d="M77.7681 76.3686V103.535H61.4764V76.3686C61.4764 73.5508 60.8931 71.3998 59.7264 69.9102C58.5702 68.4258 56.7316 67.6811 54.2056 67.6811C51.6639 67.6811 49.5024 68.8633 47.7264 71.2227C45.9452 73.5717 45.0597 76.3686 45.0597 79.6186V103.535H28.7681V55.6186H45.0597V61.4727C46.7264 59.379 48.8097 57.6967 51.3097 56.4311C53.8097 55.1706 56.6222 54.5352 59.7472 54.5352C66.1899 54.5352 70.7993 56.5508 73.5806 60.5769C76.3722 64.5925 77.7681 69.8581 77.7681 76.3686Z" fill="#5CCBF5"/>
<path d="M119.059 79.6186C119.059 77.5248 118.548 75.5717 117.538 73.7644C116.522 71.9467 115.163 70.4831 113.454 69.3686C111.757 68.2436 109.829 67.6811 107.663 67.6811C105.48 67.6811 103.538 68.2436 101.829 69.3686C100.132 70.4831 98.7773 71.9467 97.7669 73.7644C96.7513 75.5717 96.2461 77.5248 96.2461 79.6186C96.2461 81.7331 96.7513 83.6967 97.7669 85.5144C98.7773 87.3217 100.132 88.7852 101.829 89.9102C103.538 91.0248 105.48 91.5769 107.663 91.5769C109.829 91.5769 111.757 91.0248 113.454 89.9102C115.163 88.7852 116.522 87.3217 117.538 85.5144C118.548 83.6967 119.059 81.7331 119.059 79.6186ZM135.371 22.0352V103.535H119.059V97.7852C117.475 100.244 115.105 102.004 111.954 103.056C108.798 104.098 105.704 104.619 102.663 104.619C98.1628 104.619 94.1003 103.462 90.4753 101.139C86.8607 98.8217 84.0221 95.7644 81.9544 91.9727C79.8971 88.1706 78.8711 84.0508 78.8711 79.6186C78.8711 75.2019 79.8971 71.0977 81.9544 67.3061C84.0221 63.504 86.8607 60.4258 90.4753 58.0769C94.1003 55.7175 98.1628 54.5352 102.663 54.5352C105.704 54.5352 108.668 55.0456 111.559 56.0561C114.46 57.0717 116.96 58.879 119.059 61.4727V22.0352H135.371Z" fill="#5CCBF5"/>
<path d="M155.573 73.8686H176.99C176.99 73.8686 176.896 73.4206 176.719 72.5144C176.537 71.6133 176.099 70.5873 175.406 69.4311C174.724 68.2644 173.656 67.2331 172.198 66.3269C170.75 65.4102 168.802 64.9519 166.344 64.9519C163.802 64.9519 161.808 65.4102 160.365 66.3269C158.917 67.2331 157.849 68.2644 157.156 69.4311C156.459 70.5873 156.021 71.6133 155.844 72.5144C155.662 73.4206 155.573 73.8686 155.573 73.8686ZM192.636 78.5352C192.636 79.0508 192.615 79.5665 192.573 80.0769C192.542 80.5769 192.531 81.0769 192.531 81.5769H155.365C155.365 83.3998 155.781 85.1967 156.615 86.9727C157.448 88.7383 158.641 90.1811 160.198 91.3061C161.75 92.4311 163.578 92.9936 165.677 92.9936C168.578 92.9936 170.865 92.2175 172.531 90.6602C174.198 89.1081 175.063 87.4623 175.136 85.7227H191.761C190.386 92.0144 187.344 96.7383 182.636 99.8894C177.927 103.046 172.386 104.619 166.011 104.619C160.511 104.619 155.656 103.587 151.448 101.535C147.25 99.4675 143.974 96.5717 141.615 92.8477C139.266 89.1133 138.094 84.7019 138.094 79.6186C138.094 74.6342 139.302 70.2592 141.719 66.4936C144.146 62.7175 147.459 59.78 151.656 57.6811C155.865 55.5873 160.646 54.5352 166.011 54.5352C170.87 54.5352 175.308 55.4831 179.323 57.3686C183.349 59.2436 186.573 61.9623 188.99 65.5144C191.417 69.0561 192.636 73.3998 192.636 78.5352Z" fill="#5CCBF5"/>
<mask id="mask1_11_121" style="mask-type:luminance" maskUnits="userSpaceOnUse" x="194" y="53" width="58" height="78">
<path d="M194.667 53.3333H252V130.984H194.667V53.3333Z" fill="white"/>
</mask>
<g mask="url(#mask1_11_121)">
<path d="M211.644 79.6186C211.644 81.7331 212.149 83.6967 213.165 85.5144C214.175 87.3217 215.54 88.7852 217.248 89.9102C218.956 91.0248 220.894 91.5769 223.061 91.5769C225.238 91.5769 227.175 91.0248 228.873 89.9102C230.581 88.7852 231.941 87.3217 232.956 85.5144C233.967 83.6967 234.477 81.7331 234.477 79.6186C234.477 77.5248 233.967 75.5717 232.956 73.7644C231.941 71.9467 230.581 70.4831 228.873 69.3686C227.175 68.2436 225.238 67.6811 223.061 67.6811C220.894 67.6811 218.956 68.2436 217.248 69.3686C215.54 70.4831 214.175 71.9467 213.165 73.7644C212.149 75.5717 211.644 77.5248 211.644 79.6186ZM211.644 130.702H195.352V55.6186H211.644V61.4727C213.753 58.879 216.238 57.0717 219.102 56.0561C221.962 55.0456 224.946 54.5352 228.061 54.5352C232.628 54.5352 236.706 55.7175 240.29 58.0769C243.873 60.4258 246.691 63.504 248.748 67.3061C250.816 71.0977 251.852 75.2019 251.852 79.6186C251.852 84.0508 250.816 88.1706 248.748 91.9727C246.691 95.7644 243.873 98.8217 240.29 101.139C236.706 103.462 232.628 104.619 228.061 104.619C224.946 104.619 221.852 104.098 218.769 103.056C215.686 102.004 213.311 100.244 211.644 97.7852V130.702Z" fill="#5CCBF5"/>
</g>
<path d="M269.346 73.8686H290.763C290.763 73.8686 290.669 73.4206 290.492 72.5144C290.31 71.6133 289.872 70.5873 289.179 69.4311C288.497 68.2644 287.429 67.2331 285.971 66.3269C284.523 65.4102 282.575 64.9519 280.117 64.9519C277.575 64.9519 275.58 65.4102 274.138 66.3269C272.69 67.2331 271.622 68.2644 270.929 69.4311C270.232 70.5873 269.794 71.6133 269.617 72.5144C269.435 73.4206 269.346 73.8686 269.346 73.8686ZM306.409 78.5352C306.409 79.0508 306.388 79.5665 306.346 80.0769C306.315 80.5769 306.304 81.0769 306.304 81.5769H269.138C269.138 83.3998 269.554 85.1967 270.388 86.9727C271.221 88.7383 272.414 90.1811 273.971 91.3061C275.523 92.4311 277.351 92.9936 279.45 92.9936C282.351 92.9936 284.638 92.2175 286.304 90.6602C287.971 89.1081 288.836 87.4623 288.909 85.7227H305.534C304.159 92.0144 301.117 96.7383 296.409 99.8894C291.7 103.046 286.159 104.619 279.784 104.619C274.284 104.619 269.429 103.587 265.221 101.535C261.023 99.4675 257.747 96.5717 255.388 92.8477C253.039 89.1133 251.867 84.7019 251.867 79.6186C251.867 74.6342 253.075 70.2592 255.492 66.4936C257.919 62.7175 261.232 59.78 265.429 57.6811C269.638 55.5873 274.419 54.5352 279.784 54.5352C284.643 54.5352 289.08 55.4831 293.096 57.3686C297.122 59.2436 300.346 61.9623 302.763 65.5144C305.19 69.0561 306.409 73.3998 306.409 78.5352Z" fill="#5CCBF5"/>
<path d="M358.125 76.3686V103.535H341.834V76.3686C341.834 73.5508 341.25 71.3998 340.084 69.9102C338.927 68.4258 337.089 67.6811 334.563 67.6811C332.021 67.6811 329.86 68.8633 328.084 71.2227C326.302 73.5717 325.417 76.3686 325.417 79.6186V103.535H309.125V55.6186H325.417V61.4727C327.084 59.379 329.167 57.6967 331.667 56.4311C334.167 55.1706 336.979 54.5352 340.104 54.5352C346.547 54.5352 351.156 56.5508 353.938 60.5769C356.729 64.5925 358.125 69.8581 358.125 76.3686Z" fill="#5CCBF5"/>
<path d="M399.416 79.6186C399.416 77.5248 398.906 75.5717 397.895 73.7644C396.88 71.9467 395.52 70.4831 393.812 69.3686C392.114 68.2436 390.187 67.6811 388.02 67.6811C385.838 67.6811 383.895 68.2436 382.187 69.3686C380.489 70.4831 379.135 71.9467 378.124 73.7644C377.109 75.5717 376.604 77.5248 376.604 79.6186C376.604 81.7331 377.109 83.6967 378.124 85.5144C379.135 87.3217 380.489 88.7852 382.187 89.9102C383.895 91.0248 385.838 91.5769 388.02 91.5769C390.187 91.5769 392.114 91.0248 393.812 89.9102C395.52 88.7852 396.88 87.3217 397.895 85.5144C398.906 83.6967 399.416 81.7331 399.416 79.6186ZM415.729 22.0352V103.535H399.416V97.7852C397.833 100.244 395.463 102.004 392.312 103.056C389.156 104.098 386.062 104.619 383.02 104.619C378.52 104.619 374.458 103.462 370.833 101.139C367.218 98.8217 364.38 95.7644 362.312 91.9727C360.255 88.1706 359.229 84.0508 359.229 79.6186C359.229 75.2019 360.255 71.0977 362.312 67.3061C364.38 63.504 367.218 60.4258 370.833 58.0769C374.458 55.7175 378.52 54.5352 383.02 54.5352C386.062 54.5352 389.025 55.0456 391.916 56.0561C394.817 57.0717 397.317 58.879 399.416 61.4727V22.0352H415.729Z" fill="#5CCBF5"/>
<path d="M435.93 73.8686H457.347C457.347 73.8686 457.253 73.4206 457.076 72.5144C456.894 71.6133 456.456 70.5873 455.764 69.4311C455.081 68.2644 454.014 67.2331 452.555 66.3269C451.107 65.4102 449.16 64.9519 446.701 64.9519C444.16 64.9519 442.165 65.4102 440.722 66.3269C439.274 67.2331 438.206 68.2644 437.514 69.4311C436.816 70.5873 436.378 71.6133 436.201 72.5144C436.019 73.4206 435.93 73.8686 435.93 73.8686ZM472.993 78.5352C472.993 79.0508 472.972 79.5665 472.93 80.0769C472.899 80.5769 472.889 81.0769 472.889 81.5769H435.722C435.722 83.3998 436.139 85.1967 436.972 86.9727C437.805 88.7383 438.998 90.1811 440.555 91.3061C442.107 92.4311 443.936 92.9936 446.035 92.9936C448.936 92.9936 451.222 92.2175 452.889 90.6602C454.555 89.1081 455.42 87.4623 455.493 85.7227H472.118C470.743 92.0144 467.701 96.7383 462.993 99.8894C458.285 103.046 452.743 104.619 446.368 104.619C440.868 104.619 436.014 103.587 431.805 101.535C427.607 99.4675 424.331 96.5717 421.972 92.8477C419.623 89.1133 418.451 84.7019 418.451 79.6186C418.451 74.6342 419.66 70.2592 422.076 66.4936C424.503 62.7175 427.816 59.78 432.014 57.6811C436.222 55.5873 441.003 54.5352 446.368 54.5352C451.227 54.5352 455.665 55.4831 459.68 57.3686C463.706 59.2436 466.93 61.9623 469.347 65.5144C471.774 69.0561 472.993 73.3998 472.993 78.5352Z" fill="#5CCBF5"/>
<path d="M524.71 76.3686V103.535H508.418V76.3686C508.418 73.5508 507.835 71.3998 506.668 69.9102C505.512 68.4258 503.673 67.6811 501.147 67.6811C498.606 67.6811 496.444 68.8633 494.668 71.2227C492.887 73.5717 492.001 76.3686 492.001 79.6186V103.535H475.71V55.6186H492.001V61.4727C493.668 59.379 495.751 57.6967 498.251 56.4311C500.751 55.1706 503.564 54.5352 506.689 54.5352C513.132 54.5352 517.741 56.5508 520.522 60.5769C523.314 64.5925 524.71 69.8581 524.71 76.3686Z" fill="#5CCBF5"/>
<path d="M549.063 68.2227V103.535H532.875V68.2227H524.167V55.6186H532.875V37.3477H549.063V55.6186H557.75V68.2227H549.063Z" fill="#5CCBF5"/>
<path d="M557.978 95.1602C557.978 92.4831 558.899 90.2175 560.748 88.3686C562.592 86.5248 564.858 85.5977 567.54 85.5977C570.149 85.5977 572.394 86.5248 574.269 88.3686C576.155 90.2175 577.103 92.4831 577.103 95.1602C577.103 97.7748 576.155 100.004 574.269 101.848C572.394 103.691 570.149 104.619 567.54 104.619C564.858 104.619 562.592 103.691 560.748 101.848C558.899 100.004 557.978 97.7748 557.978 95.1602Z" fill="#3F3E3F"/>
<path d="M617.353 88.5352H622.249C626.441 88.5352 630.113 87.5665 633.27 85.6185C636.421 83.6602 638.884 81.0144 640.665 77.681C642.441 74.3477 643.332 70.655 643.332 66.5977C643.332 62.4623 642.441 58.7435 640.665 55.4519C638.884 52.1602 636.421 49.556 633.27 47.6394C630.113 45.7123 626.441 44.7435 622.249 44.7435H617.353V88.5352ZM601.27 29.6394H623.228C628.436 29.6394 633.27 30.5873 637.728 32.4727C642.186 34.3477 646.082 36.9519 649.415 40.2852C652.749 43.6185 655.337 47.5352 657.186 52.0352C659.03 56.5248 659.957 61.379 659.957 66.5977C659.957 71.806 659.03 76.6602 657.186 81.1602C655.337 85.6498 652.759 89.556 649.457 92.8894C646.165 96.2227 642.27 98.8373 637.77 100.723C633.28 102.598 628.436 103.535 623.228 103.535H601.27V29.6394Z" fill="#3F3E3F"/>
<path d="M700.145 79.6186C700.145 77.5248 699.634 75.5717 698.624 73.7644C697.608 71.9467 696.249 70.4831 694.541 69.3686C692.843 68.2436 690.916 67.6811 688.749 67.6811C686.567 67.6811 684.624 68.2436 682.916 69.3686C681.218 70.4831 679.864 71.9467 678.853 73.7644C677.837 75.5717 677.332 77.5248 677.332 79.6186C677.332 81.7331 677.837 83.6967 678.853 85.5144C679.864 87.3217 681.218 88.7852 682.916 89.9102C684.624 91.0248 686.567 91.5769 688.749 91.5769C690.916 91.5769 692.843 91.0248 694.541 89.9102C696.249 88.7852 697.608 87.3217 698.624 85.5144C699.634 83.6967 700.145 81.7331 700.145 79.6186ZM716.457 55.7227V103.535H700.145V97.7852C698.561 100.244 696.192 102.004 693.041 103.056C689.884 104.098 686.791 104.619 683.749 104.619C679.249 104.619 675.186 103.462 671.561 101.139C667.947 98.8217 665.108 95.7644 663.041 91.9727C660.983 88.1706 659.957 84.0508 659.957 79.6186C659.957 75.2019 660.983 71.0977 663.041 67.3061C665.108 63.504 667.947 60.4258 671.561 58.0769C675.186 55.7175 679.249 54.5352 683.749 54.5352C686.791 54.5352 689.754 55.0456 692.645 56.0561C695.546 57.0717 698.046 58.879 700.145 61.4727V55.7227H716.457Z" fill="#3F3E3F"/>
<path d="M748.951 67.6811C746.92 67.6811 745.086 68.28 743.451 69.4727C741.826 70.6706 740.539 72.1758 739.597 73.9936C738.649 75.8008 738.18 77.6758 738.18 79.6186V103.535H721.888V55.6186H738.18V61.4727C739.414 59.6706 741.081 58.0665 743.18 56.6602C745.289 55.2436 747.826 54.5352 750.784 54.5352C751.519 54.5352 752.352 54.629 753.284 54.8061C754.227 54.9883 755.024 55.2592 755.68 55.6186V70.3894H755.472C754.664 69.379 753.68 68.6758 752.513 68.2852C751.357 67.8842 750.17 67.6811 748.951 67.6811Z" fill="#3F3E3F"/>
<path d="M824.243 76.3686V103.535H807.952V76.3686C807.952 73.5508 807.368 71.3998 806.202 69.9102C805.045 68.4258 803.207 67.6811 800.681 67.6811C798.139 67.6811 795.978 68.8633 794.202 71.2227C792.42 73.5717 791.535 76.3686 791.535 79.6186V103.535H775.243V55.6186H791.535V61.4727C793.202 59.379 795.285 57.6967 797.785 56.4311C800.285 55.1706 803.098 54.5352 806.223 54.5352C812.665 54.5352 817.275 56.5508 820.056 60.5769C822.848 64.5925 824.243 69.8581 824.243 76.3686Z" fill="#3F3E3F"/>
<path d="M826.971 82.8894V55.6185H843.263V82.8894C843.263 85.6394 843.836 87.78 844.992 89.306C846.159 90.8217 848.013 91.5769 850.555 91.5769C853.081 91.5769 855.232 90.3842 857.013 87.9935C858.789 85.6081 859.68 82.8165 859.68 79.6185V55.6185H875.971V103.535H859.68V97.6602C858.081 99.6915 856.034 101.358 853.534 102.66C851.034 103.962 848.19 104.619 845.013 104.619C838.638 104.619 834.034 102.613 831.201 98.5977C828.378 94.5717 826.971 89.3373 826.971 82.8894Z" fill="#3F3E3F"/>
<path d="M945.303 70.1811H929.324C929.032 68.004 928.074 66.5352 926.449 65.7852C924.824 65.0248 923.209 64.6394 921.615 64.6394C920.016 64.6394 918.532 65.0248 917.157 65.7852C915.782 66.5352 915.094 67.6394 915.094 69.0977C915.094 70.1811 915.834 70.9936 917.324 71.5352C918.808 72.0769 920.725 72.5144 923.074 72.8477C925.433 73.1706 927.933 73.5873 930.574 74.0977C933.225 74.5977 935.725 75.3894 938.074 76.4727C940.433 77.5561 942.355 79.0977 943.844 81.0977C945.329 83.0873 946.074 85.78 946.074 89.1811C946.074 92.9623 945.074 95.9727 943.074 98.2227C941.084 100.462 938.313 102.087 934.761 103.098C931.219 104.108 927.126 104.619 922.49 104.619C917.782 104.619 913.521 103.983 909.719 102.723C905.912 101.462 902.85 99.4311 900.532 96.6394C898.209 93.8477 896.907 90.2123 896.615 85.7227H912.824C912.824 88.1133 913.396 89.8373 914.553 90.8894C915.704 91.9311 917.079 92.5977 918.678 92.8894C920.271 93.1811 921.646 93.3269 922.803 93.3269C924.688 93.3269 926.303 92.9883 927.636 92.3061C928.98 91.6133 929.657 90.6133 929.657 89.3061C929.657 87.6394 928.912 86.379 927.428 85.5144C925.938 84.6394 924.016 83.9883 921.657 83.5561C919.308 83.1133 916.808 82.6758 914.157 82.2436C911.516 81.8008 909.016 81.1602 906.657 80.3269C904.308 79.4936 902.391 78.2436 900.907 76.5769C899.417 74.9102 898.678 72.6342 898.678 69.7436C898.678 64.8165 900.594 61.0508 904.428 58.4519C908.271 55.8425 914.146 54.5352 922.053 54.5352C928.355 54.5352 933.626 55.7644 937.865 58.2227C942.1 60.6811 944.579 64.6706 945.303 70.1811Z" fill="#3F3E3F"/>
<path d="M947.364 39.2019C947.364 36.5248 948.286 34.2592 950.135 32.4102C951.979 30.5665 954.244 29.6394 956.927 29.6394C959.536 29.6394 961.781 30.5665 963.656 32.4102C965.541 34.2592 966.489 36.5248 966.489 39.2019C966.489 41.8165 965.541 44.0665 963.656 45.9519C961.781 47.8269 959.536 48.7644 956.927 48.7644C954.244 48.7644 951.979 47.8269 950.135 45.9519C948.286 44.0665 947.364 41.8165 947.364 39.2019ZM965.072 103.535H948.781V55.6185H965.072V103.535Z" fill="#3F3E3F"/>
<path d="M1020.06 76.3686V103.535H1003.77V76.3686C1003.77 73.5508 1003.18 71.3998 1002.02 69.9102C1000.86 68.4258 999.022 67.6811 996.496 67.6811C993.955 67.6811 991.793 68.8633 990.017 71.2227C988.236 73.5717 987.351 76.3686 987.351 79.6186V103.535H971.059V55.6186H987.351V61.4727C989.017 59.379 991.101 57.6967 993.601 56.4311C996.101 55.1706 998.913 54.5352 1002.04 54.5352C1008.48 54.5352 1013.09 56.5508 1015.87 60.5769C1018.66 64.5925 1020.06 69.8581 1020.06 76.3686Z" fill="#3F3E3F"/>
<mask id="mask2_11_121" style="mask-type:luminance" maskUnits="userSpaceOnUse" x="1020" y="53" width="59" height="78">
<path d="M1020 53.3333H1078.67V130.984H1020V53.3333Z" fill="white"/>
</mask>
<g mask="url(#mask2_11_121)">
<path d="M1049.95 91.5769C1052.12 91.5769 1054.05 91.0248 1055.75 89.9102C1057.45 88.7852 1058.81 87.3008 1059.83 85.4519C1060.84 83.6081 1061.35 81.629 1061.35 79.5144C1061.35 77.4206 1060.84 75.4675 1059.83 73.6602C1058.81 71.8425 1057.45 70.379 1055.75 69.2644C1054.05 68.1394 1052.12 67.5769 1049.95 67.5769C1047.77 67.5769 1045.83 68.1394 1044.12 69.2644C1042.42 70.379 1041.07 71.8425 1040.06 73.6602C1039.04 75.4675 1038.54 77.4206 1038.54 79.5144C1038.54 81.629 1039.04 83.6081 1040.06 85.4519C1041.07 87.3008 1042.42 88.7852 1044.12 89.9102C1045.83 91.0248 1047.77 91.5769 1049.95 91.5769ZM1061.35 61.4727V55.6186H1077.66V103.431C1077.66 108.639 1076.41 113.306 1073.91 117.431C1071.41 121.566 1068.06 124.811 1063.85 127.16C1059.65 129.52 1055.02 130.702 1049.95 130.702C1046.69 130.702 1043.44 130.285 1040.22 129.452C1037 128.619 1034.03 127.348 1031.31 125.639C1028.6 123.941 1026.41 121.754 1024.75 119.077C1023.08 116.395 1022.13 113.244 1021.91 109.619H1038.2C1038.79 112.452 1040.09 114.66 1042.12 116.244C1044.15 117.837 1046.46 118.639 1049.08 118.639C1051.46 118.639 1053.58 117.999 1055.43 116.723C1057.28 115.457 1058.72 113.79 1059.77 111.723C1060.82 109.665 1061.35 107.514 1061.35 105.264V97.6602C1059.77 100.134 1057.4 101.91 1054.25 102.994C1051.09 104.077 1048 104.619 1044.95 104.619C1040.45 104.619 1036.39 103.447 1032.77 101.098C1029.15 98.7383 1026.31 95.655 1024.25 91.8477C1022.19 88.0456 1021.16 83.9311 1021.16 79.5144C1021.16 75.0977 1022.19 70.9883 1024.25 67.1811C1026.31 63.379 1029.15 60.3217 1032.77 58.0144C1036.39 55.6967 1040.45 54.5352 1044.95 54.5352C1048 54.5352 1050.91 55.0092 1053.7 55.9519C1056.5 56.8842 1059.04 58.7227 1061.35 61.4727Z" fill="#3F3E3F"/>
</g>
<path d="M1082.01 82.8894V55.6185H1098.3V82.8894C1098.3 85.6394 1098.87 87.78 1100.03 89.306C1101.2 90.8217 1103.05 91.5769 1105.59 91.5769C1108.12 91.5769 1110.27 90.3842 1112.05 87.9935C1113.83 85.6081 1114.72 82.8165 1114.72 79.6185V55.6185H1131.01V103.535H1114.72V97.6602C1113.12 99.6915 1111.07 101.358 1108.57 102.66C1106.07 103.962 1103.23 104.619 1100.05 104.619C1093.68 104.619 1089.07 102.613 1086.24 98.5977C1083.42 94.5717 1082.01 89.3373 1082.01 82.8894Z" fill="#3F3E3F"/>
<path d="M1163.51 67.6811C1161.48 67.6811 1159.65 68.28 1158.01 69.4727C1156.39 70.6706 1155.1 72.1758 1154.16 73.9936C1153.21 75.8008 1152.74 77.6758 1152.74 79.6186V103.535H1136.45V55.6186H1152.74V61.4727C1153.97 59.6706 1155.64 58.0665 1157.74 56.6602C1159.85 55.2436 1162.39 54.5352 1165.34 54.5352C1166.08 54.5352 1166.91 54.629 1167.84 54.8061C1168.79 54.9883 1169.58 55.2592 1170.24 55.6186V70.3894H1170.03C1169.22 69.379 1168.24 68.6758 1167.07 68.2852C1165.92 67.8842 1164.73 67.6811 1163.51 67.6811Z" fill="#3F3E3F"/>
<path d="M1169.37 95.1602C1169.37 92.4831 1170.29 90.2175 1172.14 88.3686C1173.98 86.5248 1176.25 85.5977 1178.93 85.5977C1181.54 85.5977 1183.78 86.5248 1185.66 88.3686C1187.55 90.2175 1188.49 92.4831 1188.49 95.1602C1188.49 97.7748 1187.55 100.004 1185.66 101.848C1183.78 103.691 1181.54 104.619 1178.93 104.619C1176.25 104.619 1173.98 103.691 1172.14 101.848C1170.29 100.004 1169.37 97.7748 1169.37 95.1602Z" fill="#3F3E3F"/>
</g>
</svg>
