<?xml version="1.0" encoding="UTF-8"?>
<svg id="Layer_1" xmlns="http://www.w3.org/2000/svg" version="1.1" viewBox="0 0 640.93 199.43">
  <!-- Generator: Adobe Illustrator 29.3.1, SVG Export Plug-In . SVG Version: 2.1.0 Build 151)  -->
  <defs>
    <style>
      .st0 {
        fill: #ff3826;
      }

      .st1 {
        fill: #015ab0;
      }
    </style>
  </defs>
  <g>
    <path class="st1" d="M217.56,109.03c4.2-1.89,7.43-4.57,9.7-8.05,2.27-3.47,3.41-7.64,3.41-12.5s-1.14-9.15-3.41-12.68c-2.27-3.53-5.51-6.23-9.7-8.09-4.2-1.86-9.23-2.79-15.1-2.79h-27.26v66.26h12.31v-19.31h14.96c.88,0,1.74-.02,2.59-.07l13.5,19.38h13.25l-15.23-21.73c.33-.13.66-.27.98-.42ZM214.16,78.79c2.75,2.3,4.12,5.54,4.12,9.7s-1.37,7.42-4.12,9.75c-2.75,2.34-6.83,3.5-12.26,3.5h-14.39v-26.41h14.39c5.43,0,9.51,1.15,12.26,3.46Z"/>
    <polygon class="st1" points="256.7 102.59 288.7 102.59 288.7 92.46 256.7 92.46 256.7 75.33 292.77 75.33 292.77 64.92 244.4 64.92 244.4 131.18 294.1 131.18 294.1 120.77 256.7 120.77 256.7 102.59"/>
    <polygon class="st1" points="354.49 109.86 317.95 64.92 307.82 64.92 307.82 131.18 320.03 131.18 320.03 86.25 356.48 131.18 366.61 131.18 366.61 64.92 354.49 64.92 354.49 109.86"/>
    <polygon class="st1" points="375.98 75.33 397.94 75.33 397.94 131.18 410.25 131.18 410.25 75.33 432.21 75.33 432.21 64.92 375.98 64.92 375.98 75.33"/>
    <path class="st0" d="M473.71,84.18c-3.63-2.11-7.78-3.17-12.45-3.17s-8.76,1.09-12.45,3.27c-3.69,2.18-6.6,5.16-8.71,8.95-2.12,3.79-3.17,8.14-3.17,13.06s1.1,9.29,3.31,13.11c2.21,3.82,5.27,6.82,9.18,8.99,3.91,2.18,8.46,3.27,13.63,3.27,3.98,0,7.62-.69,10.93-2.08,3.31-1.39,6.07-3.41,8.28-6.06l-3.79-4.35c-1.89,2.21-4.15,3.85-6.77,4.92-2.62,1.07-5.44,1.61-8.47,1.61-3.85,0-7.27-.8-10.27-2.41-3-1.61-5.33-3.85-7-6.72-1.4-2.41-2.21-5.14-2.44-8.19h41.77c0-.38.01-.74.05-1.09.03-.35.05-.68.05-.99,0-4.98-1.04-9.39-3.12-13.21-2.08-3.82-4.94-6.78-8.57-8.9ZM445.74,95.78c1.51-2.84,3.63-5.05,6.34-6.63,2.71-1.58,5.77-2.37,9.18-2.37s6.53.79,9.18,2.37c2.65,1.58,4.75,3.77,6.29,6.58,1.25,2.28,2,4.82,2.24,7.62h-35.42c.25-2.78.97-5.31,2.18-7.57Z"/>
    <path class="st0" d="M531.46,85.79c-3.5-3.19-8.47-4.78-14.91-4.78-3.91,0-7.64.58-11.17,1.75-3.53,1.17-6.56,2.83-9.09,4.97l3.03,5.02c2.02-1.77,4.48-3.19,7.38-4.26,2.9-1.07,5.96-1.61,9.18-1.61,4.67,0,8.19,1.14,10.55,3.41,2.37,2.27,3.55,5.52,3.55,9.75v3.03h-15.81c-4.73,0-8.5.65-11.31,1.94-2.81,1.29-4.83,3-6.06,5.11-1.23,2.12-1.85,4.47-1.85,7.05,0,2.84.72,5.35,2.18,7.53,1.45,2.18,3.55,3.88,6.29,5.11,2.75,1.23,5.98,1.85,9.7,1.85,4.73,0,8.66-.98,11.79-2.93,2.28-1.43,4.06-3.21,5.35-5.34v7.8h6.44v-30.86c0-6.5-1.75-11.34-5.25-14.53ZM523.98,123.75c-2.75,1.74-6.01,2.6-9.8,2.6-3.98,0-7.07-.85-9.28-2.56-2.21-1.7-3.31-3.98-3.31-6.82,0-2.52.93-4.64,2.79-6.34,1.86-1.7,5.19-2.56,9.99-2.56h15.62v8.14c-1.26,3.28-3.27,5.79-6.01,7.53Z"/>
    <polygon class="st0" points="589.44 85.84 589.44 81.48 550.15 81.48 550.15 87.07 580.92 87.07 549.58 126.73 549.58 131.18 590.1 131.18 590.1 125.6 558.19 125.6 589.44 85.84"/>
    <path class="st0" d="M635.68,85.79c-3.5-3.19-8.47-4.78-14.91-4.78-3.91,0-7.64.58-11.17,1.75-3.53,1.17-6.56,2.83-9.09,4.97l3.03,5.02c2.02-1.77,4.48-3.19,7.38-4.26,2.9-1.07,5.96-1.61,9.18-1.61,4.67,0,8.19,1.14,10.55,3.41,2.37,2.27,3.55,5.52,3.55,9.75v3.03h-15.81c-4.73,0-8.5.65-11.31,1.94-2.81,1.29-4.83,3-6.06,5.11-1.23,2.12-1.85,4.47-1.85,7.05,0,2.84.72,5.35,2.18,7.53,1.45,2.18,3.55,3.88,6.29,5.11,2.75,1.23,5.98,1.85,9.7,1.85,4.73,0,8.66-.98,11.79-2.93,2.28-1.43,4.06-3.21,5.35-5.34v7.8h6.44v-30.86c0-6.5-1.75-11.34-5.25-14.53ZM628.2,123.75c-2.75,1.74-6.01,2.6-9.8,2.6-3.98,0-7.07-.85-9.28-2.56-2.21-1.7-3.31-3.98-3.31-6.82,0-2.52.93-4.64,2.79-6.34,1.86-1.7,5.19-2.56,9.99-2.56h15.62v8.14c-1.26,3.28-3.27,5.79-6.01,7.53Z"/>
  </g>
  <ellipse class="st1" cx="70.26" cy="196.1" rx="31.58" ry="3.34"/>
  <g>
    <path class="st1" d="M70.26,196.1l58.26-86.89C159.77,62.61,126.37,0,70.26,0h0C14.15,0-19.25,62.61,12,109.21l58.26,86.89Z"/>
    <g>
      <path class="st0" d="M63.2,116.15c-8.79-10.73-16.39-20.01-18.83-22.96l-.07-.08-.03-.04s-.04-.05-.05-.07c-.13-.15-.32-.37-.49-.61-.66-1-.63-1.9-.47-2.48.22-.84.82-1.53,1.63-1.87.49-.22.97-.27,1.37-.29h0c.26-.02.57-.03,1.03-.03h.08c.86,0,1.73.02,2.57.03.69,0,1.41.01,2.12.01,1.4,0,2.86.01,4.42.03,1.67.01,3.4.03,5.11.03,3.47,0,6.14-.05,8.38-.18h0c2.64-.13,5.14-.68,7.43-1.65,2.4-1,4.45-2.39,6.09-4.15h.01s.01-.01.01-.01c2-2.1,3.55-4.69,4.49-7.5.95-2.84,1.23-5.82.82-8.61-.57-3.82-2.33-7.32-5.1-10.1-1.34-1.36-2.9-2.5-4.61-3.41-1.73-.91-3.59-1.57-5.53-1.93h-.03s-.03-.02-.03-.02c-.79-.16-1.79-.32-2.36-.34-3.24-.04-8.99-.06-18.06-.06-5.47,0-11.49.01-17.31.02-5.63,0-10.94,0-15.61,0-3.38,0-6.07,0-8.19,0h-.39c-.07,0-.13,0-.2,0-.82-.02-1.93-.03-3.18-1v-.02s-.03-.01-.04-.02c-.45,1.33-.87,2.68-1.24,4.04-1.51,5.55-2.31,11.32-2.31,17.16,0,12.24,3.49,24.8,11.21,36.3l54.42,81.15,20.85-31.1,2.3-3.42c-.75-.91-1.63-1.97-2.63-3.18-6.41-7.78-17.5-21.31-27.59-33.62Z"/>
      <path class="st0" d="M70.26,4.32c-18.91,0-35.07,7.61-46.61,19.41-1.24,1.26-2.43,2.58-3.57,3.94,1.7,0,3.41,0,5.13,0,10.94,0,22.27.03,32.61.05,6.34,0,12.35.03,17.56.03h.05c3.94.08,7.01.37,9.94.96,3.37.64,6.63,1.67,9.69,3.08,2.95,1.35,5.73,3.07,8.25,5.09,2.46,1.96,4.69,4.21,6.64,6.71,1.91,2.45,3.54,5.12,4.84,7.94,1.29,2.78,2.26,5.69,2.88,8.67.63,3.01.91,6.09.83,9.15-.08,3.13-.54,6.24-1.37,9.25-.86,3.11-2.11,6.12-3.73,8.96-1.96,3.48-4.38,6.65-7.18,9.39-2.92,2.88-6.17,5.21-9.67,6.96-1.36.68-2.77,1.26-3.92,1.7,3.26,3.94,9.09,10.97,15.35,18.49.39.47.78.93,1.17,1.41.49.59.97,1.17,1.46,1.76l2.29-3.42,11.76-17.54c29.19-43.52-2.01-102-54.42-102Z"/>
    </g>
    <path class="st1" d="M118.51,69.35c-.08,3.13-.54,6.24-1.37,9.25-.86,3.11-2.11,6.12-3.73,8.96-1.96,3.48-4.38,6.65-7.18,9.39-2.92,2.88-6.17,5.21-9.67,6.96-1.36.68-2.77,1.26-3.92,1.7,3.26,3.94,9.09,10.97,15.35,18.49.39.47.78.93,1.17,1.41.49.59.97,1.17,1.46,1.76l-17.21,25.68c-.75-.91-1.63-1.97-2.63-3.18-6.41-7.78-17.5-21.31-27.59-33.62-8.79-10.73-16.39-20.01-18.83-22.96l-.07-.08-.03-.04s-.04-.05-.05-.07c-.13-.15-.32-.37-.49-.61-.66-1-.63-1.9-.47-2.48.22-.84.82-1.53,1.63-1.87.49-.22.97-.27,1.37-.29h0c.26-.02.57-.03,1.03-.03h.08c.86,0,1.73.02,2.57.03.69,0,1.41.01,2.12.01,1.4,0,2.86.01,4.42.03,1.67.01,3.4.03,5.11.03,3.47,0,6.14-.05,8.38-.18h0c2.64-.13,5.14-.68,7.43-1.65,2.4-1,4.45-2.39,6.09-4.15h.01s.01-.01.01-.01c2-2.1,3.55-4.69,4.49-7.5.95-2.84,1.23-5.82.82-8.61-.57-3.82-2.33-7.32-5.1-10.1-1.34-1.36-2.9-2.5-4.61-3.41-1.73-.91-3.59-1.57-5.53-1.93h-.03s-.03-.02-.03-.02c-.79-.16-1.79-.32-2.36-.34-3.24-.04-8.99-.06-18.06-.06-5.47,0-11.49.01-17.31.02-5.63,0-10.94,0-15.61,0-3.38,0-6.07,0-8.19,0h-.39c-.07,0-.13,0-.2,0-.82-.02-1.93-.03-3.18-1v-.02s-.03-.01-.04-.02c2.63-7.71,6.67-14.9,11.9-21.16,1.7,0,3.41,0,5.13,0,10.94,0,22.27.03,32.61.05,6.34,0,12.35.03,17.56.03h.05c3.94.08,7.01.37,9.94.96,3.37.64,6.63,1.67,9.69,3.08,2.95,1.35,5.73,3.07,8.25,5.09,2.46,1.96,4.69,4.21,6.64,6.71,1.91,2.45,3.54,5.12,4.84,7.94,1.29,2.78,2.26,5.69,2.88,8.67.63,3.01.91,6.09.83,9.15Z"/>
  </g>
</svg>