<?xml version="1.0" encoding="UTF-8"?>
<svg version="1.1" xmlns="http://www.w3.org/2000/svg" width="116" height="39">
<path d="M0 0 C3.24257866 2.39950821 4.71585185 3.67397528 5.5625 7.625 C5 10 5 10 3 11.8125 C2.34 12.204375 1.68 12.59625 1 13 C1.804375 13.495 2.60875 13.99 3.4375 14.5 C6.41331053 17.40322979 6.95010453 18.92802035 7.18359375 22.97265625 C6.84883002 26.66930258 5.56369733 28.37526226 3 31 C-4.2947466 35.47150015 -12.91152968 33.88450993 -21 33 C-21 29.04 -21 25.08 -21 21 C-19.68 21 -18.36 21 -17 21 C-14.875 23.9375 -14.875 23.9375 -13 27 C-10.29120665 28.35439668 -7.99066732 28.06501451 -5 28 C-4.34 26.68 -3.68 25.36 -3 24 C-4.155 23.4225 -5.31 22.845 -6.5 22.25 C-7.22445313 21.88390625 -7.94890625 21.5178125 -8.6953125 21.140625 C-10.19868323 20.3965839 -11.7142149 19.67648802 -13.2421875 18.984375 C-13.94601563 18.65953125 -14.64984375 18.3346875 -15.375 18 C-16.02210937 17.71125 -16.66921875 17.4225 -17.3359375 17.125 C-19.47712527 15.67743644 -20.11433507 14.40972793 -21 12 C-20.92509181 7.80514108 -20.7586536 5.7586536 -17.75 2.75 C-16.8425 2.1725 -15.935 1.595 -15 1 C-14.278125 0.38125 -13.55625 -0.2375 -12.8125 -0.875 C-8.33115013 -2.66753995 -4.44998691 -1.61220837 0 0 Z M-12 4 C-11.67 5.65 -11.34 7.3 -11 9 C-8.03 9.99 -5.06 10.98 -2 12 C-3.23290969 6.23518502 -3.23290969 6.23518502 -7 2 C-9.32357511 1.81509993 -9.32357511 1.81509993 -12 4 Z " fill="#662379" transform="translate(21,3)"/>
<path d="M0 0 C4.29 0 8.58 0 13 0 C13.06058594 2.09601563 13.12117188 4.19203125 13.18359375 6.3515625 C13.24552382 8.39700423 13.30885296 10.44239824 13.37231445 12.48779297 C13.41544251 13.90181165 13.45713168 15.31587502 13.49731445 16.72998047 C13.5555575 18.7706444 13.61909141 20.81108795 13.68359375 22.8515625 C13.72025146 24.07697754 13.75690918 25.30239258 13.79467773 26.56494141 C13.96620108 30.44625951 13.96620108 30.44625951 15 36 C6.09 36 -2.82 36 -12 36 C-11.67 34.35 -11.34 32.7 -11 31 C-10.95793045 29.14631066 -10.9587492 27.29120774 -11 25.4375 C-11.07460455 22.07563227 -10.97235531 19.22852348 -10 16 C-11.32 15.67 -12.64 15.34 -14 15 C-13.67 14.01 -13.34 13.02 -13 12 C-9.04 12 -5.08 12 -1 12 C-0.95101562 13.42054687 -0.90203125 14.84109375 -0.8515625 16.3046875 C-0.77654064 18.16147856 -0.70099256 20.01824841 -0.625 21.875 C-0.5940625 22.81214844 -0.563125 23.74929687 -0.53125 24.71484375 C-0.49257813 25.61074219 -0.45390625 26.50664062 -0.4140625 27.4296875 C-0.3826416 28.25710449 -0.3512207 29.08452148 -0.31884766 29.93701172 C-0.17400863 32.21986085 -0.17400863 32.21986085 2 34 C3.72545279 28.82364162 3.22683219 23.35587163 3.25 17.9375 C3.270625 16.72771484 3.29125 15.51792969 3.3125 14.27148438 C3.31765625 13.11841797 3.3228125 11.96535156 3.328125 10.77734375 C3.3374707 9.71765381 3.34681641 8.65796387 3.35644531 7.56616211 C3.23881836 6.71932861 3.12119141 5.87249512 3 5 C2.01 4.34 1.02 3.68 0 3 C0 2.01 0 1.02 0 0 Z " fill="#6E2480" transform="translate(43,0)"/>
<path d="M0 0 C2.46109536 3.65194795 3.22179818 6.48991597 2.9375 10.875 C1.6770074 14.73062442 0.31605123 16.53250127 -2.6875 19.25 C-7.58012053 21.60570618 -11.99673259 21.85761776 -17.1953125 20.19140625 C-18.85007342 19.49131509 -20.46229241 18.69212728 -22.0625 17.875 C-22.0625 17.215 -22.0625 16.555 -22.0625 15.875 C-22.7225 15.875 -23.3825 15.875 -24.0625 15.875 C-25.36261106 11.97466681 -25.62013213 7.93197577 -25.0625 3.875 C-22.79335563 -0.3796457 -19.82124794 -2.28276937 -15.34765625 -3.74609375 C-9.63174843 -4.69385966 -4.68983506 -3.25417126 0 0 Z M-14.0625 -0.125 C-15.72800691 4.87152074 -15.69671165 9.93272683 -14.0625 14.9375 C-13.7325 15.576875 -13.4025 16.21625 -13.0625 16.875 C-11.4125 16.545 -9.7625 16.215 -8.0625 15.875 C-6.31070465 10.61961396 -6.41488049 6.38611219 -8.5625 1.375 C-9.0575 0.55 -9.5525 -0.275 -10.0625 -1.125 C-12.1370356 -1.2740712 -12.1370356 -1.2740712 -14.0625 -0.125 Z " fill="#6D2082" transform="translate(108.0625,15.125)"/>
<path d="M0 0 C0.474375 0.474375 0.94875 0.94875 1.4375 1.4375 C1.2725 2.035625 1.1075 2.63375 0.9375 3.25 C-0.16258726 8.06288174 1.45608627 11.06187802 3.4375 15.4375 C0.73368911 19.24286347 -1.09738778 21.07473017 -5.5625 22.4375 C-8.859375 22.66796875 -8.859375 22.66796875 -12.3125 22.625 C-13.46234375 22.61855469 -14.6121875 22.61210938 -15.796875 22.60546875 C-18.5625 22.4375 -18.5625 22.4375 -19.5625 21.4375 C-19.63429964 19.91821962 -19.64642007 18.39582518 -19.625 16.875 C-19.61597656 16.04871094 -19.60695312 15.22242187 -19.59765625 14.37109375 C-19.58605469 13.73300781 -19.57445312 13.09492188 -19.5625 12.4375 C-19.04300781 12.78683594 -18.52351563 13.13617188 -17.98828125 13.49609375 C-12.68525686 16.97805504 -12.68525686 16.97805504 -6.5625 18.4375 C-6.8925 17.4475 -7.2225 16.4575 -7.5625 15.4375 C-9.5425 15.1075 -11.5225 14.7775 -13.5625 14.4375 C-13.5625 13.7775 -13.5625 13.1175 -13.5625 12.4375 C-14.18125 12.23125 -14.8 12.025 -15.4375 11.8125 C-17.5625 10.4375 -17.5625 10.4375 -19 7.625 C-19.5625 4.4375 -19.5625 4.4375 -18.5 1.6875 C-13.70775848 -3.8776837 -6.03941909 -3.68257262 0 0 Z M-10.5625 1.4375 C-9.9025 2.7575 -9.2425 4.0775 -8.5625 5.4375 C-7.5725 5.4375 -6.5825 5.4375 -5.5625 5.4375 C-5.8925 4.1175 -6.2225 2.7975 -6.5625 1.4375 C-7.8825 1.4375 -9.2025 1.4375 -10.5625 1.4375 Z " fill="#6F2683" transform="translate(79.5625,13.5625)"/>
<path d="M0 0 C2.97 0 5.94 0 9 0 C9.92188461 2.76565382 10.11785222 4.38283702 10.09765625 7.23046875 C10.09443359 8.03291016 10.09121094 8.83535156 10.08789062 9.66210938 C10.07532227 10.91217773 10.07532227 10.91217773 10.0625 12.1875 C10.05798828 13.03248047 10.05347656 13.87746094 10.04882812 14.74804688 C10.03705403 16.83206155 10.0191189 18.91603977 10 21 C8.02 20.67 6.04 20.34 4 20 C3.01751476 15.9472484 2.91840426 12.16138263 3 8 C2.34 7.67 1.68 7.34 1 7 C1.33 5.68 1.66 4.36 2 3 C1.01 2.67 0.02 2.34 -1 2 C-0.67 1.34 -0.34 0.68 0 0 Z " fill="#6E2183" transform="translate(31,13)"/>
<path d="M0 0 C1.7734375 1.55078125 1.7734375 1.55078125 3 3 C0.525 2.505 0.525 2.505 -2 2 C-2.99 3.485 -2.99 3.485 -4 5 C-4 4.34 -4 3.68 -4 3 C-5.32 3 -6.64 3 -8 3 C-6.27773504 6.24849977 -6.27773504 6.24849977 -3 7 C-3 7.66 -3 8.32 -3 9 C-4.98 9 -6.96 9 -9 9 C-8.773125 9.598125 -8.54625 10.19625 -8.3125 10.8125 C-8.1578125 11.8953125 -8.1578125 11.8953125 -8 13 C-9.4375 14.75 -9.4375 14.75 -11 16 C-11 15.34 -11 14.68 -11 14 C-11.61875 13.79375 -12.2375 13.5875 -12.875 13.375 C-15 12 -15 12 -16.4375 9.1875 C-17 6 -17 6 -15.9375 3.25 C-11.62488167 -1.75820193 -6.07632214 -1.69545318 0 0 Z " fill="#621E74" transform="translate(77,12)"/>
<path d="M0 0 C3.43067585 0.92720969 4.78102355 1.69343297 6.875 4.625 C8.26687627 8.80062881 8.28079866 11.80278816 7 16 C4.76910569 19.53865993 2.83592674 21.42091176 -1 23 C-3.21875 23.265625 -3.21875 23.265625 -5.5 23.25 C-6.2528125 23.25515625 -7.005625 23.2603125 -7.78125 23.265625 C-10.2296721 22.97250404 -11.87304054 22.21816769 -14 21 C-13.67 18.69 -13.34 16.38 -13 14 C-11.0625 14.3125 -11.0625 14.3125 -9 15 C-8.67 15.99 -8.34 16.98 -8 18 C-6.68 18 -5.36 18 -4 18 C-3.34 16.68 -2.68 15.36 -2 14 C-1.34 15.32 -0.68 16.64 0 18 C0.99 18 1.98 18 3 18 C3 16.68 3 15.36 3 14 C3.99 14 4.98 14 6 14 C4.87302957 9.03088634 4.87302957 9.03088634 2 5 C2.33 4.01 2.66 3.02 3 2 C2.01 1.67 1.02 1.34 0 1 C0 0.67 0 0.34 0 0 Z " fill="#592273" transform="translate(103,13)"/>
<path d="M0 0 C2.01822917 0.06510417 4.03645833 0.13020833 6.0546875 0.1953125 C6.3846875 3.8253125 6.7146875 7.4553125 7.0546875 11.1953125 C6.0646875 11.1953125 5.0746875 11.1953125 4.0546875 11.1953125 C3.3946875 13.1753125 2.7346875 15.1553125 2.0546875 17.1953125 C1.0646875 16.8653125 0.0746875 16.5353125 -0.9453125 16.1953125 C-0.9453125 15.5353125 -0.9453125 14.8753125 -0.9453125 14.1953125 C-1.6053125 14.1953125 -2.2653125 14.1953125 -2.9453125 14.1953125 C-4.28182108 10.18578675 -4.14756273 6.37515053 -3.9453125 2.1953125 C-1.9453125 0.1953125 -1.9453125 0.1953125 0 0 Z " fill="#6F2785" transform="translate(86.9453125,16.8046875)"/>
<path d="M0 0 C3.28089341 2.42786112 4.77823718 3.63774268 5.4375 7.6875 C5 10 5 10 3 12 C0.375 12.625 0.375 12.625 -2 13 C-2.25394531 12.36191406 -2.50789063 11.72382813 -2.76953125 11.06640625 C-3.11371094 10.24011719 -3.45789062 9.41382813 -3.8125 8.5625 C-4.14894531 7.73878906 -4.48539063 6.91507813 -4.83203125 6.06640625 C-5.88403088 3.66627512 -5.88403088 3.66627512 -9 3 C-11.51083114 4.25541557 -11.87125446 5.50063488 -13 8 C-13.125 5.625 -13.125 5.625 -13 3 C-12.34 2.34 -11.68 1.68 -11 1 C-11.33 0.34 -11.66 -0.32 -12 -1 C-8.23443498 -2.88278251 -3.85811972 -1.22951068 0 0 Z " fill="#5B1F6B" transform="translate(21,3)"/>
<path d="M0 0 C3.96 0 7.92 0 12 0 C12.06058594 1.39734375 12.12117188 2.7946875 12.18359375 4.234375 C12.26801703 6.07292642 12.35266414 7.91146757 12.4375 9.75 C12.47681641 10.67039062 12.51613281 11.59078125 12.55664062 12.5390625 C12.61948242 13.87324219 12.61948242 13.87324219 12.68359375 15.234375 C12.72025146 16.05131836 12.75690918 16.86826172 12.79467773 17.70996094 C12.96842533 20.31267611 12.96842533 20.31267611 14 24 C9.71 24 5.42 24 1 24 C1.66 19.05 2.32 14.1 3 9 C3.33 9 3.66 9 4 9 C4.33 12.96 4.66 16.92 5 21 C6.98 21.33 8.96 21.66 11 22 C10.67 15.07 10.34 8.14 10 1 C1.97949852 1.36620684 1.97949852 1.36620684 -1 3 C-0.67 2.01 -0.34 1.02 0 0 Z " fill="#48195B" transform="translate(30,12)"/>
<path d="M0 0 C1.4540625 0.0309375 1.4540625 0.0309375 2.9375 0.0625 C3.2675 1.0525 3.5975 2.0425 3.9375 3.0625 C4.5975 3.0625 5.2575 3.0625 5.9375 3.0625 C5.9375 2.4025 5.9375 1.7425 5.9375 1.0625 C11.6875 0.9375 11.6875 0.9375 13.9375 2.0625 C13.9375 2.7225 13.9375 3.3825 13.9375 4.0625 C13.2775 4.7225 12.6175 5.3825 11.9375 6.0625 C11.6075 7.0525 11.2775 8.0425 10.9375 9.0625 C9 8.75 9 8.75 6.9375 8.0625 C6.6075 7.0725 6.2775 6.0825 5.9375 5.0625 C4.9475 5.7225 3.9575 6.3825 2.9375 7.0625 C2.6075 6.4025 2.2775 5.7425 1.9375 5.0625 C0.2875 5.3925 -1.3625 5.7225 -3.0625 6.0625 C-3.44468767 4.40635343 -3.77645102 2.73792976 -4.0625 1.0625 C-3.0625 0.0625 -3.0625 0.0625 0 0 Z " fill="#702283" transform="translate(7.0625,13.9375)"/>
<path d="M0 0 C3.5625 0.1875 3.5625 0.1875 5.5625 2.1875 C5.8125 4.6875 5.8125 4.6875 5.5625 7.1875 C3.5625 9.1875 3.5625 9.1875 0.5625 9.4375 C-2.4375 9.1875 -2.4375 9.1875 -4.4375 7.1875 C-4.625 4.125 -4.625 4.125 -4.4375 1.1875 C-3.4375 0.1875 -3.4375 0.1875 0 0 Z " fill="#581968" transform="translate(36.4375,-0.1875)"/>
<path d="M0 0 C2.33028092 0.93211237 3.75891532 1.69003398 5.3125 3.6875 C6.34473351 7.15955818 5.91760547 9.51309922 5 13 C2.5569076 16.12172918 1.01258882 17.70747434 -2.8125 18.8125 C-3.534375 18.874375 -4.25625 18.93625 -5 19 C-4.67 18.01 -4.34 17.02 -4 16 C-4.66 15.34 -5.32 14.68 -6 14 C-4.25 10.125 -4.25 10.125 -2 9 C-2 9.99 -2 10.98 -2 12 C-0.35 12 1.3 12 3 12 C3 9.36 3 6.72 3 4 C2.01 3.67 1.02 3.34 0 3 C0 2.01 0 1.02 0 0 Z " fill="#5A216D" transform="translate(22,17)"/>
<path d="M0 0 C0.53109375 0.33773438 1.0621875 0.67546875 1.609375 1.0234375 C2.31578125 1.46945313 3.0221875 1.91546875 3.75 2.375 C4.79414062 3.03628906 4.79414062 3.03628906 5.859375 3.7109375 C7.86517383 4.91880906 9.89178296 5.98387737 12 7 C11.67 7.33 11.34 7.66 11 8 C11.99 8.66 12.98 9.32 14 10 C11.85423363 10.02685938 9.70837355 10.04633088 7.5625 10.0625 C6.36753906 10.07410156 5.17257813 10.08570313 3.94140625 10.09765625 C1 10 1 10 0 9 C-0.07179964 7.48071962 -0.08392007 5.95832518 -0.0625 4.4375 C-0.05347656 3.61121094 -0.04445312 2.78492188 -0.03515625 1.93359375 C-0.02355469 1.29550781 -0.01195312 0.65742188 0 0 Z " fill="#531D67" transform="translate(60,26)"/>
<path d="M0 0 C-0.99 1.65 -1.98 3.3 -3 5 C-3.61875 4.67 -4.2375 4.34 -4.875 4 C-6.91018344 2.85806765 -6.91018344 2.85806765 -9 3 C-9.33 3.99 -9.66 4.98 -10 6 C-12.64 5.67 -15.28 5.34 -18 5 C-12.63301794 -1.19267161 -7.58570165 -1.3078796 0 0 Z " fill="#4D1A69" transform="translate(103,12)"/>
<path d="M0 0 C1.98 0.495 1.98 0.495 4 1 C4.33 2.65 4.66 4.3 5 6 C7.31 6 9.62 6 12 6 C12 6.99 12 7.98 12 9 C10.58376784 9.05447047 9.16691809 9.09300508 7.75 9.125 C6.96109375 9.14820313 6.1721875 9.17140625 5.359375 9.1953125 C2.79268059 8.9828378 1.2083933 8.28654105 -1 7 C-0.67 4.69 -0.34 2.38 0 0 Z " fill="#5E2773" transform="translate(90,27)"/>
<path d="M0 0 C2.31 0.66 4.62 1.32 7 2 C6.835 2.598125 6.67 3.19625 6.5 3.8125 C5.63232228 7.60859004 6.16467517 9.67347375 8 13 C7.01 13 6.02 13 5 13 C4.34 12.34 3.68 11.68 3 11 C2.34 10.67 1.68 10.34 1 10 C0.5859375 7.71484375 0.5859375 7.71484375 0.375 4.9375 C0.30023438 4.01839844 0.22546875 3.09929688 0.1484375 2.15234375 C0.09945312 1.44207031 0.05046875 0.73179688 0 0 Z " fill="#602674" transform="translate(74,13)"/>
<path d="M0 0 C2.375 -0.125 2.375 -0.125 5 0 C7 2 7 2 7.1875 4.5625 C7 7 7 7 6 8 C3 8.125 3 8.125 0 8 C-0.33 7.67 -0.66 7.34 -1 7 C-0.71269945 4.66055264 -0.38063221 2.3260857 0 0 Z M5 3 C6 6 6 6 6 6 Z M3 5 C4 7 4 7 4 7 Z " fill="#2D1F59" transform="translate(109,31)"/>
<path d="M0 0 C0.66 0.99 1.32 1.98 2 3 C-2.18461538 7.92307692 -2.18461538 7.92307692 -6.3125 8.3125 C-7.6428125 8.1578125 -7.6428125 8.1578125 -9 8 C-9.33 7.34 -9.66 6.68 -10 6 C-9.34 5.67 -8.68 5.34 -8 5 C-7.34 4.01 -6.68 3.02 -6 2 C-5.01 2 -4.02 2 -3 2 C-2.01 1.34 -1.02 0.68 0 0 Z " fill="#63237D" transform="translate(80,27)"/>
<path d="M0 0 C3.43067585 0.92720969 4.78102355 1.69343297 6.875 4.625 C8.32093708 8.96281123 7.84546265 11.54210601 7 16 C5.68 16 4.36 16 3 16 C3 15.34 3 14.68 3 14 C3.99 14 4.98 14 6 14 C4.87302957 9.03088634 4.87302957 9.03088634 2 5 C2.33 4.01 2.66 3.02 3 2 C2.01 1.67 1.02 1.34 0 1 C0 0.67 0 0.34 0 0 Z " fill="#58236D" transform="translate(103,13)"/>
<path d="M0 0 C4.875 0.875 4.875 0.875 6 2 C6.01674294 3.85583223 5.96275607 5.71239363 5.87890625 7.56640625 C5.83056641 8.69111328 5.78222656 9.81582031 5.73242188 10.97460938 C5.67634766 12.15861328 5.62027344 13.34261719 5.5625 14.5625 C5.51029297 15.75037109 5.45808594 16.93824219 5.40429688 18.16210938 C5.2741434 21.10831066 5.1391636 24.05421276 5 27 C4.67 27 4.34 27 4 27 C3.98541748 26.2886792 3.97083496 25.5773584 3.95581055 24.84448242 C3.88138994 21.62493668 3.78471 18.40643482 3.6875 15.1875 C3.66494141 14.06794922 3.64238281 12.94839844 3.61914062 11.79492188 C3.58369141 10.72177734 3.54824219 9.64863281 3.51171875 8.54296875 C3.48553467 7.55321045 3.45935059 6.56345215 3.43237305 5.54370117 C2.94478784 2.67518042 2.25128105 1.76905088 0 0 Z " fill="#4A175A" transform="translate(43,2)"/>
<path d="M0 0 C1.32 0 2.64 0 4 0 C4.73080266 1.97746603 5.39421747 3.98072489 6 6 C5.67 6.66 5.34 7.32 5 8 C2.4375 8.625 2.4375 8.625 0 9 C0 6.03 0 3.06 0 0 Z " fill="#6F2680" transform="translate(0,24)"/>
<path d="M0 0 C1.16015625 0.10054687 1.16015625 0.10054687 2.34375 0.203125 C4.86784958 0.84329518 5.84858624 1.78100667 7.5 3.75 C5.85 3.42 4.2 3.09 2.5 2.75 C1.51 4.235 1.51 4.235 0.5 5.75 C0.5 5.09 0.5 4.43 0.5 3.75 C-0.82 3.75 -2.14 3.75 -3.5 3.75 C-3.83 4.41 -4.16 5.07 -4.5 5.75 C-4.5 4.76 -4.5 3.77 -4.5 2.75 C-5.49 2.09 -6.48 1.43 -7.5 0.75 C-4.51786685 -0.24404438 -3.05541462 -0.30554146 0 0 Z " fill="#3F074B" transform="translate(72.5,11.25)"/>
<path d="M0 0 C0.99 0.33 1.98 0.66 3 1 C3 3.64 3 6.28 3 9 C1.125 9.625 1.125 9.625 -1 10 C-1.66 9.34 -2.32 8.68 -3 8 C-2.34 7.01 -1.68 6.02 -1 5 C-0.61500109 3.34450469 -0.27206865 1.6777567 0 0 Z " fill="#702083" transform="translate(23,20)"/>
<path d="M0 0 C1.98 0 3.96 0 6 0 C6 0.66 6 1.32 6 2 C5.67 2.33 5.34 2.66 5 3 C5.33 3.66 5.66 4.32 6 5 C5.01 6.485 5.01 6.485 4 8 C3.34 8 2.68 8 2 8 C2 7.34 2 6.68 2 6 C1.34 5.67 0.68 5.34 0 5 C0.66 5 1.32 5 2 5 C2 4.34 2 3.68 2 3 C1.34 3 0.68 3 0 3 C0 2.01 0 1.02 0 0 Z " fill="#712384" transform="translate(34,0)"/>
<path d="M0 0 C1.98 0.99 1.98 0.99 4 2 C4 2.66 4 3.32 4 4 C4.66 4 5.32 4 6 4 C6 4.66 6 5.32 6 6 C4.35 6.66 2.7 7.32 1 8 C0 7 0 7 -0.0625 3.4375 C-0.041875 2.303125 -0.02125 1.16875 0 0 Z " fill="#6E1F7E" transform="translate(20,6)"/>
<path d="M0 0 C0.625 2.375 0.625 2.375 1 5 C0.34 5.66 -0.32 6.32 -1 7 C-1.66 6.67 -2.32 6.34 -3 6 C-3 5.34 -3 4.68 -3 4 C-3.66 4 -4.32 4 -5 4 C-5 3.01 -5 2.02 -5 1 C-3 0 -3 0 0 0 Z " fill="#69337D" transform="translate(89,27)"/>
<path d="M0 0 C0.78375 0.185625 1.5675 0.37125 2.375 0.5625 C4.97089775 1.25962266 4.97089775 1.25962266 7 0 C7.6875 1.8125 7.6875 1.8125 8 4 C6.5625 5.75 6.5625 5.75 5 7 C5 6.34 5 5.68 5 5 C4.360625 4.731875 3.72125 4.46375 3.0625 4.1875 C1 3 1 3 0 0 Z " fill="#5F286F" transform="translate(61,21)"/>
<path d="M0 0 C2.625 0.375 2.625 0.375 5 1 C3.68 1.33 2.36 1.66 1 2 C0.67 4.64 0.34 7.28 0 10 C-0.66 10 -1.32 10 -2 10 C-2.1953125 3.9453125 -2.1953125 3.9453125 -2 2 C-1.34 1.34 -0.68 0.68 0 0 Z " fill="#612B77" transform="translate(85,17)"/>
<path d="M0 0 C2 3 2 3 2 6 C-1.96 6 -5.92 6 -10 6 C-6.00889681 4.0044484 -4.30013434 3.80453935 0 4 C0 2.68 0 1.36 0 0 Z " fill="#34124D" transform="translate(56,30)"/>
<path d="M0 0 C0.33 0.99 0.66 1.98 1 3 C1.66 3 2.32 3 3 3 C3 4.65 3 6.3 3 8 C1.68 7.67 0.36 7.34 -1 7 C-1.04254356 5.00045254 -1.04080783 2.99958364 -1 1 C-0.67 0.67 -0.34 0.34 0 0 Z " fill="#611D70" transform="translate(33,0)"/>
<path d="M0 0 C0.66 0.33 1.32 0.66 2 1 C2 1.66 2 2.32 2 3 C-2.38461538 6 -2.38461538 6 -5 6 C-4.625 4.0625 -4.625 4.0625 -4 2 C-3.34 1.67 -2.68 1.34 -2 1 C-1.34 1.33 -0.68 1.66 0 2 C0 1.34 0 0.68 0 0 Z " fill="#5D1E72" transform="translate(5,30)"/>
<path d="M0 0 C0.66 0.99 1.32 1.98 2 3 C0.37660195 4.70884005 -1.29319053 6.37446717 -3 8 C-3.66 8 -4.32 8 -5 8 C-4.67 7.01 -4.34 6.02 -4 5 C-3.34 5 -2.68 5 -2 5 C-1.34 3.35 -0.68 1.7 0 0 Z " fill="#5C286F" transform="translate(80,27)"/>
<path d="M0 0 C1.4540625 0.0309375 1.4540625 0.0309375 2.9375 0.0625 C0.60416667 2.39583333 -1.72916667 4.72916667 -4.0625 7.0625 C-4.10504356 5.06295254 -4.10330783 3.06208364 -4.0625 1.0625 C-3.0625 0.0625 -3.0625 0.0625 0 0 Z " fill="#712989" transform="translate(105.0625,19.9375)"/>
<path d="M0 0 C2.97 0 5.94 0 9 0 C9 0.33 9 0.66 9 1 C7.35 1.33 5.7 1.66 4 2 C3.67 3.65 3.34 5.3 3 7 C2.896875 6.360625 2.79375 5.72125 2.6875 5.0625 C2.460625 4.381875 2.23375 3.70125 2 3 C1.01 2.67 0.02 2.34 -1 2 C-0.67 1.34 -0.34 0.68 0 0 Z " fill="#5A2070" transform="translate(31,13)"/>
<path d="M0 0 C1.65 0.33 3.3 0.66 5 1 C5 1.99 5 2.98 5 4 C4.071875 4.12375 4.071875 4.12375 3.125 4.25 C0.81562433 4.81258459 0.81562433 4.81258459 -0.25 7.0625 C-0.4975 7.701875 -0.745 8.34125 -1 9 C-1.125 6.625 -1.125 6.625 -1 4 C-0.34 3.34 0.32 2.68 1 2 C0.67 1.34 0.34 0.68 0 0 Z " fill="#4F1461" transform="translate(9,2)"/>
<path d="M0 0 C1.65 1.32 3.3 2.64 5 4 C4.01 4.66 3.02 5.32 2 6 C1.27617533 8.05925139 1.27617533 8.05925139 1 10 C0 9 0 9 -0.09765625 6.93359375 C-0.08605469 6.10988281 -0.07445312 5.28617188 -0.0625 4.4375 C-0.05347656 3.61121094 -0.04445312 2.78492188 -0.03515625 1.93359375 C-0.02355469 1.29550781 -0.01195312 0.65742188 0 0 Z " fill="#462158" transform="translate(60,26)"/>
<path d="M0 0 C0.99 0.33 1.98 0.66 3 1 C2.67 3.64 2.34 6.28 2 9 C0.68 9 -0.64 9 -2 9 C-2 8.34 -2 7.68 -2 7 C-1.01 7 -0.02 7 1 7 C0.67 4.69 0.34 2.38 0 0 Z " fill="#4B1961" transform="translate(108,20)"/>
<path d="M0 0 C2.375 -0.125 2.375 -0.125 5 0 C7 2 7 2 7.125 4.625 C7.08375 5.40875 7.0425 6.1925 7 7 C6.01 7 5.02 7 4 7 C4.66 6.67 5.32 6.34 6 6 C6 5.01 6 4.02 6 3 C4.02 2.34 2.04 1.68 0 1 C0 0.67 0 0.34 0 0 Z " fill="#140A31" transform="translate(109,31)"/>
<path d="" fill="#FFFFFF" transform="translate(0,0)"/>
<path d="" fill="#FFFFFF" transform="translate(0,0)"/>
<path d="" fill="#FFFFFF" transform="translate(0,0)"/>
<path d="" fill="#FFFFFF" transform="translate(0,0)"/>
<path d="" fill="#FFFFFF" transform="translate(0,0)"/>
<path d="" fill="#FFFFFF" transform="translate(0,0)"/>
<path d="" fill="#FFFFFF" transform="translate(0,0)"/>
<path d="" fill="#FFFFFF" transform="translate(0,0)"/>
<path d="" fill="#FFFFFF" transform="translate(0,0)"/>
<path d="" fill="#FFFFFF" transform="translate(0,0)"/>
<path d="" fill="#FFFFFF" transform="translate(0,0)"/>
<path d="" fill="#FFFFFF" transform="translate(0,0)"/>
<path d="" fill="#FFFFFF" transform="translate(0,0)"/>
<path d="" fill="#FFFFFF" transform="translate(0,0)"/>
<path d="" fill="#FFFFFF" transform="translate(0,0)"/>
<path d="" fill="#FFFFFF" transform="translate(0,0)"/>
<path d="" fill="#FFFFFF" transform="translate(0,0)"/>
<path d="" fill="#FFFFFF" transform="translate(0,0)"/>
<path d="" fill="#FFFFFF" transform="translate(0,0)"/>
<path d="" fill="#FFFFFF" transform="translate(0,0)"/>
<path d="" fill="#FFFFFF" transform="translate(0,0)"/>
<path d="" fill="#FFFFFF" transform="translate(0,0)"/>
<path d="" fill="#FFFFFF" transform="translate(0,0)"/>
<path d="" fill="#FFFFFF" transform="translate(0,0)"/>
<path d="" fill="#FFFFFF" transform="translate(0,0)"/>
<path d="" fill="#FFFFFF" transform="translate(0,0)"/>
</svg>
